<svg xmlns="http://www.w3.org/2000/svg" xmlns:xlink="http://www.w3.org/1999/xlink" width="124.011" height="125.273" viewBox="0 0 124.011 125.273">
  <defs>
    <filter id="Elipse_11501" x="0" y="0" width="124.011" height="125.273" filterUnits="userSpaceOnUse">
      <feOffset dy="3" input="SourceAlpha"/>
      <feGaussianBlur stdDeviation="3" result="blur"/>
      <feFlood flood-opacity="0.161"/>
      <feComposite operator="in" in2="blur"/>
      <feComposite in="SourceGraphic"/>
    </filter>
    <filter id="Elipse_11501-2" x="0" y="0" width="124.011" height="125.273" filterUnits="userSpaceOnUse">
      <feOffset dy="6" input="SourceAlpha"/>
      <feGaussianBlur stdDeviation="3" result="blur-2"/>
      <feFlood flood-opacity="0.161" result="color"/>
      <feComposite operator="out" in="SourceGraphic" in2="blur-2"/>
      <feComposite operator="in" in="color"/>
      <feComposite operator="in" in2="SourceGraphic"/>
    </filter>
  </defs>
  <g id="Grupo_1099811" data-name="Grupo 1099811" transform="translate(-912.333 -391)">
    <g id="Grupo_1099492" data-name="Grupo 1099492" transform="translate(921.333 397)">
      <g data-type="innerShadowGroup">
        <g transform="matrix(1, 0, 0, 1, -9, -6)" filter="url(#Elipse_11501)">
          <ellipse id="Elipse_11501-3" data-name="Elipse 11501" cx="53.005" cy="53.636" rx="53.005" ry="53.636" transform="translate(9 6)" fill="#a4a1c5"/>
        </g>
        <g transform="matrix(1, 0, 0, 1, -9, -6)" filter="url(#Elipse_11501-2)">
          <ellipse id="Elipse_11501-4" data-name="Elipse 11501" cx="53.005" cy="53.636" rx="53.005" ry="53.636" transform="translate(9 6)" fill="#fff"/>
        </g>
      </g>
    </g>
    <g id="_x38_1_Features" transform="translate(919.294 417.441)">
      <g id="Grupo_1100811" data-name="Grupo 1100811" transform="translate(25.162 0.064)">
        <g id="Grupo_1100810" data-name="Grupo 1100810" transform="translate(0 0)">
          <path id="Trazado_883496" data-name="Trazado 883496" d="M44.119,5.871l-3.784-.548a.607.607,0,0,1-.455-.331L38.188,1.556a2.672,2.672,0,0,0-4.793,0l-1.7,3.441a.6.6,0,0,1-.453.329l-3.786.549a2.672,2.672,0,0,0-1.483,4.558L28.716,13.1a.6.6,0,0,1,.174.533L28.243,17.4a2.674,2.674,0,0,0,3.879,2.817l3.39-1.784a.6.6,0,0,1,.561,0l3.376,1.78A2.673,2.673,0,0,0,43.33,17.4l-.646-3.764a.6.6,0,0,1,.174-.533L45.6,10.428a2.672,2.672,0,0,0-1.482-4.558Zm.037,3.076L41.413,11.62a2.673,2.673,0,0,0-.769,2.366h0l.646,3.764a.6.6,0,0,1-.874.634L37.039,16.6a2.675,2.675,0,0,0-2.492,0l-3.39,1.784a.6.6,0,0,1-.874-.635l.647-3.767a2.673,2.673,0,0,0-.769-2.365L27.417,8.946a.6.6,0,0,1,.334-1.027l3.786-.548A2.673,2.673,0,0,0,33.551,5.91l1.7-3.441a.6.6,0,0,1,1.079,0l1.692,3.437a2.673,2.673,0,0,0,2.015,1.464l3.785.548a.6.6,0,0,1,.333,1.027Z" transform="translate(-25.162 -0.064)" fill="#12263f"/>
          <path id="Trazado_883497" data-name="Trazado 883497" d="M86.5,64.637,83.957,67.18l-.549-.549A1.035,1.035,0,0,0,81.944,68.1l1.281,1.281a1.035,1.035,0,0,0,1.464,0L87.964,66.1A1.035,1.035,0,1,0,86.5,64.637Z" transform="translate(-74.33 -56.014)" fill="#12263f"/>
          <path id="Trazado_883498" data-name="Trazado 883498" d="M221.934,20.793H254.29a1.035,1.035,0,1,0,0-2.071H221.934a1.035,1.035,0,1,0,0,2.071Z" transform="translate(-195.56 -16.307)" fill="#12263f"/>
          <path id="Trazado_883499" data-name="Trazado 883499" d="M254.29,71.122H221.934a1.035,1.035,0,0,0,0,2.071H254.29a1.035,1.035,0,1,0,0-2.071Z" transform="translate(-195.56 -61.923)" fill="#12263f"/>
          <path id="Trazado_883500" data-name="Trazado 883500" d="M221.934,125.592h23.02a1.035,1.035,0,1,0,0-2.071h-23.02a1.035,1.035,0,1,0,0,2.071Z" transform="translate(-195.561 -107.539)" fill="#12263f"/>
          <path id="Trazado_883501" data-name="Trazado 883501" d="M44.119,182.743l-3.784-.548a.607.607,0,0,1-.455-.331l-1.692-3.436a2.672,2.672,0,0,0-4.793,0l-1.7,3.441a.6.6,0,0,1-.453.329l-3.786.549a2.672,2.672,0,0,0-1.483,4.558l2.744,2.675a.6.6,0,0,1,.174.533l-.647,3.767a2.674,2.674,0,0,0,3.879,2.817l3.39-1.785a.6.6,0,0,1,.561,0l3.376,1.78a2.673,2.673,0,0,0,3.881-2.816l-.646-3.764a.6.6,0,0,1,.174-.533L45.6,187.3a2.672,2.672,0,0,0-1.482-4.558Zm.037,3.076-2.743,2.674a2.673,2.673,0,0,0-.769,2.366h0l.646,3.764a.6.6,0,0,1-.874.634l-3.376-1.78a2.675,2.675,0,0,0-2.492,0l-3.39,1.785a.6.6,0,0,1-.874-.635l.647-3.767a2.673,2.673,0,0,0-.769-2.365l-2.745-2.675a.6.6,0,0,1,.334-1.027l3.786-.548a2.673,2.673,0,0,0,2.013-1.461l1.7-3.44a.6.6,0,0,1,1.079,0l1.692,3.437a2.673,2.673,0,0,0,2.015,1.464l3.785.548a.6.6,0,0,1,.333,1.027Z" transform="translate(-25.162 -154.041)" fill="#12263f"/>
          <path id="Trazado_883502" data-name="Trazado 883502" d="M86.5,241.518l-2.542,2.543-.549-.55a1.036,1.036,0,0,0-1.465,1.464l1.281,1.282a1.036,1.036,0,0,0,1.464,0l3.275-3.275a1.035,1.035,0,0,0-1.464-1.464Z" transform="translate(-74.329 -209.998)" fill="#12263f"/>
          <path id="Trazado_883503" data-name="Trazado 883503" d="M254.29,195.6H221.934a1.035,1.035,0,0,0,0,2.071H254.29a1.035,1.035,0,1,0,0-2.071Z" transform="translate(-195.56 -170.283)" fill="#12263f"/>
          <path id="Trazado_883504" data-name="Trazado 883504" d="M254.29,247.995H221.934a1.035,1.035,0,0,0,0,2.071H254.29a1.035,1.035,0,1,0,0-2.071Z" transform="translate(-195.56 -215.9)" fill="#12263f"/>
          <path id="Trazado_883505" data-name="Trazado 883505" d="M221.934,302.465h23.02a1.035,1.035,0,1,0,0-2.071h-23.02a1.035,1.035,0,1,0,0,2.071Z" transform="translate(-195.561 -261.516)" fill="#12263f"/>
          <path id="Trazado_883506" data-name="Trazado 883506" d="M44.118,359.617l-3.784-.548a.608.608,0,0,1-.455-.33L38.187,355.3a2.672,2.672,0,0,0-4.793,0l-1.7,3.441a.607.607,0,0,1-.453.33l-3.787.548a2.672,2.672,0,0,0-1.483,4.558l2.744,2.675a.6.6,0,0,1,.174.533l-.647,3.767a2.673,2.673,0,0,0,3.879,2.817l3.39-1.784a.6.6,0,0,1,.561,0l3.376,1.78a2.674,2.674,0,0,0,3.881-2.816l-.646-3.765h0a.6.6,0,0,1,.174-.533l2.743-2.675a2.672,2.672,0,0,0-1.482-4.558Zm.037,3.076-2.743,2.674a2.673,2.673,0,0,0-.769,2.366l.647,3.765a.6.6,0,0,1-.875.634l-3.376-1.78a2.669,2.669,0,0,0-2.492,0l-3.39,1.785a.6.6,0,0,1-.874-.635l.647-3.767a2.673,2.673,0,0,0-.769-2.365l-2.745-2.675a.6.6,0,0,1,.334-1.027l3.788-.548a2.672,2.672,0,0,0,2.012-1.461l1.7-3.44a.6.6,0,0,1,1.079,0l1.693,3.438a2.672,2.672,0,0,0,2.015,1.463l3.785.548a.6.6,0,0,1,.333,1.027Z" transform="translate(-25.162 -308.018)" fill="#12263f"/>
          <path id="Trazado_883507" data-name="Trazado 883507" d="M86.5,418.391l-2.542,2.543-.549-.55a1.036,1.036,0,0,0-1.465,1.464l1.281,1.282a1.036,1.036,0,0,0,1.464,0l3.275-3.275a1.035,1.035,0,0,0-1.464-1.464Z" transform="translate(-74.329 -363.974)" fill="#12263f"/>
          <path id="Trazado_883508" data-name="Trazado 883508" d="M254.29,372.468H221.934a1.035,1.035,0,0,0,0,2.071H254.29a1.035,1.035,0,1,0,0-2.071Z" transform="translate(-195.56 -324.26)" fill="#12263f"/>
          <path id="Trazado_883509" data-name="Trazado 883509" d="M254.29,424.868H221.934a1.035,1.035,0,0,0,0,2.071H254.29a1.035,1.035,0,1,0,0-2.071Z" transform="translate(-195.56 -369.876)" fill="#12263f"/>
          <path id="Trazado_883510" data-name="Trazado 883510" d="M244.954,477.267h-23.02a1.035,1.035,0,1,0,0,2.071h23.02a1.035,1.035,0,0,0,0-2.071Z" transform="translate(-195.56 -415.492)" fill="#12263f"/>
        </g>
      </g>
    </g>
  </g>
</svg>
