<svg xmlns="http://www.w3.org/2000/svg" xmlns:xlink="http://www.w3.org/1999/xlink" width="84.785" height="87" viewBox="0 0 84.785 87">
  <defs>
    <filter id="Elipse_11501" x="0" y="1.42" width="84.785" height="85.58" filterUnits="userSpaceOnUse">
      <feOffset dy="3" input="SourceAlpha"/>
      <feGaussianBlur stdDeviation="3" result="blur"/>
      <feFlood flood-opacity="0.161"/>
      <feComposite operator="in" in2="blur"/>
      <feComposite in="SourceGraphic"/>
    </filter>
    <filter id="Elipse_11501-2" x="0" y="1.42" width="84.785" height="85.58" filterUnits="userSpaceOnUse">
      <feOffset dy="6" input="SourceAlpha"/>
      <feGaussianBlur stdDeviation="3" result="blur-2"/>
      <feFlood flood-opacity="0.161" result="color"/>
      <feComposite operator="out" in="SourceGraphic" in2="blur-2"/>
      <feComposite operator="in" in="color"/>
      <feComposite operator="in" in2="SourceGraphic"/>
    </filter>
    <clipPath id="clip-path">
      <rect id="Rectángulo_401455" data-name="Rectángulo 401455" width="18.618" height="26.727" fill="#12263f"/>
    </clipPath>
  </defs>
  <g id="Grupo_1100794" data-name="Grupo 1100794" transform="translate(-912.333 -387.667)">
    <g id="Grupo_1099492" data-name="Grupo 1099492" transform="translate(921.333 395.087)">
      <g data-type="innerShadowGroup">
        <g transform="matrix(1, 0, 0, 1, -9, -7.42)" filter="url(#Elipse_11501)">
          <ellipse id="Elipse_11501-3" data-name="Elipse 11501" cx="33.392" cy="33.79" rx="33.392" ry="33.79" transform="translate(9 7.42)" fill="#7ab8f5"/>
        </g>
        <g transform="matrix(1, 0, 0, 1, -9, -7.42)" filter="url(#Elipse_11501-2)">
          <ellipse id="Elipse_11501-4" data-name="Elipse 11501" cx="33.392" cy="33.79" rx="33.392" ry="33.79" transform="translate(9 7.42)" fill="#fff"/>
        </g>
      </g>
      <g id="caja-de-devolucion" transform="translate(10.444 2.402)">
        <path id="Trazado_883488" data-name="Trazado 883488" d="M32.163,16.967,53.1,29.057a2.1,2.1,0,0,1,1.075,1.862V55.1A2.1,2.1,0,0,1,53.1,56.96l-20.94,12.09a2.1,2.1,0,0,1-2.15,0L9.074,56.96A2.1,2.1,0,0,1,8,55.1V30.919a2.1,2.1,0,0,1,1.075-1.862l20.94-12.09a2.1,2.1,0,0,1,2.15,0Z" transform="translate(-7.118 -9.745)" fill="#f2d1a5" fill-rule="evenodd"/>
        <path id="Trazado_883489" data-name="Trazado 883489" d="M240.64,136.341a2.141,2.141,0,0,1,.281,1.075V161.6a2.1,2.1,0,0,1-1.075,1.858l-20.94,12.09a2.142,2.142,0,0,1-1.075.3V149.51Z" transform="translate(-193.861 -116.246)" fill="#e3a76f" fill-rule="evenodd"/>
        <path id="Trazado_883490" data-name="Trazado 883490" d="M34.441,16.967l20.94,12.09a2.141,2.141,0,0,1,.794.783L33.367,43.008,10.558,29.84a2.141,2.141,0,0,1,.794-.783l20.94-12.09A2.1,2.1,0,0,1,34.441,16.967Z" transform="translate(-9.396 -9.745)" fill="#c48958" fill-rule="evenodd"/>
        <path id="Trazado_883491" data-name="Trazado 883491" d="M82.493,70.058l6.7,3.866,23.09-13.331-6.7-3.866Z" transform="translate(-73.415 -45.393)" fill="#d1d1d6" fill-rule="evenodd"/>
        <path id="Trazado_883492" data-name="Trazado 883492" d="M88.382,191.772l-5.352-3.09a1.05,1.05,0,0,1-.538-.931v-9.878l6.7,3.866v9.568a.537.537,0,0,1-.806.465Z" transform="translate(-73.415 -153.208)" fill="#eceff1" fill-rule="evenodd"/>
        <path id="Trazado_883493" data-name="Trazado 883493" d="M280.137,247.145v2.777a.55.55,0,0,1-.876.444l-8.17-5.994a1.1,1.1,0,0,1-.055-1.731l8.2-6.861a.55.55,0,0,1,.9.422v2.536c19.983,0,21.081,20.671,5.39,24.531a.11.11,0,0,1-.077-.2C294.894,258.127,291.635,247.145,280.137,247.145Z" transform="translate(-240.861 -204.628)" fill="#e8f57a" fill-rule="evenodd"/>
        <path id="Trazado_883494" data-name="Trazado 883494" d="M294.826,240.745c18.167-2.075,25.843,7.286,18.284,19.672,8.841-6.9,5.447-21.678-11.45-21.678V236.2a.55.55,0,0,0-.9-.422Z" transform="translate(-262.383 -204.63)" fill="#bac462" fill-rule="evenodd"/>
        <path id="Trazado_883495" data-name="Trazado 883495" d="M49.181,55.813a9.555,9.555,0,0,0,.6-.876,7.946,7.946,0,0,0,1.041-5.85A8.673,8.673,0,0,0,47.113,43.8a13.846,13.846,0,0,0-7.837-2.162.88.88,0,0,0-.88.88v2.125l-7.871-5.774L38.4,32.28v1.83a.88.88,0,0,0,.88.88c10.507,0,14.785,5.666,15.256,10.517a11.069,11.069,0,0,1-5.351,10.306ZM24.85,58.4,46.179,46.085V45.3c-.02-.014-.038-.028-.059-.042a11.644,11.644,0,0,0-5.963-1.833v2.96a.88.88,0,0,1-1.4.71L28.578,39.623a.88.88,0,0,1-.045-1.385l10.177-8.517a.88.88,0,0,1,1.446.675v2.847a23.358,23.358,0,0,1,6.023.935V21.457L24.85,33.771ZM1.761,21.457,8.2,25.173v9.991a.883.883,0,0,0,.44.763l6.7,3.866a.88.88,0,0,0,1.32-.762V30.055l6.436,3.716V58.4L1.761,46.085ZM23.97,7.618l6.436,3.716L9.077,23.648,2.641,19.932ZM14.893,29.039l-4.936-2.85v8.466l4.936,2.85Zm-4.055-4.375L32.167,12.35,37.1,15.2,15.773,27.514l-4.935-2.85ZM23.97,32.246,17.534,28.53,38.863,16.217,45.3,19.933,23.97,32.247Zm32.315,13.09a12.222,12.222,0,0,0-4.757-8.454,15.345,15.345,0,0,0-3.588-2.077V19.932a.88.88,0,0,0-.44-.763L24.41,5.839a.88.88,0,0,0-.88,0L.44,19.17a.883.883,0,0,0-.44.763V46.594a.883.883,0,0,0,.44.762L23.529,60.687a.878.878,0,0,0,.88,0L47.5,47.356a.871.871,0,0,0,.384-.458A6.36,6.36,0,0,1,49.1,49.457c.726,3.382-1.461,6.671-5.709,8.582a.88.88,0,0,0,.36,1.684.894.894,0,0,0,.17-.017,16.029,16.029,0,0,0,9.645-5.483A12.269,12.269,0,0,0,56.286,45.336Z" transform="translate(0)" fill-rule="evenodd"/>
      </g>
    </g>
    <g id="Grupo_1099581" data-name="Grupo 1099581" transform="translate(921.333 387.667)">
      <g id="Grupo_1099580" data-name="Grupo 1099580">
        <g id="Grupo_1099579" data-name="Grupo 1099579" clip-path="url(#clip-path)">
          <path id="Trazado_877686" data-name="Trazado 877686" d="M9.184.011a9.145,9.145,0,0,1,4.761,1.223,9.345,9.345,0,0,1,3.641,12.494L9.791,26.389a.969.969,0,0,1-.3.309.376.376,0,0,1-.2.025l-.019,0c-.272-.06-.553-.664-.691-.883L2.229,15.548C.853,13.288.059,11.994.066,9.234A5.165,5.165,0,0,1,.1,8.423l.152-.907A9.392,9.392,0,0,1,7.866.134,7.988,7.988,0,0,1,9.184.011" transform="translate(-0.063 -0.005)" fill="#12263f"/>
        </g>
      </g>
      <circle id="Elipse_11513" data-name="Elipse 11513" cx="4.373" cy="4.373" r="4.373" transform="translate(4.77 4.24)" fill="#fff"/>
    </g>
  </g>
</svg>
