<svg xmlns="http://www.w3.org/2000/svg" xmlns:xlink="http://www.w3.org/1999/xlink" width="84.785" height="87" viewBox="0 0 84.785 87">
  <defs>
    <filter id="Elipse_11501" x="0" y="1.42" width="84.785" height="85.58" filterUnits="userSpaceOnUse">
      <feOffset dy="3" input="SourceAlpha"/>
      <feGaussianBlur stdDeviation="3" result="blur"/>
      <feFlood flood-opacity="0.161"/>
      <feComposite operator="in" in2="blur"/>
      <feComposite in="SourceGraphic"/>
    </filter>
    <filter id="Elipse_11501-2" x="0" y="1.42" width="84.785" height="85.58" filterUnits="userSpaceOnUse">
      <feOffset dy="6" input="SourceAlpha"/>
      <feGaussianBlur stdDeviation="3" result="blur-2"/>
      <feFlood flood-opacity="0.161" result="color"/>
      <feComposite operator="out" in="SourceGraphic" in2="blur-2"/>
      <feComposite operator="in" in="color"/>
      <feComposite operator="in" in2="SourceGraphic"/>
    </filter>
    <clipPath id="clip-path">
      <rect id="Rectángulo_401455" data-name="Rectángulo 401455" width="18.618" height="26.727" fill="#12263f"/>
    </clipPath>
  </defs>
  <g id="Grupo_1100024" data-name="Grupo 1100024" transform="translate(-912.333 -387.667)">
    <g id="Grupo_1099492" data-name="Grupo 1099492" transform="translate(921.333 395.087)">
      <g data-type="innerShadowGroup">
        <g transform="matrix(1, 0, 0, 1, -9, -7.42)" filter="url(#Elipse_11501)">
          <ellipse id="Elipse_11501-3" data-name="Elipse 11501" cx="33.392" cy="33.79" rx="33.392" ry="33.79" transform="translate(9 7.42)" fill="#e8f57a"/>
        </g>
        <g transform="matrix(1, 0, 0, 1, -9, -7.42)" filter="url(#Elipse_11501-2)">
          <ellipse id="Elipse_11501-4" data-name="Elipse 11501" cx="33.392" cy="33.79" rx="33.392" ry="33.79" transform="translate(9 7.42)" fill="#fff"/>
        </g>
      </g>
      <g id="administrar" transform="translate(10.734 13.088)">
        <path id="Trazado_883511" data-name="Trazado 883511" d="M8,11.964,30.161,9.527l4.391,23.161L12.391,36.516Zm0,0" transform="translate(-7.265 -8.542)" fill="#fff"/>
        <path id="Trazado_883512" data-name="Trazado 883512" d="M5.126,29.984a.735.735,0,0,1-.722-.605L.012,4.826a.735.735,0,0,1,.643-.86L22.815,1.529a.735.735,0,0,1,.8.594l4.391,23.161a.735.735,0,0,1-.6.861L5.251,29.974a.784.784,0,0,1-.126.01ZM1.6,5.342,5.721,28.4l20.7-3.576L22.3,3.065Zm0,0" transform="translate(0 -1.275)" fill="#173851"/>
        <path id="Trazado_883513" data-name="Trazado 883513" d="M46.074,73.772l3.975-.67.692,3.85-3.975.67Zm0,0" transform="translate(-41.841 -66.275)" fill="#45c9a5"/>
        <path id="Trazado_883514" data-name="Trazado 883514" d="M39.5,71.094a.735.735,0,0,1-.722-.6l-.692-3.85a.735.735,0,0,1,.6-.855l3.974-.67a.735.735,0,0,1,.846.595l.692,3.85a.736.736,0,0,1-.6.855l-3.975.67A.753.753,0,0,1,39.5,71.094Zm.164-3.984.432,2.4,2.525-.426-.432-2.4Zm0,0" transform="translate(-34.576 -59.012)" fill="#173851"/>
        <path id="Trazado_883515" data-name="Trazado 883515" d="M62.3,123.96l16.463-2.843.25,1.449-16.463,2.843Zm0,0" transform="translate(-56.58 -109.879)" fill="#173851"/>
        <path id="Trazado_883516" data-name="Trazado 883516" d="M222.8,11.5,200.637,9.527l-4.391,23.161,22.161,3.828Zm0,0" transform="translate(-178.216 -8.542)" fill="#fff"/>
        <path id="Trazado_883517" data-name="Trazado 883517" d="M211.141,29.984a.8.8,0,0,1-.126-.01l-22.161-3.828a.734.734,0,0,1-.6-.861l4.391-23.161a.736.736,0,0,1,.787-.6L215.6,3.5a.735.735,0,0,1,.659.859l-4.391,25.016a.735.735,0,0,1-.723.608Zm-21.3-5.16,20.7,3.576L214.67,4.894l-20.7-1.843Zm0,0" transform="translate(-170.95 -1.275)" fill="#173851"/>
        <path id="Trazado_883518" data-name="Trazado 883518" d="M400.134,72.119l-4.149-.717-.722,4.116,4.149.717Zm0,0" transform="translate(-358.947 -64.732)" fill="#45c9a5"/>
        <path id="Trazado_883519" data-name="Trazado 883519" d="M392.146,69.7a.757.757,0,0,1-.126-.011l-4.149-.717a.735.735,0,0,1-.6-.851l.722-4.116a.734.734,0,0,1,.849-.6l4.149.717a.735.735,0,0,1,.6.851l-.722,4.116A.735.735,0,0,1,392.146,69.7Zm-3.3-2.051,2.7.467.468-2.668-2.7-.467Zm0,0" transform="translate(-351.681 -57.466)" fill="#173851"/>
        <path id="Trazado_883520" data-name="Trazado 883520" d="M249.023,122.578l.251-1.448,16.463,2.843-.25,1.449Zm0,0" transform="translate(-226.144 -109.891)" fill="#173851"/>
        <path id="Trazado_883521" data-name="Trazado 883521" d="M126.75,8.121h22.494V33.514H126.75Zm0,0" transform="translate(-115.105 -7.265)" fill="#fff"/>
        <path id="Trazado_883522" data-name="Trazado 883522" d="M141.979,26.984H119.485a.735.735,0,0,1-.735-.735V.856a.735.735,0,0,1,.735-.735h22.494a.735.735,0,0,1,.735.735V26.249A.735.735,0,0,1,141.979,26.984Zm-21.759-1.47h21.024V1.591H120.22Zm0,0" transform="translate(-107.84)" fill="#173851"/>
        <path id="Trazado_883523" data-name="Trazado 883523" d="M160.867,42.391h8.12v8.055h-8.12Zm0,0" transform="translate(-146.087 -38.386)" fill="#f86252"/>
        <path id="Trazado_883524" data-name="Trazado 883524" d="M161.722,43.916H153.6a.735.735,0,0,1-.735-.735V35.126a.735.735,0,0,1,.735-.735h8.12a.735.735,0,0,1,.735.735v8.055A.735.735,0,0,1,161.722,43.916Zm-7.385-1.47h6.649V35.861h-6.649Zm0,0" transform="translate(-138.822 -31.121)" fill="#173851"/>
        <path id="Trazado_883525" data-name="Trazado 883525" d="M176.867,58.387h5.179V63.5h-5.179Zm0,0" transform="translate(-160.617 -52.913)" fill="#fff"/>
        <g id="Grupo_1100867" data-name="Grupo 1100867" transform="translate(14.439 4.789)">
          <path id="Trazado_883526" data-name="Trazado 883526" d="M287.773,50.934h5.4V52.4h-5.4Zm0,0" transform="translate(-275.773 -50.934)" fill="#173851"/>
          <path id="Trazado_883527" data-name="Trazado 883527" d="M287.773,93.992h5.4v1.47h-5.4Zm0,0" transform="translate(-275.773 -90.036)" fill="#173851"/>
          <path id="Trazado_883528" data-name="Trazado 883528" d="M157.16,167.473h8.935v1.47H157.16Zm0,0" transform="translate(-157.16 -156.766)" fill="#173851"/>
        </g>
        <path id="Trazado_883529" data-name="Trazado 883529" d="M68.392,177.953H53.757a1.877,1.877,0,0,0-1.284.507l-3.91,3.666H28.737a.465.465,0,0,0-.467.49L29.618,201.6a.466.466,0,0,0,.467.437H67.036a.465.465,0,0,0,.467-.441l1.357-23.159a.466.466,0,0,0-.467-.486Zm0,0" transform="translate(-25.672 -161.494)" fill="#fff"/>
        <path id="Trazado_883530" data-name="Trazado 883530" d="M59.775,195.513H22.824a1.2,1.2,0,0,1-1.2-1.129l-1.348-18.977a1.2,1.2,0,0,1,1.2-1.277H41.01l3.7-3.468a2.6,2.6,0,0,1,1.787-.706H61.131a1.2,1.2,0,0,1,1.2,1.259l-1.357,23.166a1.2,1.2,0,0,1-1.2,1.132Zm-.267-1.217v.005Zm-36.418-.013v.006S23.09,194.285,23.09,194.283Zm-.017-.24h36.45l1.325-22.617H46.5a1.137,1.137,0,0,0-.782.308L41.592,175.6H21.763Zm0,0" transform="translate(-18.411 -154.232)" fill="#173851"/>
        <path id="Trazado_883531" data-name="Trazado 883531" d="M46.28,215.1l-1.206-16.974H64.4l4.334-4.064a.408.408,0,0,1,.279-.109H82.59L81.351,215.1Zm0,0" transform="translate(-40.933 -176.024)" fill="#f8bc5c"/>
        <path id="Trazado_883532" data-name="Trazado 883532" d="M182.3,294.664H168.275c-.12,0-.213.146-.2.314l.368,5.541c.01.148.1.261.2.261h13.292c.1,0,.192-.113.2-.261l.368-5.541c.011-.169-.082-.314-.2-.314Zm0,0" transform="translate(-152.63 -267.482)" fill="#fff"/>
        <path id="Trazado_883533" data-name="Trazado 883533" d="M174.675,294.25H161.383a.966.966,0,0,1-.935-.947l-.368-5.541a1.077,1.077,0,0,1,.276-.808.9.9,0,0,1,.659-.291h14.028a.894.894,0,0,1,.659.29,1.077,1.077,0,0,1,.277.807l-.368,5.542a.966.966,0,0,1-.935.947Zm-12.789-1.47h12.286l.309-4.647h-12.9Zm0,0" transform="translate(-145.37 -260.216)" fill="#173851"/>
        <path id="Trazado_883534" data-name="Trazado 883534" d="M198.953,319.949h8.76v1.47h-8.76Zm0,0" transform="translate(-180.674 -290.444)" fill="#173851"/>
      </g>
    </g>
    <g id="Grupo_1099581" data-name="Grupo 1099581" transform="translate(921.333 387.667)">
      <g id="Grupo_1099580" data-name="Grupo 1099580">
        <g id="Grupo_1099579" data-name="Grupo 1099579" clip-path="url(#clip-path)">
          <path id="Trazado_877686" data-name="Trazado 877686" d="M9.184.011a9.145,9.145,0,0,1,4.761,1.223,9.345,9.345,0,0,1,3.641,12.494L9.791,26.389a.969.969,0,0,1-.3.309.376.376,0,0,1-.2.025l-.019,0c-.272-.06-.553-.664-.691-.883L2.229,15.548C.853,13.288.059,11.994.066,9.234A5.165,5.165,0,0,1,.1,8.423l.152-.907A9.392,9.392,0,0,1,7.866.134,7.988,7.988,0,0,1,9.184.011" transform="translate(-0.063 -0.005)" fill="#12263f"/>
        </g>
      </g>
      <circle id="Elipse_11513" data-name="Elipse 11513" cx="4.373" cy="4.373" r="4.373" transform="translate(4.77 4.24)" fill="#fff"/>
    </g>
  </g>
</svg>
