<svg xmlns="http://www.w3.org/2000/svg" xmlns:xlink="http://www.w3.org/1999/xlink" width="190" height="177.505" viewBox="0 0 190 177.505">
  <defs>
    <filter id="Trazado_883051" x="6.924" y="8.579" width="164.345" height="168.926" filterUnits="userSpaceOnUse">
      <feOffset dy="3" input="SourceAlpha"/>
      <feGaussianBlur stdDeviation="3" result="blur"/>
      <feFlood flood-opacity="0.161"/>
      <feComposite operator="in" in2="blur"/>
      <feComposite in="SourceGraphic"/>
    </filter>
    <clipPath id="clip-path">
      <rect id="Rectángulo_401350" data-name="Rectángulo 401350" width="52.891" height="52.891" fill="#fff"/>
    </clipPath>
    <clipPath id="clip-path-2">
      <rect id="Rectángulo_402016" data-name="Rectángulo 402016" width="163.686" height="155.697" fill="none"/>
    </clipPath>
    <clipPath id="clip-path-3">
      <rect id="Rectángulo_402012" data-name="Rectángulo 402012" width="17.695" height="94.234" fill="none"/>
    </clipPath>
    <clipPath id="clip-path-4">
      <path id="Trazado_874551" data-name="Trazado 874551" d="M13.487,9.8H56.837V53.151H13.487Zm-3.2,46.549H60.036V6.6H10.288Z" transform="translate(-10.288 -6.602)" fill="#a4a1c5"/>
    </clipPath>
  </defs>
  <g id="Grupo_1100758" data-name="Grupo 1100758" transform="translate(-1230 -2972)">
    <g transform="matrix(1, 0, 0, 1, 1230, 2972)" filter="url(#Trazado_883051)">
      <path id="Trazado_883051-2" data-name="Trazado 883051" d="M73.428,0h1.654c33.7,0,71.263,22.057,71.263,49.266v101.66H0V49.266C0,22.057,39.728,0,73.428,0Z" transform="translate(15.92 14.58)" fill="#496f93"/>
    </g>
    <circle id="Elipse_11529" data-name="Elipse 11529" cx="31.351" cy="31.351" r="31.351" transform="translate(1230 2972)" fill="#7ab8f5"/>
    <g id="Grupo_1099793" data-name="Grupo 1099793" transform="translate(1239.81 2981.811)" opacity="0.31">
      <path id="Trazado_882649" data-name="Trazado 882649" d="M107.1,58.841,56.835,109.11v2.377l.245.245H57.3L109.726,59.3v-.463Z" transform="translate(-56.835 -58.841)" fill="#fff"/>
      <path id="Trazado_882650" data-name="Trazado 882650" d="M64.3,115.077h3.085L113.07,69.395V66.31Z" transform="translate(-60.179 -62.185)" fill="#fff"/>
      <path id="Trazado_882651" data-name="Trazado 882651" d="M76.52,120.546H79.6L118.541,81.61V78.525Z" transform="translate(-65.649 -67.655)" fill="#fff"/>
      <path id="Trazado_882652" data-name="Trazado 882652" d="M88.736,126.017h3.085l32.19-32.19V90.743Z" transform="translate(-71.12 -73.126)" fill="#fff"/>
      <path id="Trazado_882653" data-name="Trazado 882653" d="M100.954,131.488h3.085l25.443-25.443V102.96Z" transform="translate(-76.591 -78.597)" fill="#fff"/>
      <path id="Trazado_882654" data-name="Trazado 882654" d="M113.171,136.959h3.085l18.7-18.7v-3.085Z" transform="translate(-82.062 -84.068)" fill="#fff"/>
      <path id="Trazado_882655" data-name="Trazado 882655" d="M125.388,142.429h3.085l11.95-11.95v-3.086Z" transform="translate(-87.532 -89.538)" fill="#fff"/>
      <path id="Trazado_882656" data-name="Trazado 882656" d="M137.6,147.9h3.085l5.2-5.2v-3.085Z" transform="translate(-93.002 -95.009)" fill="#fff"/>
      <path id="Trazado_882657" data-name="Trazado 882657" d="M149.822,153.371h1.543v-1.543Z" transform="translate(-98.473 -100.479)" fill="#fff"/>
      <path id="Trazado_882658" data-name="Trazado 882658" d="M100.683,58.841,56.835,102.689v3.085l46.933-46.933Z" transform="translate(-56.835 -58.841)" fill="#fff"/>
      <path id="Trazado_882659" data-name="Trazado 882659" d="M93.936,58.841l-37.1,37.1v3.085L97.022,58.841Z" transform="translate(-56.835 -58.841)" fill="#fff"/>
      <path id="Trazado_882660" data-name="Trazado 882660" d="M87.19,58.841,56.835,89.2v3.085l33.44-33.44Z" transform="translate(-56.835 -58.841)" fill="#fff"/>
      <path id="Trazado_882661" data-name="Trazado 882661" d="M80.444,58.841,56.835,82.45v3.085L83.529,58.841Z" transform="translate(-56.835 -58.841)" fill="#fff"/>
      <path id="Trazado_882662" data-name="Trazado 882662" d="M73.7,58.841,56.835,75.7v3.085L76.783,58.841Z" transform="translate(-56.835 -58.841)" fill="#fff"/>
      <path id="Trazado_882663" data-name="Trazado 882663" d="M66.951,58.841,56.835,68.957v3.085l13.2-13.2Z" transform="translate(-56.835 -58.841)" fill="#fff"/>
      <path id="Trazado_882664" data-name="Trazado 882664" d="M60.2,58.841l-3.37,3.37V65.3l6.455-6.455Z" transform="translate(-56.835 -58.841)" fill="#fff"/>
      <g id="Grupo_1099792" data-name="Grupo 1099792" transform="translate(0)">
        <g id="Grupo_1099419" data-name="Grupo 1099419" clip-path="url(#clip-path)">
          <rect id="Rectángulo_401348" data-name="Rectángulo 401348" width="76.021" height="2.182" transform="translate(-28.007 24.64) rotate(-45.01)" fill="#fff"/>
          <rect id="Rectángulo_401349" data-name="Rectángulo 401349" width="76.02" height="2.182" transform="translate(-31.385 21.262) rotate(-45)" fill="#fff"/>
        </g>
      </g>
    </g>
    <g id="Grupo_1100750" data-name="Grupo 1100750" transform="translate(1230 2993.234)">
      <g id="Grupo_1100749" data-name="Grupo 1100749" clip-path="url(#clip-path-2)">
        <g id="Grupo_1100748" data-name="Grupo 1100748">
          <g id="Grupo_1100751" data-name="Grupo 1100751">
            <path id="Trazado_883387" data-name="Trazado 883387" d="M127.168,189.287l15.169,3.823-.675,4.234Z" transform="translate(-119.277 -177.543)" fill="#f9eed2"/>
            <path id="Trazado_883388" data-name="Trazado 883388" d="M141.022,199.09l-13.855-9.8L140.1,202.835Z" transform="translate(-119.277 -177.543)" fill="#f9eed2"/>
            <path id="Trazado_883389" data-name="Trazado 883389" d="M138.984,197.648l1.076-1.437-14.6-8.132Z" transform="translate(-117.675 -176.409)" fill="#cec4af"/>
            <path id="Trazado_883390" data-name="Trazado 883390" d="M2457.78,2078.665l-9.078,9.244-2.745-2.253Z" transform="translate(-2294.191 -1949.689)" fill="#f9eed2"/>
            <path id="Trazado_883391" data-name="Trazado 883391" d="M2395.522,2084.467l12.8-5.8-15.094,3.577Z" transform="translate(-2244.737 -1949.689)" fill="#f9eed2"/>
            <path id="Trazado_883392" data-name="Trazado 883392" d="M2436.653,2083.614l.577,1.37,11.921-7.035Z" transform="translate(-2285.465 -1949.018)" fill="#cec4af"/>
            <path id="Trazado_883393" data-name="Trazado 883393" d="M419.784,48.579c-.428,0-.851-.016-1.257-.047l.048-.619a16.408,16.408,0,0,0,1.825.034l.022.62c-.214.008-.428.011-.638.011m2.522-.169-.08-.615c.6-.078,1.2-.184,1.807-.316l.132.606c-.621.136-1.246.245-1.859.325m-5.663-.155a9.034,9.034,0,0,1-1.742-.572l-.024-.012-.077-.044.307-.539.064.036a8.428,8.428,0,0,0,1.61.526Zm9.348-.646-.18-.594c.581-.176,1.165-.378,1.736-.6l.225.578c-.586.228-1.185.435-1.781.616M413.2,46.619a18.558,18.558,0,0,1-1.5-1.159l.405-.47a17.917,17.917,0,0,0,1.445,1.12Zm16.3-.375-.268-.56c.55-.263,1.1-.551,1.627-.855l.309.538c-.543.312-1.1.607-1.668.877m3.265-1.876-.349-.513c.5-.343,1-.709,1.48-1.089l.386.485c-.489.389-1,.765-1.518,1.117m-22.423-.227a14.223,14.223,0,0,1-1.191-1.482l.441-.307-.01-.051c.6-.114,1.2-.258,1.779-.428l.175.6c-.483.142-.981.267-1.483.372.232.3.482.595.746.882Zm-4.4-.883v-.62c.612,0,1.228-.029,1.831-.084l.057.618c-.621.057-1.256.086-1.887.086m-1.887-.083c-.627-.056-1.257-.14-1.872-.25l.11-.611c.6.107,1.209.189,1.818.243Zm-3.715-.669c-.615-.17-1.219-.37-1.8-.593l.224-.579c.558.216,1.142.409,1.738.574Zm35.375-.493-.43-.447c.458-.441.882-.887,1.26-1.327l.47.4c-.391.455-.829.916-1.3,1.37m-22.388-.175-.238-.573a16.188,16.188,0,0,0,1.644-.793l.3.543a16.842,16.842,0,0,1-1.707.824m-16.51-.7c-.291-.152-.577-.313-.85-.478l.322-.531c.262.159.536.313.815.459Zm11.372-.12a9.981,9.981,0,0,1-.668-1.8l.6-.157a9.361,9.361,0,0,0,.626,1.686ZM416.632,40l-.363-.5.176-.129a7.383,7.383,0,0,0,1.023-1.149l.507.358a8.017,8.017,0,0,1-1.121,1.258l-.025.02-.2.145m21.53-.861-.516-.345a12.8,12.8,0,0,0,.9-1.574l.559.268a13.435,13.435,0,0,1-.945,1.651M407.245,37.3q0-.07,0-.139a6.845,6.845,0,0,1,.233-1.79l.6.162a6.221,6.221,0,0,0-.212,1.627q0,.064,0,.127Zm11.574-.5-.6-.158a4.191,4.191,0,0,0,.138-1.066,4.509,4.509,0,0,0-.049-.656l.614-.091a5.138,5.138,0,0,1,.056.746,4.813,4.813,0,0,1-.158,1.224m66.071-.575L484.313,36a4.693,4.693,0,0,0,.341-1.7l.62,0a5.311,5.311,0,0,1-.384,1.927M439.8,35.712l-.593-.184a14.231,14.231,0,0,0,.423-1.769l.611.107a14.831,14.831,0,0,1-.442,1.846m-31.01-1.781-.331-.213-.216-.039a5.6,5.6,0,0,1,.645-1.811l.537.311a4.973,4.973,0,0,0-.572,1.611l-.011.062Zm9.074-.756a3.946,3.946,0,0,0-.872-1.473l.451-.426a4.563,4.563,0,0,1,1.01,1.7Zm66.483-.582a6.965,6.965,0,0,0-.827-1.567l.51-.353a7.577,7.577,0,0,1,.9,1.708Zm-43.87-.6-.618-.051c.046-.56.076-1.162.093-1.84l.62.015c-.017.69-.048,1.3-.095,1.876m-29.9-1.081-.358-.506a5.075,5.075,0,0,1,1.8-.8l.14.6a4.459,4.459,0,0,0-1.583.7m5-.209a7.505,7.505,0,0,0-1.7-.543l.123-.608a8.123,8.123,0,0,1,1.839.59Zm66.788-1.062a15.666,15.666,0,0,0-1.355-1.222l.389-.483a16.286,16.286,0,0,1,1.409,1.27Zm-42.4-1.391c0-.594-.011-1.218-.02-1.859l.62-.009c.009.642.017,1.267.02,1.864Zm39.563-.917c-.487-.328-1.013-.657-1.562-.976l.312-.536c.561.326,1.1.662,1.6,1Zm-3.184-1.859c-.532-.272-1.093-.543-1.665-.8l.257-.565c.581.265,1.15.539,1.691.816ZM440.661,24.6l-.607-.128a4.933,4.933,0,0,1,.779-1.808l.51.354a4.318,4.318,0,0,0-.681,1.582m32.32-.662c-.56-.229-1.141-.454-1.727-.67l.214-.582c.592.218,1.18.446,1.748.678ZM469.5,22.656c-.58-.192-1.175-.379-1.769-.556l.177-.595c.6.179,1.2.368,1.787.562Zm-26.928-.875-.365-.5a8.723,8.723,0,0,1,1.68-.941l.246.57a8.1,8.1,0,0,0-1.561.872m23.376-.182c-.594-.158-1.2-.309-1.8-.45l.142-.6c.605.142,1.217.3,1.817.455Zm-3.613-.848c-.606-.124-1.219-.24-1.822-.344l.106-.611c.609.105,1.228.222,1.84.347Zm-16.486-.428-.16-.6a18.653,18.653,0,0,1,1.852-.389l.1.613a18.038,18.038,0,0,0-1.79.376m12.833-.2c-.617-.087-1.236-.164-1.839-.228l.066-.617c.61.065,1.236.143,1.86.23Zm-9.218-.39-.051-.618c.6-.05,1.231-.082,1.878-.1l.014.62c-.634.014-1.253.046-1.841.095m5.535,0c-.627-.043-1.249-.073-1.848-.089l.017-.62c.608.016,1.239.047,1.874.09Z" transform="translate(-371.394 -17.833)" fill="#a39a93"/>
            <path id="Trazado_883394" data-name="Trazado 883394" d="M667.348,1898.766a18.377,18.377,0,0,1-1.888-.133l.075-.616a17.756,17.756,0,0,0,1.824.129Zm1.892-.08-.065-.617a13.151,13.151,0,0,0,1.786-.312l.149.6a13.805,13.805,0,0,1-1.87.327m-5.642-.363c-.593-.124-1.208-.277-1.827-.454l.17-.6c.606.173,1.206.322,1.785.443Zm9.319-.556-.236-.574a12.9,12.9,0,0,0,1.624-.807l.314.535a13.5,13.5,0,0,1-1.7.845m-12.937-.468c-.571-.2-1.161-.424-1.755-.665l.234-.575c.584.238,1.164.458,1.726.654Zm-3.475-1.408-.433-.2a12.752,12.752,0,0,1-1.284-.527l.265-.561a12.094,12.094,0,0,0,1.236.507l.031.012.442.2Zm19.687-.031-.377-.493c.464-.355.92-.743,1.4-1.185l.423.454c-.49.456-.961.856-1.441,1.224m-23.07-1.593c-.5-.3-1.037-.646-1.583-1.023l.353-.51c.534.369,1.055.706,1.548,1Zm52.928-.07c-.614-.024-1.248-.079-1.883-.164l.082-.615c.616.083,1.23.136,1.825.159Zm1.895-.029-.045-.619a12.651,12.651,0,0,0,1.8-.255l.134.606a13.288,13.288,0,0,1-1.886.268m-5.636-.465c-.606-.134-1.22-.3-1.824-.48l.182-.593c.588.18,1.185.337,1.776.468Zm-23.344-.4-.452-.426c.449-.477.882-.961,1.246-1.372l.464.412c-.367.414-.8.9-1.258,1.386m32.717-.018-.305-.54c.539-.3,1.062-.632,1.553-.972l.353.51c-.507.351-1.045.689-1.6,1m-12.976-.687c-.582-.228-1.163-.481-1.727-.754l.269-.559c.55.265,1.117.512,1.684.735Zm-48.685-.463c-.474-.362-.969-.754-1.47-1.165l.394-.479c.5.406.984.794,1.453,1.151Zm64.762-1.007-.4-.471a15.828,15.828,0,0,0,1.316-1.263l.455.422a16.47,16.47,0,0,1-1.368,1.313m-19.469-.165c-.542-.313-1.079-.651-1.595-1l.35-.512c.5.344,1.027.673,1.555.979Zm-13.855-.437-.461-.416c.5-.557.915-.99,1.3-1.363l.433.444c-.372.363-.776.787-1.27,1.334m-34.338-.765c-.455-.4-.926-.814-1.4-1.245l.418-.459c.469.427.936.842,1.388,1.235Zm73.489-.875h-.074l0-.621h.073c.584,0,1.176-.025,1.76-.075l.053.618c-.6.052-1.211.078-1.813.078m-28.406-.046c-.34-.272-.677-.557-1-.846-.145-.081-.289-.159-.43-.231l.283-.552c.157.081.319.168.48.259l.029.016.025.022c.324.289.661.574,1,.846Zm26.444-.046c-.63-.06-1.26-.15-1.871-.267l.1-.519-.035-.024a11.482,11.482,0,0,0,.925-1.556l.557.272a11.927,11.927,0,0,1-.765,1.333c.38.059.764.107,1.148.143Zm5.647-.23-.108-.611c.6-.106,1.206-.241,1.788-.4l.164.6c-.6.164-1.221.3-1.844.413m-9.357-.486a17.825,17.825,0,0,1-1.783-.637l.24-.572a17.122,17.122,0,0,0,1.721.615Zm-30.833-.065-.364-.5a7.246,7.246,0,0,1,1.694-.933l.219.581a6.627,6.627,0,0,0-1.549.855m43.832-.449-.222-.579a16.508,16.508,0,0,0,1.667-.745l.285.551a17.166,17.166,0,0,1-1.73.773m-83.587-.32c-.439-.415-.892-.851-1.348-1.3l.434-.444c.453.443.9.877,1.34,1.289Zm44.755-.158a6.009,6.009,0,0,0-1.745-.253l-.008-.621a6.655,6.655,0,0,1,1.926.278Zm22.345-.475a16.03,16.03,0,0,1-1.6-1.023l.365-.5a15.4,15.4,0,0,0,1.536.983Zm7.552-1.7-.6-.161a7.614,7.614,0,0,0,.266-1.764l.62.017a8.23,8.23,0,0,1-.287,1.908m-77.327-.274c-.429-.431-.869-.88-1.309-1.333l.445-.432c.438.451.877.9,1.3,1.327Zm66.848-.483a5.44,5.44,0,0,1-.824-1.781l.6-.149a4.829,4.829,0,0,0,.732,1.578Zm-69.452-2.2c-.418-.441-.85-.9-1.282-1.362l.454-.423c.431.462.86.919,1.277,1.358Zm79.4-.728a5.72,5.72,0,0,0-.7-1.614l.525-.331a6.339,6.339,0,0,1,.774,1.789Zm-10.238-.729-.613-.1a6,6,0,0,1,.267-1.039,5.368,5.368,0,0,1,.212-.813l.586.2a4.76,4.76,0,0,0-.191.742l0,.026-.009.025a5.378,5.378,0,0,0-.248.953m-71.712-1.275c-.412-.449-.834-.915-1.256-1.382l.461-.416c.421.466.842.93,1.253,1.378Zm80.613-1.362a3.989,3.989,0,0,0-1.135-1.284l.366-.5a4.608,4.608,0,0,1,1.311,1.482Zm-7.555-.568-.445-.432a5.322,5.322,0,0,1,1.617-1.115l.258.564a4.707,4.707,0,0,0-1.43.983m-75.559-.843c-.4-.454-.819-.924-1.236-1.4l.466-.409c.416.474.831.944,1.234,1.4Zm80.406-.591a4.693,4.693,0,0,0-1.1-.135,3.172,3.172,0,0,0-.593.051l-.025,0-.121-.609.028-.005a3.747,3.747,0,0,1,.71-.062,5.33,5.33,0,0,1,1.242.153Zm-82.87-2.214c-.4-.462-.812-.937-1.221-1.413l.47-.4c.408.475.818.949,1.219,1.41Zm-2.435-2.831q-.624-.732-1.209-1.423l.474-.4q.583.689,1.207,1.421Zm-2.413-2.85-.909-1.08-.294-.349.475-.4.294.349.909,1.079Zm-2.407-2.856c-.381-.449-.69-.811-.949-1.11l-.483.3a16.659,16.659,0,0,1-.952-1.65l.568-.249a13.077,13.077,0,0,0,.691,1.215l.378-.331c.311.355.7.807,1.22,1.423Z" transform="translate(-583.332 -1746.842)" fill="#a39a93"/>
            <path id="Trazado_883395" data-name="Trazado 883395" d="M891.867,510.4l-32.7,5.218a13,13,0,0,1-14.882-10.786l-13.413-84.05A13,13,0,0,1,841.66,405.9l32.7-5.218a13,13,0,0,1,14.882,10.786l13.413,84.05A13,13,0,0,1,891.867,510.4" transform="translate(-779.166 -375.663)" fill="#383636"/>
            <rect id="Rectángulo_402011" data-name="Rectángulo 402011" width="52.002" height="87.739" transform="matrix(0.988, -0.158, 0.158, 0.988, 55.343, 43.259)" fill="#f2f0f0"/>
            <path id="Trazado_883396" data-name="Trazado 883396" d="M1120.156,1000.762a18.183,18.183,0,1,1,1.584-.068q-.795.068-1.584.068m.06-35.044q-.735,0-1.476.063a16.9,16.9,0,0,0,1.434,33.739q.725,0,1.459-.063a16.9,16.9,0,0,0-1.418-33.739" transform="translate(-1033.666 -904.634)" fill="#e8f57a"/>
            <path id="Trazado_883397" data-name="Trazado 883397" d="M1199.443,1137.826l-7.645-4.895a2.336,2.336,0,0,1-.653-3.407l1.615-2.2a1.712,1.712,0,0,1,2.094-.513l4.505,2.615a3.054,3.054,0,0,0,3.719-.894l5.808-7.228a2.716,2.716,0,0,1,3.73-.547l2.3,1.782c1.189.851.781,2.349-.214,3.415l-9.281,10.887c-1.3,1.388-4.354,1.975-5.98.983" transform="translate(-1116.793 -1050.741)" fill="#e8f57a"/>
            <g id="Grupo_1100746" data-name="Grupo 1100746" transform="translate(91.143 25.259)" opacity="0.31">
              <g id="Grupo_1100745" data-name="Grupo 1100745">
                <g id="Grupo_1100744" data-name="Grupo 1100744" clip-path="url(#clip-path-3)">
                  <path id="Trazado_883398" data-name="Trazado 883398" d="M1468.93,407.527c3.018,6.64,4.4,15.7,5.163,25.694.515,12.482.018,17.414-.784,44.383-.652,8.85-.935,11.667.61,17.326a11.758,11.758,0,0,0,3.232,4.91,5.741,5.741,0,0,0,3.711,1.484l5.762-31.958L1478.5,417.86l-6.668-10.77" transform="translate(-1468.93 -407.09)" fill="#919191"/>
                </g>
              </g>
            </g>
            <path id="Trazado_883399" data-name="Trazado 883399" d="M193.036,1846.507h-1.257a5.073,5.073,0,0,0-.821.067c-1.916.315-2.5.016-3.424,2.371l-1.792,4.567,12.407,4.471,18.89,9.389,1.3-1.241a5.021,5.021,0,0,0,.172-7.088l-.476-.5-21.188-11.1a8.21,8.21,0,0,0-3.808-.937" transform="translate(-174.216 -1731.936)" fill="#4c6e9e"/>
            <path id="Trazado_883400" data-name="Trazado 883400" d="M553.125,1025.444l-2.85-1.028a4.7,4.7,0,0,0-5.24,1.46l-8.4,10.364Z" transform="translate(-503.34 -960.592)" fill="#f7c6a4"/>
            <path id="Trazado_883401" data-name="Trazado 883401" d="M767.8,1227.517l1.718,7.653a25.094,25.094,0,0,1,.577,4.221l.546,5.123a6.352,6.352,0,0,1-1.146,4.364l-2.681,3.756-7.242-6.993Z" transform="translate(-712.446 -1151.353)" fill="#bb9c87"/>
            <path id="Trazado_883402" data-name="Trazado 883402" d="M185.374,860.613l7.544-15.009a6.1,6.1,0,0,1,4.379-3.878l16.911-3.864c3.026-.691,7.88-4.583,9.213-7.386,5.681-7.561,8.472-14.212,11.214-24.294.537-1.129-1.273-2.77-2.52-2.682l-2.351.167c-1.8.127-4.53,3.647-5.517,5.154l-5.965,8.222a10.146,10.146,0,0,1-5.045,3.984l-2.872,1.036a5.838,5.838,0,0,1-6.331-1.6L202,818.2a5.4,5.4,0,0,1-1.078-5.38l3.64-10.471a9.883,9.883,0,0,1,1.925-3.295l19.851-22.5a6.2,6.2,0,0,0,1.54-4.486l-.063-1.018a2.444,2.444,0,0,0-3.9-1.807L200.03,786.069,188.9,793.18a12.685,12.685,0,0,0-6.346,7.893l-8.192,30.008-6.013,7.064-7,7.864" transform="translate(-151.34 -721.058)" fill="#f9c4a0"/>
            <path id="Trazado_883403" data-name="Trazado 883403" d="M619.977,1037.128l-11.453,8.162,10.586-8.475Z" transform="translate(-570.766 -972.484)" fill="#bb9c87"/>
            <path id="Trazado_883404" data-name="Trazado 883404" d="M613.449,1905.141l3.225-5.995a8.7,8.7,0,0,1,7.264-4.578c5.087-.225,4.651.468,11.285-.951-3.895.991-2.512.7-13.045,3.206-2.784,1.191-4.455,7.048-7.067,11.407Z" transform="translate(-575.386 -1776.122)" fill="#bb9c87"/>
            <path id="Trazado_883405" data-name="Trazado 883405" d="M13.808,1870.092c2.093,2.523,5.684,1.744,7.441,4.2,2.962,4.141,9.445,7.992,14.922,7.88,4.016-.082,5.071,3.613,9.295,3.88C41,1895.7,33.7,1912.421,33.209,1909.39c-12.676-.111-23.7-5.168-33.2-14.755-.313-.464,5.654-11.62,13.8-24.543" transform="translate(0 -1754.058)" fill="#e8f57a"/>
            <path id="Trazado_883406" data-name="Trazado 883406" d="M243.395,1921.253l-5.412,10.08,6.483-9.054a4.042,4.042,0,0,0-1.071-1.026" transform="translate(-223.217 -1802.044)" fill="#bac462"/>
            <path id="Trazado_883407" data-name="Trazado 883407" d="M549.092,2120.856l-10.117,24.1c1.443.358,11.579-22.214,12.024-23.7a6.629,6.629,0,0,1-1.907-.4" transform="translate(-505.533 -1989.262)" fill="#bac462"/>
            <path id="Trazado_883408" data-name="Trazado 883408" d="M1331.3,307.669l10.976-1.707-1.752-6.752-7.164,2.929c-2.292,1.673-1.875,2.039-2.06,4.788Z" transform="translate(-1248.698 -280.645)" fill="#bab9b3"/>
            <path id="Trazado_883409" data-name="Trazado 883409" d="M1364.5,218.366a8.17,8.17,0,0,1,9.4,5.062,39.745,39.745,0,0,1,2.026,5.594c7.882,27.658-3.906,78.444,7.144,87.046a5.9,5.9,0,0,0,3.339,1.239c17.634,1.108,49.249-10.538,49.249-10.538-14.554-16.014-5.392-65.336-14.03-82.873-1.92-3.9-5.715-10.015-9.515-12.345a18.475,18.475,0,0,0-3.843-1.369c-14.866-1.173-28.381,1.205-43.773,8.185" transform="translate(-1279.839 -196.872)" fill="#efede8"/>
            <path id="Trazado_883410" data-name="Trazado 883410" d="M1665.313,1628.684s48.946-9.093,51.435-8.208,5.712,7.879,1.653,10.359c-16.728,6.7-50.515,12.457-54.573,8.235,5.641.948,6.21-7.546,1.484-10.385" transform="translate(-1560.592 -1519.872)" fill="#bab9b3"/>
            <path id="Trazado_883411" data-name="Trazado 883411" d="M1704.886,354.7l-27.328,4.361a.664.664,0,1,0,.209,1.31l27.328-4.361a.664.664,0,1,0-.209-1.311" transform="translate(-1572.946 -332.68)" fill="#999"/>
            <path id="Trazado_883412" data-name="Trazado 883412" d="M1745.747,439.272l-27.328,4.361a.664.664,0,0,0,.209,1.31l27.328-4.361a.664.664,0,0,0-.209-1.311" transform="translate(-1611.272 -412.009)" fill="#999"/>
            <path id="Trazado_883413" data-name="Trazado 883413" d="M1727.928,1012.527l-22.421,3.578a.664.664,0,1,0,.209,1.311l22.421-3.578a.664.664,0,0,0-.209-1.311" transform="translate(-1599.161 -949.695)" fill="#999"/>
            <path id="Trazado_883414" data-name="Trazado 883414" d="M1998.923,688.011l-14.048,2.242a.664.664,0,1,0,.209,1.31l14.048-2.242a.664.664,0,1,0-.209-1.311" transform="translate(-1861.195 -645.314)" fill="#999"/>
            <path id="Trazado_883415" data-name="Trazado 883415" d="M2010.422,760.059l-14.048,2.242a.664.664,0,0,0,.209,1.31l14.048-2.242a.664.664,0,1,0-.209-1.31" transform="translate(-1871.98 -712.892)" fill="#999"/>
            <path id="Trazado_883416" data-name="Trazado 883416" d="M2119.267,981.991l-9.19,1.467a.664.664,0,0,0,.209,1.31l9.19-1.467a.664.664,0,0,0-.209-1.31" transform="translate(-1978.628 -921.053)" fill="#999"/>
            <path id="Trazado_883417" data-name="Trazado 883417" d="M1714.424,1123.673,1692,1127.251a.664.664,0,1,0,.209,1.311l22.421-3.578a.664.664,0,1,0-.209-1.311" transform="translate(-1586.494 -1053.944)" fill="#999"/>
            <path id="Trazado_883418" data-name="Trazado 883418" d="M2105.763,1093.138l-9.19,1.467a.664.664,0,1,0,.209,1.311l9.19-1.467a.664.664,0,1,0-.209-1.311" transform="translate(-1965.961 -1025.304)" fill="#999"/>
            <path id="Trazado_883419" data-name="Trazado 883419" d="M160.9,948.98c.837,3.254,7.537,4.343,14.966,2.432s12.772-6.1,11.935-9.351-7.537-4.343-14.966-2.432-12.772,6.1-11.935,9.351" transform="translate(-150.833 -880.445)" fill="#e2b864"/>
            <rect id="Rectángulo_402013" data-name="Rectángulo 402013" width="27.787" height="3.596" transform="translate(9.16 64.998) rotate(-14.308)" fill="#e2b864"/>
            <path id="Trazado_883420" data-name="Trazado 883420" d="M146.238,891.983c.837,3.254,7.537,4.343,14.966,2.432s12.772-6.1,11.935-9.351-7.537-4.342-14.966-2.432-12.772,6.1-11.935,9.351" transform="translate(-137.084 -826.984)" fill="#ffd176"/>
            <path id="Trazado_883421" data-name="Trazado 883421" d="M295.972,568.512c-.443.885,4.006,4.009,9.938,6.979s11.1,4.659,11.542,3.774-4.006-4.009-9.938-6.979-11.1-4.659-11.542-3.774" transform="translate(-277.579 -533.017)" fill="#e2b864"/>
            <rect id="Rectángulo_402014" data-name="Rectángulo 402014" width="2.525" height="24.021" transform="matrix(0.448, -0.894, 0.894, 0.448, 18.393, 35.495)" fill="#e2b864"/>
            <path id="Trazado_883422" data-name="Trazado 883422" d="M314.187,532.126c-.443.885,4.006,4.009,9.938,6.979s11.1,4.659,11.542,3.774-4.006-4.009-9.938-6.979-11.1-4.659-11.542-3.774" transform="translate(-294.664 -498.888)" fill="#fccf68"/>
          </g>
        </g>
      </g>
    </g>
    <g id="Grupo_1099796" data-name="Grupo 1099796" transform="translate(1367.372 3078.167)">
      <g id="Grupo_1099437" data-name="Grupo 1099437" transform="translate(2.88 1.848)">
        <g id="Grupo_1099436" data-name="Grupo 1099436" clip-path="url(#clip-path-4)">
          <rect id="Rectángulo_401360" data-name="Rectángulo 401360" width="49.748" height="49.748" transform="translate(0 0)" fill="#a4a1c5"/>
        </g>
      </g>
      <rect id="Rectángulo_401361" data-name="Rectángulo 401361" width="5.761" height="5.761" fill="#e8f57a"/>
    </g>
  </g>
</svg>
