<svg xmlns="http://www.w3.org/2000/svg" xmlns:xlink="http://www.w3.org/1999/xlink" width="102" height="106.333" viewBox="0 0 102 106.333">
  <defs>
    <filter id="Elipse_11501" x="0" y="3.333" width="102" height="103" filterUnits="userSpaceOnUse">
      <feOffset dy="3" input="SourceAlpha"/>
      <feGaussianBlur stdDeviation="3" result="blur"/>
      <feFlood flood-opacity="0.161"/>
      <feComposite operator="in" in2="blur"/>
      <feComposite in="SourceGraphic"/>
    </filter>
    <filter id="Elipse_11501-2" x="0" y="3.333" width="102" height="103" filterUnits="userSpaceOnUse">
      <feOffset dy="6" input="SourceAlpha"/>
      <feGaussianBlur stdDeviation="3" result="blur-2"/>
      <feFlood flood-opacity="0.161" result="color"/>
      <feComposite operator="out" in="SourceGraphic" in2="blur-2"/>
      <feComposite operator="in" in="color"/>
      <feComposite operator="in" in2="SourceGraphic"/>
    </filter>
    <clipPath id="clip-path">
      <rect id="Rectángulo_401455" data-name="Rectángulo 401455" width="23.417" height="33.616" fill="#12263f"/>
    </clipPath>
  </defs>
  <g id="Grupo_1099582" data-name="Grupo 1099582" transform="translate(-912.333 -387.667)">
    <g id="Grupo_1099492" data-name="Grupo 1099492" transform="translate(921.333 397.479)">
      <g data-type="innerShadowGroup">
        <g transform="matrix(1, 0, 0, 1, -9, -9.81)" filter="url(#Elipse_11501)">
          <ellipse id="Elipse_11501-3" data-name="Elipse 11501" cx="42" cy="42.5" rx="42" ry="42.5" transform="translate(9 9.33)" fill="#e8f57a"/>
        </g>
        <g transform="matrix(1, 0, 0, 1, -9, -9.81)" filter="url(#Elipse_11501-2)">
          <ellipse id="Elipse_11501-4" data-name="Elipse 11501" cx="42" cy="42.5" rx="42" ry="42.5" transform="translate(9 9.33)" fill="#fff"/>
        </g>
      </g>
      <g id="entrega-logistica" transform="translate(16.548 18.039)">
        <g id="Grupo_1099490" data-name="Grupo 1099490" transform="translate(0.748 0.748)">
          <g id="Grupo_1099489" data-name="Grupo 1099489" transform="translate(0 0)">
            <g id="Grupo_1099486" data-name="Grupo 1099486">
              <g id="Grupo_1099484" data-name="Grupo 1099484" transform="translate(8.839)">
                <g id="Grupo_1099483" data-name="Grupo 1099483">
                  <g id="Grupo_1099477" data-name="Grupo 1099477">
                    <path id="Trazado_875197" data-name="Trazado 875197" d="M135.724,63.2H97.181a1.108,1.108,0,0,1-1.108-1.108V23.546a1.108,1.108,0,0,1,1.108-1.108h38.542a1.108,1.108,0,0,1,1.108,1.108V62.089A1.108,1.108,0,0,1,135.724,63.2Z" transform="translate(-96.073 -22.438)" fill="#f5827a"/>
                    <path id="Trazado_875199" data-name="Trazado 875199" d="M260.085,33.688h-7.531a1.108,1.108,0,0,1-1.108-1.108V22.438h9.748V32.58A1.108,1.108,0,0,1,260.085,33.688Z" transform="translate(-235.94 -22.438)" fill="#cae2fb"/>
                  </g>
                  <g id="Grupo_1099482" data-name="Grupo 1099482" transform="translate(27.193 19.698)">
                    <g id="Grupo_1099481" data-name="Grupo 1099481">
                      <g id="Grupo_1099480" data-name="Grupo 1099480">
                        <g id="Grupo_1099478" data-name="Grupo 1099478" transform="translate(0 0.921)">
                          <circle id="Elipse_11506" data-name="Elipse 11506" cx="4.646" cy="4.646" r="4.646" fill="#f2eff2"/>
                          <path id="Trazado_875201" data-name="Trazado 875201" d="M394.672,233.733a4.646,4.646,0,0,1-7.428,3.721q.094,0,.187,0a4.646,4.646,0,0,0,2.781-8.367A4.645,4.645,0,0,1,394.672,233.733Z" transform="translate(-385.379 -229.087)" fill="#e1dde1"/>
                        </g>
                        <g id="Grupo_1099479" data-name="Grupo 1099479" transform="translate(1.014)">
                          <path id="Trazado_875202" data-name="Trazado 875202" d="M378.806,221.011l2.808,5.616a.823.823,0,0,0,1.472,0l2.808-5.616a.823.823,0,0,0-.736-1.191h-5.617a.823.823,0,0,0-.736,1.191Z" transform="translate(-378.718 -219.82)" fill="#64b9fc"/>
                          <path id="Trazado_875203" data-name="Trazado 875203" d="M404.744,221.015l-2.809,5.615a.823.823,0,0,1-1.472,0l-.807-1.613,2-4a.823.823,0,0,0-.736-1.191h3.087A.823.823,0,0,1,404.744,221.015Z" transform="translate(-397.567 -219.824)" fill="#31a7fb"/>
                        </g>
                      </g>
                    </g>
                  </g>
                </g>
              </g>
              <g id="Grupo_1099485" data-name="Grupo 1099485" transform="translate(0 12.685)">
                <path id="Trazado_875204" data-name="Trazado 875204" d="M75.816,153.31H64.524V151.6a2.05,2.05,0,0,1,2.05-2.05h7.192a2.05,2.05,0,0,1,2.05,2.05Z" transform="translate(-58.833 -149.546)" fill="#7ab8f5"/>
                <path id="Trazado_875206" data-name="Trazado 875206" d="M29.148,211.794H8.525A1.025,1.025,0,0,1,7.5,210.769V182.026A1.025,1.025,0,0,1,8.525,181H29.148a1.025,1.025,0,0,1,1.025,1.025v28.743A1.025,1.025,0,0,1,29.148,211.794Z" transform="translate(-7.5 -177.862)" fill="#9a9b87"/>
                <path id="Trazado_875207" data-name="Trazado 875207" d="M197.309,182.03v28.743a1.025,1.025,0,0,1-1.025,1.025h-3.12a1.025,1.025,0,0,0,1.025-1.025V182.03A1.025,1.025,0,0,0,193.164,181h3.12A1.025,1.025,0,0,1,197.309,182.03Z" transform="translate(-174.636 -177.866)" fill="#7a6e79"/>
                <path id="Trazado_875208" data-name="Trazado 875208" d="M36.531,209.469H53.41v24.886H36.531Z" transform="translate(-33.634 -203.489)" fill="#f2eff2"/>
                <path id="Trazado_875209" data-name="Trazado 875209" d="M178.994,209.469h2.662v24.886h-2.662Z" transform="translate(-161.88 -203.489)" fill="#e1dde1"/>
                <path id="Trazado_875210" data-name="Trazado 875210" d="M106.765,185.242H105.5a1.025,1.025,0,0,1-1.025-1.025V181h3.318v3.215A1.025,1.025,0,0,1,106.765,185.242Z" transform="translate(-94.795 -177.863)" fill="#554e55"/>
              </g>
            </g>
            <g id="Grupo_1099488" data-name="Grupo 1099488" transform="translate(7.058 21.871)">
              <g id="Grupo_1099487" data-name="Grupo 1099487">
                <path id="Trazado_875211" data-name="Trazado 875211" d="M81.429,248.219a1.274,1.274,0,0,1-.9-.373l-1.93-1.93a1.274,1.274,0,0,1,1.8-1.8l1.029,1.029,3.177-3.177a1.274,1.274,0,1,1,1.8,1.8l-4.078,4.078A1.274,1.274,0,0,1,81.429,248.219Z" transform="translate(-78.224 -241.592)" fill="#64b9fc"/>
              </g>
            </g>
          </g>
        </g>
        <g id="Grupo_1099491" data-name="Grupo 1099491" transform="translate(0 0)">
          <path id="Trazado_875212" data-name="Trazado 875212" d="M49.238,14.938h-5.9a.748.748,0,1,0,0,1.5h5.9a.36.36,0,0,1,.36.36V55.337a.36.36,0,0,1-.36.36H24.17V43.178a.748.748,0,0,0-1.5,0v18.1a.277.277,0,0,1-.276.276H1.773a.277.277,0,0,1-.276-.276V32.535a.277.277,0,0,1,.276-.276h7.9V33.6H3.646a.748.748,0,0,0-.748.748V59.237a.748.748,0,0,0,.748.748H20.524a.748.748,0,0,0,.748-.748V34.351a.748.748,0,0,0-.748-.748H14.492V32.259h7.9a.277.277,0,0,1,.276.276v7.11a.748.748,0,1,0,1.5,0v-7.11A1.775,1.775,0,0,0,22.4,30.762H18.479v-.341a2.8,2.8,0,0,0-2.8-2.8H10.336V16.795a.36.36,0,0,1,.36-.36H24.344v9.393A1.859,1.859,0,0,0,26.2,27.685h7.531a1.859,1.859,0,0,0,1.857-1.857V16.435H39.8a.748.748,0,0,0,0-1.5H10.7a1.859,1.859,0,0,0-1.857,1.857V27.623h-.35a2.8,2.8,0,0,0-2.8,2.8v.341H1.773A1.775,1.775,0,0,0,0,32.535V61.279a1.775,1.775,0,0,0,1.773,1.773H22.4a1.775,1.775,0,0,0,1.773-1.773V57.194H49.238A1.859,1.859,0,0,0,51.1,55.337V16.795a1.859,1.859,0,0,0-1.857-1.857ZM34.093,25.828a.36.36,0,0,1-.36.36H26.2a.36.36,0,0,1-.36-.36V16.435h8.251v9.393ZM19.776,58.489H4.394V35.1H9.718a1.776,1.776,0,0,0,1.733,1.4h1.268a1.776,1.776,0,0,0,1.733-1.4h5.324ZM13,34.726a.277.277,0,0,1-.276.276H11.451a.277.277,0,0,1-.276-.276V32.259H13v2.467Zm-5.808-4.3a1.3,1.3,0,0,1,1.3-1.3h7.192a1.3,1.3,0,0,1,1.3,1.3v.341H7.188Z" transform="translate(0 -14.938)"/>
          <path id="Trazado_875213" data-name="Trazado 875213" d="M370.6,213.066a1.561,1.561,0,0,0-1.337-.745h-5.616a1.572,1.572,0,0,0-1.406,2.274l.213.425a5.393,5.393,0,0,0,1.862,8.569.748.748,0,1,0,.594-1.374,3.9,3.9,0,0,1-1.715-5.713l1.854,3.709a1.572,1.572,0,0,0,2.811,0l1.854-3.709a3.894,3.894,0,0,1-1.843,5.764.748.748,0,1,0,.545,1.394,5.392,5.392,0,0,0,2.039-8.641l.213-.425A1.561,1.561,0,0,0,370.6,213.066Zm-4.078,6.476a.075.075,0,0,1-.134,0l-2.808-5.617a.075.075,0,0,1,.067-.108h5.616a.075.075,0,0,1,.067.108Z" transform="translate(-325.025 -192.623)"/>
          <path id="Trazado_875214" data-name="Trazado 875214" d="M407.817,347.975H402.6a.748.748,0,0,0,0,1.5h5.222a.748.748,0,0,0,0-1.5Z" transform="translate(-361.744 -314.739)"/>
          <path id="Trazado_875215" data-name="Trazado 875215" d="M291.859,378.95H273.782a.748.748,0,1,0,0,1.5h18.077a.748.748,0,1,0,0-1.5Z" transform="translate(-245.786 -342.623)"/>
          <path id="Trazado_875216" data-name="Trazado 875216" d="M68.615,332.549l-1.061,1.061-.266-.266A.748.748,0,1,0,66.23,334.4l.795.795a.749.749,0,0,0,1.059,0l1.59-1.59a.749.749,0,0,0-1.059-1.058Z" transform="translate(-59.424 -300.655)"/>
          <path id="Trazado_875217" data-name="Trazado 875217" d="M124.24,330.195h1.029a.748.748,0,0,0,0-1.5H124.24a.748.748,0,0,0,0,1.5Z" transform="translate(-111.168 -297.386)"/>
          <path id="Trazado_875218" data-name="Trazado 875218" d="M124.24,351.892a.748.748,0,1,0,0,1.5H128a.748.748,0,1,0,0-1.5Z" transform="translate(-111.168 -318.266)"/>
          <path id="Trazado_875219" data-name="Trazado 875219" d="M68.615,391.67l-1.061,1.061-.266-.266a.748.748,0,1,0-1.059,1.058l.795.795a.749.749,0,0,0,1.059,0l1.59-1.59a.749.749,0,0,0-1.059-1.058Z" transform="translate(-59.424 -353.876)"/>
          <path id="Trazado_875220" data-name="Trazado 875220" d="M124.24,389.315h1.029a.748.748,0,0,0,0-1.5H124.24a.748.748,0,0,0,0,1.5Z" transform="translate(-111.168 -350.606)"/>
          <path id="Trazado_875221" data-name="Trazado 875221" d="M128,411.013h-3.761a.748.748,0,0,0,0,1.5H128a.748.748,0,0,0,0-1.5Z" transform="translate(-111.169 -371.487)"/>
          <path id="Trazado_875222" data-name="Trazado 875222" d="M77.334,234.686l-2.648,2.647-.5-.5a2.01,2.01,0,0,0-1.43-.592h0a2.023,2.023,0,0,0-1.43,3.453l1.93,1.93a2.023,2.023,0,0,0,2.861,0l4.077-4.078a2.023,2.023,0,0,0-1.43-3.453h0A2.008,2.008,0,0,0,77.334,234.686Zm1.8,1.058a.526.526,0,0,1,0,.744l-4.077,4.078a.526.526,0,0,1-.744,0l-1.93-1.93a.526.526,0,0,1,.372-.9h0a.523.523,0,0,1,.372.154l1.029,1.029a.749.749,0,0,0,1.059,0l3.177-3.177a.522.522,0,0,1,.371-.154h0A.523.523,0,0,1,79.137,235.745Z" transform="translate(-63.676 -212.223)"/>
          <path id="Trazado_875223" data-name="Trazado 875223" d="M132.619,51.8h-2.674a2.779,2.779,0,1,0,0,1.5h2.674a.748.748,0,1,0,0-1.5Zm-5.35,2.031a1.283,1.283,0,1,1,1.039-2.031h-1.039a.748.748,0,0,0,0,1.5h1.039A1.281,1.281,0,0,1,127.269,53.834Z" transform="translate(-112.066 -46.296)"/>
          <path id="Trazado_875224" data-name="Trazado 875224" d="M190.2,92.838h-1a.748.748,0,0,0,0,1.5h1a.748.748,0,1,0,0-1.5Z" transform="translate(-169.647 -85.064)"/>
        </g>
      </g>
    </g>
    <g id="Grupo_1099581" data-name="Grupo 1099581" transform="translate(-622 53)">
      <g id="Grupo_1099580" data-name="Grupo 1099580" transform="translate(1543.333 334.667)">
        <g id="Grupo_1099579" data-name="Grupo 1099579" clip-path="url(#clip-path)">
          <path id="Trazado_877686" data-name="Trazado 877686" d="M11.535.013a11.5,11.5,0,0,1,5.988,1.539A11.754,11.754,0,0,1,22.1,17.265L12.3,33.19a1.219,1.219,0,0,1-.374.389.473.473,0,0,1-.257.031l-.024-.005c-.342-.075-.7-.835-.869-1.111L2.787,19.555C1.056,16.711.057,15.084.067,11.613A6.5,6.5,0,0,1,.1,10.593L.3,9.451A11.813,11.813,0,0,1,9.877.168,10.047,10.047,0,0,1,11.535.013" transform="translate(-0.062 -0.005)" fill="#12263f"/>
        </g>
      </g>
      <circle id="Elipse_11513" data-name="Elipse 11513" cx="5.5" cy="5.5" r="5.5" transform="translate(1549.333 340)" fill="#fff"/>
    </g>
  </g>
</svg>
