<svg xmlns="http://www.w3.org/2000/svg" xmlns:xlink="http://www.w3.org/1999/xlink" width="103.333" height="107.83" viewBox="0 0 103.333 107.83">
  <defs>
    <filter id="Elipse_11501" x="0" y="3.481" width="103.333" height="104.349" filterUnits="userSpaceOnUse">
      <feOffset dy="3" input="SourceAlpha"/>
      <feGaussianBlur stdDeviation="3" result="blur"/>
      <feFlood flood-opacity="0.161"/>
      <feComposite operator="in" in2="blur"/>
      <feComposite in="SourceGraphic"/>
    </filter>
    <filter id="Elipse_11501-2" x="0" y="3.481" width="103.333" height="104.349" filterUnits="userSpaceOnUse">
      <feOffset dy="6" input="SourceAlpha"/>
      <feGaussianBlur stdDeviation="3" result="blur-2"/>
      <feFlood flood-opacity="0.161" result="color"/>
      <feComposite operator="out" in="SourceGraphic" in2="blur-2"/>
      <feComposite operator="in" in="color"/>
      <feComposite operator="in" in2="SourceGraphic"/>
    </filter>
    <clipPath id="clip-path">
      <rect id="Rectángulo_401994" data-name="Rectángulo 401994" width="55" height="55" transform="translate(180.333 399.333)" fill="#fff" stroke="#707070" stroke-width="1"/>
    </clipPath>
    <clipPath id="clip-path-2">
      <rect id="Rectángulo_401455" data-name="Rectángulo 401455" width="23.789" height="34.149" fill="#12263f"/>
    </clipPath>
  </defs>
  <g id="Grupo_1100012" data-name="Grupo 1100012" transform="translate(-912.333 -387.667)">
    <g id="Grupo_1099492" data-name="Grupo 1099492" transform="translate(921.333 397.148)">
      <g data-type="innerShadowGroup">
        <g transform="matrix(1, 0, 0, 1, -9, -9.48)" filter="url(#Elipse_11501)">
          <ellipse id="Elipse_11501-3" data-name="Elipse 11501" cx="42.666" cy="43.174" rx="42.666" ry="43.174" transform="translate(9 9.48)" fill="#e8f57a"/>
        </g>
        <g transform="matrix(1, 0, 0, 1, -9, -9.48)" filter="url(#Elipse_11501-2)">
          <ellipse id="Elipse_11501-4" data-name="Elipse 11501" cx="42.666" cy="43.174" rx="42.666" ry="43.174" transform="translate(9 9.48)" fill="#fff"/>
        </g>
      </g>
      <g id="Enmascarar_grupo_1098693" data-name="Enmascarar grupo 1098693" transform="translate(-165.333 -383.771)" clip-path="url(#clip-path)">
        <g id="inventario" transform="translate(180 399)">
          <rect id="Rectángulo_401988" data-name="Rectángulo 401988" width="41.648" height="3.132" transform="translate(13.203 41.564)" fill="#685e68"/>
          <rect id="Rectángulo_401989" data-name="Rectángulo 401989" width="2.107" height="3.132" transform="translate(52.744 41.564)" fill="#554e56"/>
          <path id="Rectángulo_401990" data-name="Rectángulo 401990" d="M-.43-1.245H41.218a.815.815,0,0,1,.815.815V2.7a.815.815,0,0,1-.815.815H-.43A.815.815,0,0,1-1.245,2.7V-.43A.815.815,0,0,1-.43-1.245ZM40.4.386H.386v1.5H40.4Z" transform="translate(13.632 41.994)"/>
          <path id="Trazado_883329" data-name="Trazado 883329" d="M72.218,56.722H60.731a.788.788,0,0,1-.788-.788V44.71a.788.788,0,0,1,.788-.788H72.218a.788.788,0,0,1,.788.788V55.934A.788.788,0,0,1,72.218,56.722Z" transform="translate(-20.687 -15.158)" fill="#c38f86"/>
          <path id="Trazado_883330" data-name="Trazado 883330" d="M77.73,43.922H75.914a.788.788,0,0,1,.788.788V55.934a.788.788,0,0,1-.788.788H77.73a.788.788,0,0,0,.788-.788V44.71A.788.788,0,0,0,77.73,43.922Z" transform="translate(-26.199 -15.158)" fill="#b87d72"/>
          <path id="Trazado_883331" data-name="Trazado 883331" d="M70.027,47.051H68.379a.529.529,0,0,1-.529-.529v-2.6h2.707v2.6A.529.529,0,0,1,70.027,47.051Z" transform="translate(-23.415 -15.158)" fill="#685e68"/>
          <path id="Trazado_883332" data-name="Trazado 883332" d="M69.6,47.437H67.949A1.346,1.346,0,0,1,66.6,46.092v-2.6a.815.815,0,0,1,.815-.815h2.707a.815.815,0,0,1,.815.815v2.6A1.346,1.346,0,0,1,69.6,47.437Zm-1.363-1.631h1.076v-1.5H68.235Z" transform="translate(-22.985 -14.728)"/>
          <path id="Línea_606" data-name="Línea 606" d="M2.793.386H-.43A.815.815,0,0,1-1.245-.43.815.815,0,0,1-.43-1.245H2.793a.815.815,0,0,1,.815.815A.815.815,0,0,1,2.793.386Z" transform="translate(42.743 39.107)"/>
          <path id="Trazado_883333" data-name="Trazado 883333" d="M45.9,56.722H34.412a.788.788,0,0,1-.788-.788V44.71a.788.788,0,0,1,.788-.788H45.9a.788.788,0,0,1,.788.788V55.934A.788.788,0,0,1,45.9,56.722Z" transform="translate(-11.604 -15.158)" fill="#c38f86"/>
          <path id="Trazado_883334" data-name="Trazado 883334" d="M51.411,43.922H49.6a.788.788,0,0,1,.788.788V55.934a.788.788,0,0,1-.788.788h1.815a.788.788,0,0,0,.788-.788V44.71A.788.788,0,0,0,51.411,43.922Z" transform="translate(-17.116 -15.158)" fill="#b87d72"/>
          <path id="Trazado_883335" data-name="Trazado 883335" d="M45.469,57.107H33.982a1.605,1.605,0,0,1-1.6-1.6V44.28a1.605,1.605,0,0,1,1.6-1.6H45.469a1.605,1.605,0,0,1,1.6,1.6V55.5A1.605,1.605,0,0,1,45.469,57.107ZM34.01,55.477H45.442V44.308H34.01Z" transform="translate(-11.174 -14.728)"/>
          <path id="Trazado_883336" data-name="Trazado 883336" d="M43.708,47.051H42.06a.529.529,0,0,1-.529-.529v-2.6h2.707v2.6A.529.529,0,0,1,43.708,47.051Z" transform="translate(-14.332 -15.158)" fill="#685e68"/>
          <path id="Trazado_883337" data-name="Trazado 883337" d="M43.279,47.437H41.63a1.346,1.346,0,0,1-1.345-1.345v-2.6a.815.815,0,0,1,.815-.815h2.707a.815.815,0,0,1,.815.815v2.6A1.346,1.346,0,0,1,43.279,47.437Zm-1.363-1.631h1.076v-1.5H41.916Z" transform="translate(-13.903 -14.728)"/>
          <path id="Línea_607" data-name="Línea 607" d="M2.793.386H-.43A.815.815,0,0,1-1.245-.43.815.815,0,0,1-.43-1.245H2.793a.815.815,0,0,1,.815.815A.815.815,0,0,1,2.793.386Z" transform="translate(25.507 39.107)"/>
          <rect id="Rectángulo_401991" data-name="Rectángulo 401991" width="54.035" height="3.132" transform="translate(0.815 13.615)" fill="#685e68"/>
          <rect id="Rectángulo_401992" data-name="Rectángulo 401992" width="2.107" height="3.132" transform="translate(52.744 13.615)" fill="#554e56"/>
          <path id="Rectángulo_401993" data-name="Rectángulo 401993" d="M-.43-1.245H53.605a.815.815,0,0,1,.815.815V2.7a.815.815,0,0,1-.815.815H-.43A.815.815,0,0,1-1.245,2.7V-.43A.815.815,0,0,1-.43-1.245ZM52.79.386H.386v1.5h52.4Z" transform="translate(1.245 14.045)"/>
          <path id="Trazado_883338" data-name="Trazado 883338" d="M72.218,14.045H60.731a.788.788,0,0,1-.788-.788V2.033a.788.788,0,0,1,.788-.788H72.218a.788.788,0,0,1,.788.788V13.257A.788.788,0,0,1,72.218,14.045Z" transform="translate(-20.687 -0.43)" fill="#c38f86"/>
          <path id="Trazado_883339" data-name="Trazado 883339" d="M77.73,1.245H75.914a.788.788,0,0,1,.788.788V13.257a.788.788,0,0,1-.788.788H77.73a.788.788,0,0,0,.788-.788V2.033A.788.788,0,0,0,77.73,1.245Z" transform="translate(-26.199 -0.43)" fill="#b87d72"/>
          <path id="Trazado_883340" data-name="Trazado 883340" d="M71.788,14.431H60.3a1.605,1.605,0,0,1-1.6-1.6V1.6A1.605,1.605,0,0,1,60.3,0H71.788a1.605,1.605,0,0,1,1.6,1.6V12.827A1.605,1.605,0,0,1,71.788,14.431ZM60.329,12.8H71.761V1.631H60.329Z" transform="translate(-20.257 0)"/>
          <path id="Trazado_883341" data-name="Trazado 883341" d="M70.027,4.374H68.379a.529.529,0,0,1-.529-.529v-2.6h2.707v2.6A.529.529,0,0,1,70.027,4.374Z" transform="translate(-23.415 -0.43)" fill="#685e68"/>
          <path id="Trazado_883342" data-name="Trazado 883342" d="M69.6,4.76H67.949A1.346,1.346,0,0,1,66.6,3.415V.815A.815.815,0,0,1,67.42,0h2.707a.815.815,0,0,1,.815.815v2.6A1.346,1.346,0,0,1,69.6,4.76ZM68.235,3.129h1.076v-1.5H68.235Z" transform="translate(-22.985 0)"/>
          <path id="Línea_608" data-name="Línea 608" d="M2.793.386H-.43A.815.815,0,0,1-1.245-.43.815.815,0,0,1-.43-1.245H2.793a.815.815,0,0,1,.815.815A.815.815,0,0,1,2.793.386Z" transform="translate(42.743 11.158)"/>
          <path id="Trazado_883343" data-name="Trazado 883343" d="M45.9,14.045H34.412a.788.788,0,0,1-.788-.788V2.033a.788.788,0,0,1,.788-.788H45.9a.788.788,0,0,1,.788.788V13.257A.788.788,0,0,1,45.9,14.045Z" transform="translate(-11.604 -0.43)" fill="#c38f86"/>
          <path id="Trazado_883344" data-name="Trazado 883344" d="M51.411,1.245H49.6a.788.788,0,0,1,.788.788V13.257a.788.788,0,0,1-.788.788h1.815a.788.788,0,0,0,.788-.788V2.033A.788.788,0,0,0,51.411,1.245Z" transform="translate(-17.116 -0.43)" fill="#b87d72"/>
          <path id="Trazado_883345" data-name="Trazado 883345" d="M45.469,14.431H33.982a1.605,1.605,0,0,1-1.6-1.6V1.6a1.605,1.605,0,0,1,1.6-1.6H45.469a1.605,1.605,0,0,1,1.6,1.6V12.827A1.605,1.605,0,0,1,45.469,14.431ZM34.01,12.8H45.442V1.631H34.01Z" transform="translate(-11.174 0)"/>
          <path id="Trazado_883346" data-name="Trazado 883346" d="M43.708,4.374H42.06a.529.529,0,0,1-.529-.529v-2.6h2.707v2.6A.529.529,0,0,1,43.708,4.374Z" transform="translate(-14.332 -0.43)" fill="#685e68"/>
          <path id="Trazado_883347" data-name="Trazado 883347" d="M43.279,4.76H41.63a1.346,1.346,0,0,1-1.345-1.345V.815A.815.815,0,0,1,41.1,0h2.707a.815.815,0,0,1,.815.815v2.6A1.346,1.346,0,0,1,43.279,4.76ZM41.916,3.129h1.076v-1.5H41.916Z" transform="translate(-13.903 0)"/>
          <path id="Línea_609" data-name="Línea 609" d="M2.793.386H-.43A.815.815,0,0,1-1.245-.43.815.815,0,0,1-.43-1.245H2.793a.815.815,0,0,1,.815.815A.815.815,0,0,1,2.793.386Z" transform="translate(25.507 11.158)"/>
          <path id="Trazado_883348" data-name="Trazado 883348" d="M20.005,14.045H8.518a.788.788,0,0,1-.788-.788V2.033a.788.788,0,0,1,.788-.788H20.006a.788.788,0,0,1,.788.788V13.257A.788.788,0,0,1,20.005,14.045Z" transform="translate(-2.668 -0.43)" fill="#c38f86"/>
          <path id="Trazado_883349" data-name="Trazado 883349" d="M25.517,1.245H23.7a.788.788,0,0,1,.788.788V13.257a.788.788,0,0,1-.788.788h1.815a.788.788,0,0,0,.788-.788V2.033A.788.788,0,0,0,25.517,1.245Z" transform="translate(-8.18 -0.43)" fill="#b87d72"/>
          <path id="Trazado_883350" data-name="Trazado 883350" d="M17.815,4.374H16.166a.529.529,0,0,1-.529-.529v-2.6h2.707v2.6A.529.529,0,0,1,17.815,4.374Z" transform="translate(-5.396 -0.43)" fill="#685e68"/>
          <path id="Trazado_883351" data-name="Trazado 883351" d="M17.385,4.76H15.736a1.346,1.346,0,0,1-1.345-1.345V.815A.815.815,0,0,1,15.207,0h2.707a.815.815,0,0,1,.815.815v2.6A1.344,1.344,0,0,1,17.385,4.76ZM16.023,3.129H17.1v-1.5H16.023Z" transform="translate(-4.967 0)"/>
          <path id="Línea_610" data-name="Línea 610" d="M2.793.386H-.43A.815.815,0,0,1-1.245-.43.815.815,0,0,1-.43-1.245H2.793a.815.815,0,0,1,.815.815A.815.815,0,0,1,2.793.386Z" transform="translate(8.55 11.158)"/>
          <path id="Trazado_883352" data-name="Trazado 883352" d="M23.766,66.79H2.418a1.173,1.173,0,0,1-1.173-1.173V35.769A1.173,1.173,0,0,1,2.418,34.6H23.766a1.173,1.173,0,0,1,1.173,1.173V65.617A1.173,1.173,0,0,1,23.766,66.79Z" transform="translate(-0.43 -11.939)" fill="#faf7f7"/>
          <path id="Trazado_883353" data-name="Trazado 883353" d="M34.473,34.6h-2.2a1.173,1.173,0,0,1,1.173,1.173V65.617A1.173,1.173,0,0,1,32.27,66.79h2.2a1.173,1.173,0,0,0,1.173-1.173V35.769A1.173,1.173,0,0,0,34.473,34.6Z" transform="translate(-11.137 -11.939)" fill="#dedbee"/>
          <path id="Trazado_883354" data-name="Trazado 883354" d="M23.336,67.176H1.989A1.991,1.991,0,0,1,0,65.187V35.339a1.991,1.991,0,0,1,1.989-1.989H23.336a1.991,1.991,0,0,1,1.989,1.989V59.35a.815.815,0,0,1-1.631,0V35.339a.358.358,0,0,0-.358-.358H1.989a.358.358,0,0,0-.358.358V65.187a.358.358,0,0,0,.358.358H23.336a.358.358,0,0,0,.358-.358V62.5a.815.815,0,0,1,1.631,0v2.684A1.991,1.991,0,0,1,23.336,67.176Z" transform="translate(0 -11.51)"/>
          <path id="Trazado_883355" data-name="Trazado 883355" d="M21.184,35.654H11.613a.786.786,0,0,1-.786-.786V31.651a.786.786,0,0,1,.786-.786h9.571a.786.786,0,0,1,.786.786v3.217A.786.786,0,0,1,21.184,35.654Z" transform="translate(-3.736 -10.652)" fill="#685e68"/>
          <path id="Trazado_883356" data-name="Trazado 883356" d="M25.463,30.865H23.225a.786.786,0,0,1,.786.786v3.217a.786.786,0,0,1-.786.786h2.238a.786.786,0,0,0,.786-.786V31.651A.786.786,0,0,0,25.463,30.865Z" transform="translate(-8.015 -10.652)" fill="#554e56"/>
          <path id="Trazado_883357" data-name="Trazado 883357" d="M20.755,36.04H11.184a1.6,1.6,0,0,1-1.6-1.6V31.222a1.6,1.6,0,0,1,1.6-1.6h9.571a1.6,1.6,0,0,1,1.6,1.6v3.217a1.6,1.6,0,0,1-1.6,1.6Zm-9.542-1.631h9.513V31.251H11.213Z" transform="translate(-3.307 -10.222)"/>
          <g id="Grupo_1100020" data-name="Grupo 1100020" transform="translate(4.617 28.353)">
            <path id="Línea_611" data-name="Línea 611" d="M14.029.386H-.43A.815.815,0,0,1-1.245-.43.815.815,0,0,1-.43-1.245H14.029a.815.815,0,0,1,.815.815A.815.815,0,0,1,14.029.386Z" transform="translate(1.245 1.245)"/>
            <path id="Línea_612" data-name="Línea 612" d="M14.029.386H-.43A.815.815,0,0,1-1.245-.43.815.815,0,0,1-.43-1.245H14.029a.815.815,0,0,1,.815.815A.815.815,0,0,1,14.029.386Z" transform="translate(1.245 4.98)"/>
            <path id="Línea_613" data-name="Línea 613" d="M14.029.386H-.43A.815.815,0,0,1-1.245-.43.815.815,0,0,1-.43-1.245H14.029a.815.815,0,0,1,.815.815A.815.815,0,0,1,14.029.386Z" transform="translate(1.245 8.714)"/>
            <path id="Línea_614" data-name="Línea 614" d="M14.029.386H-.43A.815.815,0,0,1-1.245-.43.815.815,0,0,1-.43-1.245H14.029a.815.815,0,0,1,.815.815A.815.815,0,0,1,14.029.386Z" transform="translate(1.245 12.449)"/>
            <path id="Línea_615" data-name="Línea 615" d="M14.029.386H-.43A.815.815,0,0,1-1.245-.43.815.815,0,0,1-.43-1.245H14.029a.815.815,0,0,1,.815.815A.815.815,0,0,1,14.029.386Z" transform="translate(1.245 16.183)"/>
            <path id="Línea_616" data-name="Línea 616" d="M14.029.386H-.43A.815.815,0,0,1-1.245-.43.815.815,0,0,1-.43-1.245H14.029a.815.815,0,0,1,.815.815A.815.815,0,0,1,14.029.386Z" transform="translate(1.245 19.918)"/>
          </g>
          <path id="Trazado_883358" data-name="Trazado 883358" d="M19.576,14.431H8.089a1.605,1.605,0,0,1-1.6-1.6V7.436a.815.815,0,0,1,1.631,0V12.8H19.548V1.631H8.116V4.283a.815.815,0,0,1-1.631,0V1.6A1.605,1.605,0,0,1,8.089,0H19.576a1.605,1.605,0,0,1,1.6,1.6V12.827A1.605,1.605,0,0,1,19.576,14.431Z" transform="translate(-2.238 0)"/>
          <path id="Trazado_883359" data-name="Trazado 883359" d="M71.788,57.107H60.3a1.605,1.605,0,0,1-1.6-1.6V44.28a1.605,1.605,0,0,1,1.6-1.6H71.788a1.605,1.605,0,0,1,1.6,1.6v4.036a.815.815,0,1,1-1.631,0V44.308H60.329V55.477H71.761V51.469a.815.815,0,1,1,1.631,0V55.5A1.605,1.605,0,0,1,71.788,57.107Z" transform="translate(-20.257 -14.728)"/>
        </g>
      </g>
    </g>
    <g id="Grupo_1099581" data-name="Grupo 1099581" transform="translate(921.333 387.667)">
      <g id="Grupo_1099580" data-name="Grupo 1099580">
        <g id="Grupo_1099579" data-name="Grupo 1099579" clip-path="url(#clip-path-2)">
          <path id="Trazado_877686" data-name="Trazado 877686" d="M11.717.013A11.685,11.685,0,0,1,17.8,1.576a11.94,11.94,0,0,1,4.653,15.963L12.493,33.717a1.238,1.238,0,0,1-.38.4.481.481,0,0,1-.261.032l-.024-.006c-.347-.076-.707-.848-.883-1.128L2.83,19.865C1.071,16.977.057,15.323.067,11.8A6.6,6.6,0,0,1,.1,10.761L.3,9.6A12,12,0,0,1,10.033.17,10.206,10.206,0,0,1,11.717.013" transform="translate(-0.062 -0.005)" fill="#12263f"/>
        </g>
      </g>
      <circle id="Elipse_11513" data-name="Elipse 11513" cx="5.587" cy="5.587" r="5.587" transform="translate(6.095 5.418)" fill="#fff"/>
    </g>
  </g>
</svg>
