<svg id="Grupo_1100013" data-name="Grupo 1100013" xmlns="http://www.w3.org/2000/svg" xmlns:xlink="http://www.w3.org/1999/xlink" width="420" height="337.333" viewBox="0 0 420 337.333">
  <defs>
    <clipPath id="clip-path">
      <path id="Trazado_874551" data-name="Trazado 874551" d="M120.191,8.258H8.259V120.19H120.191Zm8.259,120.191H0V0H128.449Z" fill="#a4a1c5"/>
    </clipPath>
    <clipPath id="clip-path-2">
      <rect id="Rectángulo_401350" data-name="Rectángulo 401350" width="124.08" height="124.08" fill="#bac462"/>
    </clipPath>
    <clipPath id="clip-path-3">
      <rect id="Rectángulo_401895" data-name="Rectángulo 401895" width="318.784" height="311.41" fill="none"/>
    </clipPath>
    <clipPath id="clip-path-5">
      <path id="Trazado_882939" data-name="Trazado 882939" d="M371.821,268.358c0,39.549,30.263,71.61,67.593,71.61h67.594v-71.61c0-39.549-30.263-71.61-67.594-71.61s-67.593,32.061-67.593,71.61" transform="translate(-371.821 -196.748)" fill="none"/>
    </clipPath>
    <clipPath id="clip-path-7">
      <rect id="Rectángulo_401892" data-name="Rectángulo 401892" width="4.884" height="2.036" fill="none"/>
    </clipPath>
    <clipPath id="clip-path-8">
      <rect id="Rectángulo_401893" data-name="Rectángulo 401893" width="3.029" height="2.037" fill="none"/>
    </clipPath>
  </defs>
  <rect id="Rectángulo_35205" data-name="Rectángulo 35205" width="420" height="337.333" transform="translate(0 0)" fill="#cae2fb"/>
  <g id="Grupo_1099923" data-name="Grupo 1099923" transform="translate(24.967 9.52)">
    <g id="Grupo_1099914" data-name="Grupo 1099914" transform="translate(0 312.248) rotate(-90)">
      <path id="Rectángulo_401896" data-name="Rectángulo 401896" d="M123,0h28.063a123,123,0,0,1,123,123V375.033a0,0,0,0,1,0,0H0a0,0,0,0,1,0,0V123A123,123,0,0,1,123,0Z" transform="translate(-2.083 0)" fill="#f2f8fe"/>
      <g id="Grupo_1099796" data-name="Grupo 1099796" transform="translate(179.614 0)">
        <g id="Grupo_1099437" data-name="Grupo 1099437" transform="translate(0 4.773)">
          <g id="Grupo_1099436" data-name="Grupo 1099436" transform="translate(0)" clip-path="url(#clip-path)">
            <rect id="Rectángulo_401360" data-name="Rectángulo 401360" width="128.449" height="128.449" transform="translate(0 0)" fill="#a4a1c5"/>
          </g>
        </g>
        <rect id="Rectángulo_401361" data-name="Rectángulo 401361" width="14.875" height="14.875" transform="translate(121.012)" fill="#f5827a"/>
      </g>
      <g id="Grupo_1099793" data-name="Grupo 1099793" transform="translate(186.621 250.952)" opacity="0.31">
        <path id="Trazado_882649" data-name="Trazado 882649" d="M117.928,0,0,117.929v5.577l.574.575h.51l123-123V0Z" transform="translate(0.001 0)" fill="#bac462"/>
        <path id="Trazado_882650" data-name="Trazado 882650" d="M0,114.405H7.238L114.406,7.238V0Z" transform="translate(9.676 9.676)" fill="#bac462"/>
        <path id="Trazado_882651" data-name="Trazado 882651" d="M0,98.581H7.238L98.58,7.239V0Z" transform="translate(25.502 25.5)" fill="#bac462"/>
        <path id="Trazado_882652" data-name="Trazado 882652" d="M0,82.753H7.238L82.753,7.238V0Z" transform="translate(41.328 41.327)" fill="#bac462"/>
        <path id="Trazado_882653" data-name="Trazado 882653" d="M0,66.926H7.238L66.927,7.238V0Z" transform="translate(57.155 57.154)" fill="#bac462"/>
        <path id="Trazado_882654" data-name="Trazado 882654" d="M0,51.1H7.238L51.1,7.238V0Z" transform="translate(72.982 72.983)" fill="#bac462"/>
        <path id="Trazado_882655" data-name="Trazado 882655" d="M0,35.273H7.238L35.273,7.239V0Z" transform="translate(88.808 88.808)" fill="#bac462"/>
        <path id="Trazado_882656" data-name="Trazado 882656" d="M0,19.446H7.238L19.446,7.238V0Z" transform="translate(104.634 104.634)" fill="#bac462"/>
        <path id="Trazado_882657" data-name="Trazado 882657" d="M0,3.62H3.62V0Z" transform="translate(120.464 120.462)" fill="#bac462"/>
        <path id="Trazado_882658" data-name="Trazado 882658" d="M102.866,0,0,102.865V110.1L110.1,0Z" transform="translate(0.001 0)" fill="#bac462"/>
        <path id="Trazado_882659" data-name="Trazado 882659" d="M87.039,0,0,87.039v7.238L94.277,0Z" transform="translate(0 0)" fill="#bac462"/>
        <path id="Trazado_882660" data-name="Trazado 882660" d="M71.212,0,0,71.212V78.45L78.45,0Z" transform="translate(0 0)" fill="#bac462"/>
        <path id="Trazado_882661" data-name="Trazado 882661" d="M55.385,0,0,55.385v7.238L62.623,0Z" transform="translate(0.001 0)" fill="#bac462"/>
        <path id="Trazado_882662" data-name="Trazado 882662" d="M39.559,0,0,39.558V46.8L46.8,0Z" transform="translate(0 0)" fill="#bac462"/>
        <path id="Trazado_882663" data-name="Trazado 882663" d="M23.732,0,0,23.732v7.238L30.97,0Z" transform="translate(0 0)" fill="#bac462"/>
        <path id="Trazado_882664" data-name="Trazado 882664" d="M7.9,0,0,7.9v7.238L15.143,0Z" transform="translate(0 0)" fill="#bac462"/>
        <g id="Grupo_1099792" data-name="Grupo 1099792" transform="translate(0)">
          <g id="Grupo_1099419" data-name="Grupo 1099419" clip-path="url(#clip-path-2)">
            <rect id="Rectángulo_401348" data-name="Rectángulo 401348" width="178.342" height="5.118" transform="translate(-65.704 57.804) rotate(-45.01)" fill="#bac462"/>
            <rect id="Rectángulo_401349" data-name="Rectángulo 401349" width="178.341" height="5.119" transform="translate(-73.628 49.879) rotate(-45)" fill="#bac462"/>
          </g>
        </g>
      </g>
    </g>
  </g>
  <g id="Grupo_1099924" data-name="Grupo 1099924" transform="translate(68.846 25.922)">
    <g id="Grupo_1099912" data-name="Grupo 1099912" clip-path="url(#clip-path-3)">
      <g id="Grupo_1099901" data-name="Grupo 1099901">
        <g id="Grupo_1099900" data-name="Grupo 1099900" clip-path="url(#clip-path-3)">
          <path id="Trazado_882846" data-name="Trazado 882846" d="M270.447,308.312l-.471-.043.025-.286.471.047Zm.169-1.773-.47-.056q.08-.752.174-1.5l.468.067q-.093.738-.172,1.485m.375-2.966-.467-.077q.111-.748.236-1.487l.465.089q-.125.733-.234,1.475m.5-2.944-.463-.1q.144-.741.3-1.474l.461.113q-.158.726-.3,1.461m.635-2.914-.458-.125q.178-.733.374-1.456l.454.138q-.194.716-.37,1.443m.778-2.874-.451-.151q.214-.719.449-1.429l.446.165q-.231.7-.444,1.414m.928-2.815-.441-.179q.254-.705.528-1.4l.436.193q-.272.687-.523,1.385m1.087-2.752-.43-.207q.295-.688.611-1.363l.424.222q-.313.668-.6,1.348m1.25-2.675-.416-.236q.337-.665.695-1.319l.409.251q-.354.646-.687,1.3m1.416-2.583-.4-.265q.377-.64.778-1.267l.391.28q-.395.62-.768,1.252m1.578-2.477-.382-.294q.418-.61.859-1.208l.373.308q-.437.591-.85,1.195m1.735-2.355-.362-.321q.457-.577.934-1.141l.352.334q-.472.558-.923,1.128m1.882-2.223-.341-.347q.491-.542,1-1.071l.33.358q-.507.523-.993,1.059m2.019-2.084-.319-.37q.523-.506,1.068-1l.308.381q-.54.487-1.057.988m2.142-1.941-.3-.391q.552-.469,1.125-.926l.284.4q-.567.452-1.113.917m2.251-1.791-.266-.414q.584-.422,1.2-.826l.25.425q-.6.4-1.18.815m60.927-1.494q-.615-.357-1.246-.7l.214-.447q.637.343,1.259.7Zm-58.537-.084-.234-.435q.615-.372,1.252-.724l.219.444q-.629.348-1.236.716m56.025-1.269q-.636-.317-1.284-.617l.19-.459q.653.3,1.3.622Zm-53.529-.116-.2-.451q.637-.324,1.294-.632l.191.458q-.65.3-1.282.625m50.945-1.079q-.652-.279-1.314-.541l.165-.469q.668.264,1.326.546Zm-48.364-.128-.178-.464q.656-.282,1.328-.547l.165.469q-.666.263-1.315.542m45.722-.918q-.665-.243-1.339-.469l.143-.478q.679.228,1.351.473ZM299.3,265.93l-.152-.474q.669-.242,1.353-.469l.141.478q-.678.225-1.342.465m40.387-.777q-.676-.207-1.36-.4l.121-.484q.69.194,1.371.4ZM302,265.037l-.129-.482q.681-.206,1.373-.4l.119.485q-.687.189-1.363.393m34.965-.65q-.684-.174-1.377-.333l.1-.49q.7.161,1.387.336Zm-32.231-.1-.108-.488q.688-.172,1.389-.328l.1.49q-.693.155-1.379.326m29.472-.534q-.692-.143-1.389-.27l.08-.493q.7.128,1.4.272Zm-26.707-.085-.088-.492q.7-.14,1.4-.264l.077.494q-.7.123-1.39.262m23.924-.426q-.7-.112-1.4-.209l.061-.5q.707.1,1.409.211Zm-21.136-.067-.068-.5q.7-.109,1.412-.2l.058.5q-.7.092-1.4.2m18.335-.321q-.7-.083-1.406-.15l.043-.5q.709.068,1.415.15Zm-15.526-.05-.049-.5q.708-.077,1.419-.141l.04.5q-.707.064-1.409.141m12.712-.22q-.705-.052-1.411-.091l.024-.5q.71.039,1.42.092Zm-9.892-.031-.031-.5q.71-.048,1.422-.083l.021.5q-.708.035-1.413.083m7.069-.122q-.708-.023-1.414-.034l.007-.5q.711.011,1.422.034Zm-4.243-.013-.012-.5q.711-.02,1.424-.024l0,.5q-.708,0-1.414.024" transform="translate(-142.384 -130.766)" fill="#601e1e"/>
          <path id="Trazado_882847" data-name="Trazado 882847" d="M307.465,358.669q-.295-.687-.581-1.372l.432-.2q.286.684.579,1.368Zm-1.151-2.751q-.283-.692-.556-1.384l.436-.194q.273.689.554,1.379Zm-1.1-2.774q-.269-.7-.529-1.4l.44-.184q.259.7.527,1.391Zm47.843-2.6q-.152-.734-.309-1.461l.46-.112q.158.73.31,1.466Zm-48.888-.207q-.256-.706-.5-1.411l.443-.174q.245.7.5,1.407Zm48.256-2.713q-.166-.731-.339-1.456l.458-.123q.174.728.341,1.461Zm-49.245-.116q-.241-.712-.472-1.423l.447-.163q.23.708.47,1.418Zm48.552-2.791q-.182-.727-.369-1.447l.455-.133q.189.723.371,1.453Zm-49.481-.061q-.225-.717-.441-1.434l.451-.152q.214.714.438,1.429Zm48.727-2.829q-.2-.722-.4-1.437l.452-.145q.2.719.4,1.443Zm-49.592-.046q-.208-.723-.406-1.445l.453-.14q.2.719.405,1.439Zm48.774-2.825q-.212-.717-.432-1.427l.449-.156q.22.713.434,1.433Zm-49.571-.072q-.191-.728-.372-1.456l.457-.128q.181.725.37,1.45Zm48.691-2.777q-.23-.712-.465-1.416l.446-.167q.236.707.466,1.421Zm-49.417-.14q-.172-.734-.335-1.466l.46-.115q.162.729.334,1.46Zm48.471-2.686q-.247-.705-.5-1.4l.441-.179q.253.7.5,1.409Zm-49.123-.251q-.152-.737-.3-1.474l.463-.1q.143.734.3,1.468Zm48.11-2.548q-.262-.7-.532-1.389l.437-.191q.271.694.534,1.395Zm-48.684-.406q-.134-.741-.257-1.483l.465-.087q.123.738.256,1.477Zm47.6-2.364q-.28-.691-.567-1.373l.432-.2q.288.687.569,1.379Zm-48.1-.606q-.113-.746-.215-1.491l.468-.072q.1.741.214,1.483Zm46.947-2.132q-.3-.683-.6-1.357l.426-.216q.306.677.6,1.362Zm-47.357-.852q-.091-.749-.172-1.5l.47-.057q.081.744.172,1.489Zm46.137-1.852q-.315-.674-.637-1.338l.421-.228q.323.668.64,1.344Zm-46.46-1.144q-.069-.751-.128-1.5l.471-.042q.058.747.128,1.494Zm45.169-1.523q-.333-.664-.673-1.318l.414-.241q.342.657.675,1.324Zm-45.4-1.482q-.047-.752-.082-1.5l.472-.025q.035.748.082,1.5Zm44.038-1.144q-.351-.653-.709-1.3l.407-.254q.359.646.712,1.3Zm-44.178-1.867q-.023-.753-.035-1.506l.473-.008q.011.749.035,1.5Zm42.742-.714q-.369-.641-.746-1.273l.4-.267q.378.635.75,1.279Zm-42.315-2.3h-.473q0-.753.013-1.506l.473.008q-.012.749-.013,1.5m40.805-.235q-.387-.629-.782-1.247l.391-.281q.4.623.787,1.254Zm-1.584-2.482q-.406-.615-.82-1.22l.383-.293q.415.608.825,1.227Zm-39.169-.278-.473-.018q.025-.753.063-1.505l.472.027q-.037.747-.062,1.5m37.511-2.148q-.424-.6-.857-1.191l.374-.306q.434.593.862,1.2Zm-37.362-.843-.472-.035q.05-.751.112-1.5l.471.044q-.062.746-.111,1.493m35.63-1.525q-.444-.585-.894-1.16l.363-.319q.454.578.9,1.166Zm-35.383-1.458-.47-.053q.075-.749.162-1.5l.469.061q-.086.743-.161,1.488m33.576-.845q-.461-.569-.931-1.127l.353-.333q.472.561.936,1.134Zm-33.229-2.127-.468-.07q.1-.745.212-1.49l.467.079q-.111.74-.21,1.48m31.349-.109q-.481-.551-.968-1.091l.341-.346q.491.543.974,1.1Zm-1.955-2.164q-.5-.532-1-1.054l.329-.359q.508.524,1.01,1.061Zm-28.948-.683-.465-.087q.123-.74.261-1.481l.464.1q-.137.735-.26,1.471m26.924-1.406q-.516-.512-1.039-1.014l.317-.371q.527.5,1.045,1.021Zm-26.379-1.531-.462-.105q.15-.734.31-1.469l.461.114q-.161.73-.309,1.461m24.283-.478q-.534-.493-1.074-.973l.3-.383q.544.484,1.08.979Zm-2.16-1.922q-.549-.469-1.1-.927l.29-.4q.559.46,1.112.933Zm-21.481-.515-.458-.123q.173-.729.359-1.456l.456.131q-.184.723-.357,1.448m19.256-1.317q-.564-.448-1.137-.882l.276-.407q.575.438,1.144.888Zm-18.517-1.572-.454-.139q.2-.721.407-1.442l.451.148q-.208.716-.4,1.434m16.227-.17q-.58-.424-1.168-.836l.26-.418q.592.415,1.176.842Zm-2.352-1.649q-.6-.4-1.2-.789l.246-.428q.606.391,1.206.794Zm-13.043-1.04-.449-.156q.22-.713.454-1.426l.447.164q-.231.709-.451,1.418M312.1,285.1q-.611-.376-1.228-.739l.23-.438q.62.365,1.235.744Zm-2.469-1.452q-.623-.351-1.254-.688l.213-.447q.635.339,1.263.693Zm-7.237-.863-.444-.172q.243-.7.5-1.408l.441.18q-.255.7-.5,1.4m4.715-.488q-.637-.325-1.28-.636l.2-.455q.648.313,1.288.64Zm-2.571-1.246q-.649-.3-1.3-.583l.18-.463q.659.287,1.311.587Z" transform="translate(-156.634 -139.808)" fill="#430a0a"/>
          <path id="Trazado_882848" data-name="Trazado 882848" d="M114.287,427.5l-.473-.013q.017-.666.039-1.333l.473.017q-.021.665-.039,1.329m.094-2.828-.473-.021q.031-.751.065-1.5l.472.025q-.035.749-.064,1.5m.138-3-.472-.028q.04-.751.085-1.5l.472.032q-.045.748-.085,1.5m.179-2.994-.472-.035q.05-.75.1-1.5l.471.039q-.054.747-.1,1.5m.218-2.99-.471-.042q.06-.749.125-1.5l.471.046q-.065.747-.125,1.493m.259-2.985-.47-.05q.069-.748.144-1.495l.47.053q-.074.746-.144,1.492m.3-2.981-.47-.056q.08-.747.165-1.493l.469.061q-.085.744-.164,1.488m.339-2.975-.469-.064q.09-.745.185-1.489l.468.067q-.094.742-.184,1.486m.379-2.969-.468-.071q.1-.743.206-1.486l.467.075q-.106.74-.2,1.482m.42-2.962-.467-.078q.109-.741.225-1.481l.466.081q-.115.738-.224,1.478m.46-2.955-.466-.085q.121-.741.246-1.478l.465.089q-.125.736-.245,1.474m.5-2.946-.464-.092q.13-.738.265-1.474l.465.1q-.135.734-.266,1.47m.542-2.938-.464-.1q.14-.735.286-1.469l.462.1q-.145.732-.285,1.465m.58-2.928-.461-.107q.15-.733.307-1.463l.461.11q-.155.729-.306,1.46m.623-2.917-.461-.114q.161-.73.327-1.458l.46.118q-.166.726-.326,1.455m.662-2.907-.459-.121q.172-.728.348-1.453l.457.125q-.177.723-.347,1.449m.7-2.9-.457-.129q.182-.725.369-1.447l.456.133q-.186.72-.368,1.443m.746-2.883-.455-.136q.193-.722.39-1.44l.454.14q-.2.717-.388,1.436m.788-2.869-.452-.144q.2-.717.411-1.433l.451.147q-.207.713-.41,1.429m.829-2.855-.45-.151q.214-.718.434-1.433l.449.155q-.219.712-.433,1.428m.876-2.853-.448-.16q.226-.714.456-1.424l.447.163q-.23.709-.455,1.421m.919-2.838-.446-.167q.237-.71.477-1.416l.445.17q-.24.705-.476,1.413m.963-2.821-.443-.174q.247-.706.5-1.408l.442.178q-.252.7-.5,1.4m1.007-2.8-.44-.182q.258-.7.522-1.4l.438.186q-.262.7-.519,1.4m1.051-2.785-.438-.19q.27-.7.544-1.389l.436.194q-.274.691-.542,1.386m1.1-2.767-.434-.2q.28-.691.566-1.379l.433.2q-.285.687-.565,1.376m1.14-2.746-.431-.206q.292-.686.589-1.369l.429.21q-.3.68-.587,1.365m1.186-2.724-.428-.214q.3-.68.612-1.357l.426.218q-.308.674-.61,1.353m1.232-2.7-.423-.222q.315-.675.635-1.346l.422.226q-.32.669-.634,1.342m1.278-2.677-.42-.23q.327-.669.659-1.333l.417.234q-.331.662-.656,1.329m1.324-2.651-.415-.239q.339-.662.682-1.319l.414.242q-.342.656-.68,1.315m1.372-2.624-.412-.247q.35-.655.706-1.305l.409.251q-.354.648-.7,1.3m1.419-2.595-.406-.255q.362-.648.73-1.291l.4.26q-.366.641-.728,1.286m1.468-2.565-.4-.263q.374-.64.754-1.275l.4.268q-.379.632-.751,1.27m1.516-2.533-.4-.272q.387-.632.778-1.258l.394.276q-.39.625-.776,1.254m1.563-2.5-.391-.281q.4-.623.8-1.241l.389.285q-.4.616-.8,1.237m1.613-2.464-.386-.289q.411-.614.828-1.223l.382.294q-.415.607-.825,1.218m1.663-2.426-.38-.3q.423-.6.853-1.2l.377.3q-.428.6-.85,1.2m1.712-2.388-.373-.307q.435-.594.877-1.183l.371.311q-.44.587-.875,1.179m1.762-2.346-.367-.316q.448-.584.9-1.162l.363.321q-.452.575-.9,1.157m1.811-2.3-.36-.324q.461-.573.928-1.14l.356.329q-.466.564-.924,1.135m1.861-2.258-.353-.334q.474-.561.953-1.116l.349.339q-.478.552-.949,1.112m1.911-2.212-.344-.342q.486-.55.978-1.092l.341.347q-.49.54-.975,1.087m1.961-2.161-.337-.352q.5-.537,1-1.066l.332.356q-.5.527-1,1.061m2.01-2.109-.328-.359q.512-.524,1.028-1.039l.324.365q-.514.514-1.024,1.034m2.055-2.051-.319-.369q.521-.507,1.049-1.007l.315.373q-.525.5-1.044,1m2.1-1.991-.31-.377q.534-.493,1.073-.978l.305.381q-.537.484-1.069.974m2.149-1.933-.3-.386q.545-.478,1.1-.948l.3.39q-.549.468-1.093.944m2.2-1.874-.292-.394q.559-.463,1.122-.918l.286.4q-.561.452-1.116.913m2.245-1.811-.282-.4q.57-.447,1.146-.886l.276.407q-.573.436-1.14.881m2.292-1.746-.27-.411q.582-.43,1.169-.852l.265.414q-.584.42-1.164.849m2.338-1.68-.259-.418q.593-.414,1.192-.818l.254.423q-.6.4-1.187.814m2.384-1.61-.248-.426q.6-.4,1.214-.783l.243.43q-.607.384-1.209.779m2.429-1.539-.237-.433q.615-.378,1.236-.746l.231.437q-.617.366-1.23.742m2.471-1.466-.225-.44q.625-.359,1.257-.708l.219.444q-.629.347-1.251.7m2.511-1.39-.212-.447q.635-.339,1.277-.669l.207.45q-.639.329-1.271.666m2.552-1.313-.2-.453q.644-.321,1.3-.63l.194.457q-.648.309-1.29.627m2.589-1.234-.187-.46q.65-.3,1.308-.587l.181.463q-.654.287-1.3.584m2.612-1.149-.174-.465q.659-.278,1.324-.546l.168.468q-.661.266-1.318.543m2.642-1.066-.162-.471q.667-.257,1.339-.5l.155.473q-.668.246-1.332.5m2.672-.983-.149-.475q.674-.236,1.352-.463l.142.478q-.676.225-1.345.46m2.7-.9-.136-.48q.68-.215,1.365-.42l.129.482q-.681.2-1.357.418m2.72-.815-.121-.484q.684-.194,1.375-.378l.115.486q-.687.183-1.369.376m2.743-.731-.109-.487q.689-.173,1.384-.335l.1.489q-.691.162-1.378.334" transform="translate(-60.025 -139.697)" fill="#601e1e"/>
          <path id="Trazado_882849" data-name="Trazado 882849" d="M318.245,376.182c0,8.449-10.127,24.194-11.746,24.194s-11.746-15.367-11.746-24.194c0-6.872,5.259-12.444,11.746-12.444s11.746,5.572,11.746,12.444" transform="translate(-155.452 -181.619)" fill="#3f2b43"/>
          <path id="Trazado_882850" data-name="Trazado 882850" d="M318.927,382.7a5.86,5.86,0,1,1-5.85-6.2,6.032,6.032,0,0,1,5.85,6.2" transform="translate(-162.03 -187.99)" fill="#fff"/>
          <path id="Trazado_882851" data-name="Trazado 882851" d="M312.814,388.894a6.459,6.459,0,0,1,0-12.9v.5a5.958,5.958,0,1,0,5.615,5.948h.473a6.283,6.283,0,0,1-6.087,6.448" transform="translate(-161.767 -187.74)" fill="#f7b556"/>
          <path id="Trazado_882852" data-name="Trazado 882852" d="M308.831,232.405c0,6.658-7.981,19.066-9.256,19.066s-9.256-12.11-9.256-19.066a9.272,9.272,0,1,1,18.513,0" transform="translate(-153.113 -111.147)" fill="#272164"/>
          <path id="Trazado_882853" data-name="Trazado 882853" d="M309.37,237.538a4.618,4.618,0,1,1-4.611-4.885,4.754,4.754,0,0,1,4.611,4.885" transform="translate(-158.298 -116.167)" fill="#fff"/>
          <path id="Trazado_882854" data-name="Trazado 882854" d="M304.5,242.424a5.143,5.143,0,0,1,0-10.27v.5a4.642,4.642,0,1,0,4.374,4.634h.473a5,5,0,0,1-4.847,5.135" transform="translate(-158.034 -115.918)" fill="#f7b556"/>
          <path id="Trazado_882855" data-name="Trazado 882855" d="M269.775,323.393c0,4.336-5.2,12.417-6.028,12.417s-6.029-7.887-6.029-12.417a6.039,6.039,0,1,1,12.057,0" transform="translate(-135.92 -158.285)" fill="#3f2b43"/>
          <path id="Trazado_882856" data-name="Trazado 882856" d="M270.126,326.735a3.008,3.008,0,1,1-3-3.181,3.1,3.1,0,0,1,3,3.181" transform="translate(-139.297 -161.555)" fill="#fff"/>
          <path id="Trazado_882857" data-name="Trazado 882857" d="M266.859,329.917a3.437,3.437,0,0,1,0-6.863v.5a2.936,2.936,0,1,0,2.766,2.931h.473a3.343,3.343,0,0,1-3.239,3.432" transform="translate(-139.032 -161.305)" fill="#f7b556"/>
          <path id="Trazado_882858" data-name="Trazado 882858" d="M439.414,196.748h0c37.331,0,67.594,32.061,67.594,71.61v71.61H439.414c-37.331,0-67.593-32.061-67.593-71.61h0c0-39.549,30.262-71.61,67.593-71.61" transform="translate(-196.097 -98.239)" fill="#496f93"/>
        </g>
      </g>
      <g id="Grupo_1099903" data-name="Grupo 1099903" transform="translate(175.724 98.509)">
        <g id="Grupo_1099902" data-name="Grupo 1099902" clip-path="url(#clip-path-5)">
          <path id="Trazado_883047" data-name="Trazado 883047" d="M0,0,30.672-.573,30.375,16-.3,16.576Z" transform="translate(37.347 39.75) rotate(-19.65)" fill="#0e7a6a"/>
          <path id="Trazado_883048" data-name="Trazado 883048" d="M0,0,30.569-.418l-.216,16.629-30.569.418Z" transform="matrix(0.971, -0.238, 0.238, 0.971, 35.896, 35.788)" fill="#148e79"/>
          <path id="Trazado_883049" data-name="Trazado 883049" d="M0,0,28.477-.39l-.19,14.626-28.477.39Z" transform="translate(37.093 36.414) rotate(-13.767)" fill="#1ac6a5"/>
          <path id="Trazado_882859" data-name="Trazado 882859" d="M498.371,254.36s-.013,6.086,7.007,4.264l-1.327-5.738Z" transform="translate(-438.563 -224.778)" fill="#148e79"/>
          <path id="Trazado_882860" data-name="Trazado 882860" d="M453.455,265.282s2.667,5.39-4.353,7.213l-1.327-5.739Z" transform="translate(-411.879 -230.968)" fill="#148e79"/>
          <path id="Trazado_882861" data-name="Trazado 882861" d="M459.9,293.051s.013-6.086-7.007-4.264l1.327,5.738Z" transform="translate(-414.58 -242.534)" fill="#148e79"/>
          <path id="Trazado_882862" data-name="Trazado 882862" d="M505.745,281s-2.667-5.39,4.353-7.213l1.327,5.739Z" transform="translate(-442.19 -235.214)" fill="#148e79"/>
          <path id="Trazado_882863" data-name="Trazado 882863" d="M472.4,271.094c.981,4.24,4.019,7.1,6.787,6.377s4.216-4.739,3.235-8.979-4.019-7.1-6.787-6.377-4.216,4.738-3.236,8.979" transform="translate(-424.704 -229.331)" fill="#148e79"/>
          <rect id="Rectángulo_401871" data-name="Rectángulo 401871" width="30.467" height="16.682" transform="translate(35.383 27.588)" fill="#0e7a6a"/>
          <rect id="Rectángulo_401872" data-name="Rectángulo 401872" width="28.382" height="14.673" transform="translate(36.426 28.517)" fill="#14b79d"/>
          <path id="Trazado_882864" data-name="Trazado 882864" d="M498.665,251.848s-1.38,5.908,5.848,5.908v-5.908Z" transform="translate(-438.663 -224.26)" fill="#0e7a6a"/>
          <path id="Trazado_882865" data-name="Trazado 882865" d="M452.538,251.848s1.379,5.908-5.848,5.908v-5.908Z" transform="translate(-411.307 -224.26)" fill="#0e7a6a"/>
          <path id="Trazado_882866" data-name="Trazado 882866" d="M452.538,279.274s1.379-5.908-5.848-5.908v5.908Z" transform="translate(-411.307 -235.004)" fill="#0e7a6a"/>
          <path id="Trazado_882867" data-name="Trazado 882867" d="M498.665,279.274s-1.38-5.908,5.848-5.908v5.908Z" transform="translate(-438.663 -235.004)" fill="#0e7a6a"/>
          <path id="Trazado_882868" data-name="Trazado 882868" d="M468.1,261.495c0,4.366,2.31,7.9,5.159,7.9s5.16-3.539,5.16-7.9-2.31-7.9-5.16-7.9-5.159,3.539-5.159,7.9" transform="translate(-422.598 -225.13)" fill="#0e7a6a"/>
          <path id="Trazado_882869" data-name="Trazado 882869" d="M477.436,263.256a2.188,2.188,0,0,1,.824.693,2.086,2.086,0,0,1,.352,1.276,2.252,2.252,0,0,1-.269,1.083,2.053,2.053,0,0,1-.831.816,2.773,2.773,0,0,1-1.374.314H476.1v.931h-.341v-.955a2.811,2.811,0,0,1-1.7-.728,2.322,2.322,0,0,1-.737-1.544h1.067a1.637,1.637,0,0,0,.4.915,1.569,1.569,0,0,0,.974.53v-2.982a11.8,11.8,0,0,1-1.314-.484,2.116,2.116,0,0,1-.813-.681,2.041,2.041,0,0,1-.346-1.247,2.067,2.067,0,0,1,.308-1.13,2.033,2.033,0,0,1,.868-.757,2.977,2.977,0,0,1,1.3-.268v-1h.341v1.014a2.555,2.555,0,0,1,1.628.664,2.334,2.334,0,0,1,.715,1.41H477.37a1.554,1.554,0,0,0-.4-.793,1.468,1.468,0,0,0-.869-.443v2.866a12.037,12.037,0,0,1,1.331.5m-2.711-1.189a3.07,3.07,0,0,0,1.039.571v-2.772a1.488,1.488,0,0,0-1.017.332,1.371,1.371,0,0,0-.022,1.87m2.447,4.159a1.345,1.345,0,0,0,.374-.978,1.224,1.224,0,0,0-.374-.956,3.023,3.023,0,0,0-1.067-.571v2.889h.011a1.4,1.4,0,0,0,1.056-.385" transform="translate(-425.335 -227.35)" fill="#14b79d"/>
          <path id="Trazado_882870" data-name="Trazado 882870" d="M502.918,261.345h-5.707s-9.479,3.239-10.854-7.288c0,0-14.713.219-14.217-4.7h13.453l-1.223-2.105-17.3-.232,18.012-4.838,12.3,9.815,5.536-.049Z" transform="translate(-422.056 -219.435)" fill="#ffd4c7"/>
          <path id="Trazado_882871" data-name="Trazado 882871" d="M492.912,256.84l-.338,2.012s.845-1.194.338-2.012" transform="translate(-435.506 -226.753)" fill="#e69261"/>
          <path id="Trazado_882872" data-name="Trazado 882872" d="M494.593,256.84l-.339,2.012s.845-1.194.339-2.012" transform="translate(-436.392 -226.753)" fill="#e69261"/>
          <path id="Trazado_882873" data-name="Trazado 882873" d="M496.353,256.84l-.338,2.012s.845-1.194.338-2.012" transform="translate(-437.321 -226.753)" fill="#e69261"/>
          <path id="Trazado_882874" data-name="Trazado 882874" d="M482.442,257.3s.372,2.911-3.555.759c0,0,3.42,1.531,3.555-.759" transform="translate(-428.287 -226.982)" fill="#e69261"/>
          <path id="Trazado_883045" data-name="Trazado 883045" d="M0,0H61.848V14.316H0Z" transform="translate(81.205 30.81)" fill="#cae2fb"/>
          <path id="Trazado_882875" data-name="Trazado 882875" d="M537.108,256.539l.756,14.765,8.637,1.247.571-16.86Z" transform="translate(-458.993 -226.179)" fill="#f5f0da"/>
          <path id="Trazado_882876" data-name="Trazado 882876" d="M539.708,258.1l.562,6.892,6.426.582.425-7.87Z" transform="translate(-460.364 -227.183)" fill="#f4dfa6"/>
          <path id="Trazado_882877" data-name="Trazado 882877" d="M509.7,342.659s-5.694.617-8.85-6.956l1.832-1.247Z" transform="translate(-439.868 -265.507)" fill="#f9c7bb"/>
          <path id="Trazado_882878" data-name="Trazado 882878" d="M483.428,328.4l-11.139,1.157a71.293,71.293,0,0,1-4.828,12.475s2.358.528,3.834-2.961l2.725-7.947Z" transform="translate(-422.261 -262.486)" fill="#f9c7bb"/>
          <path id="Trazado_882879" data-name="Trazado 882879" d="M513.13,339.633H501.736l-4.59,7.127-9.664,1.782s-1.782-4.455,6.964-5.345l2.021-4.181-5.593-5.084-8.6,1.256s-2.452,11.662-6.513,10.938l3.322-14.3,11.285-4.664,8.711,3.385,14.05-.178Z" transform="translate(-426.639 -261.864)" fill="#ffd4c7"/>
          <path id="Trazado_882880" data-name="Trazado 882880" d="M485.871,355.582a4.845,4.845,0,1,1-4.566,4.837,4.707,4.707,0,0,1,4.566-4.837" transform="translate(-429.563 -276.056)" fill="#ff8f1e"/>
          <path id="Trazado_882881" data-name="Trazado 882881" d="M487.2,358.1a3.584,3.584,0,1,1-3.377,3.578A3.482,3.482,0,0,1,487.2,358.1" transform="translate(-430.889 -277.312)" fill="#f7b556"/>
          <path id="Trazado_882882" data-name="Trazado 882882" d="M487.337,327.16l-12.5,2.673L470.014,343.2s5.684.954,6.037-11.372c0,0,8.258-.923,11.286-4.664" transform="translate(-423.608 -261.864)" fill="#f9c7bb"/>
          <path id="Trazado_883046" data-name="Trazado 883046" d="M0,0H61.568V14.9H0Z" transform="translate(81.492 65.176)" fill="#7ab8f5"/>
          <path id="Trazado_882883" data-name="Trazado 882883" d="M537.93,340.992l.731-15.364,8.353-1.3.552,17.544Z" transform="translate(-459.426 -260.452)" fill="#f5f0da"/>
          <path id="Trazado_882884" data-name="Trazado 882884" d="M540.444,348.7l.543-7.171,6.215-.606.411,8.189Z" transform="translate(-460.752 -268.736)" fill="#f4dfa6"/>
          <path id="Trazado_882885" data-name="Trazado 882885" d="M511.679,365.821l-.643-1.848s.914.982.643,1.848" transform="translate(-445.243 -280.246)" fill="#e69261"/>
          <path id="Trazado_882886" data-name="Trazado 882886" d="M513.068,365.54l-.644-1.848s.914.982.644,1.848" transform="translate(-445.975 -280.105)" fill="#e69261"/>
          <path id="Trazado_882887" data-name="Trazado 882887" d="M514.521,365.247l-.644-1.848s.914.982.644,1.848" transform="translate(-446.741 -279.959)" fill="#e69261"/>
          <path id="Trazado_882888" data-name="Trazado 882888" d="M503.2,367.1s-.219-2.825-3.073-.091c0,0,2.547-2.056,3.073.091" transform="translate(-439.488 -281.164)" fill="#e69261"/>
          <path id="Trazado_882889" data-name="Trazado 882889" d="M479.1,351.419l1.518.827s-.75-.992-1.518-.827" transform="translate(-428.398 -273.968)" fill="#e69261"/>
          <path id="Trazado_882890" data-name="Trazado 882890" d="M479.491,350.184l1.518.827s-.75-.992-1.518-.827" transform="translate(-428.606 -273.351)" fill="#e69261"/>
          <path id="Trazado_882891" data-name="Trazado 882891" d="M479.9,348.892l1.518.827s-.75-.992-1.518-.827" transform="translate(-428.823 -272.706)" fill="#e69261"/>
          <path id="Trazado_882892" data-name="Trazado 882892" d="M483.549,338.615l1.715,1.459s-.759-1.466-1.715-1.459" transform="translate(-430.746 -267.584)" fill="#e69261"/>
          <path id="Trazado_882893" data-name="Trazado 882893" d="M477.677,333.754l1.715,1.459s-.759-1.466-1.715-1.459" transform="translate(-427.649 -265.157)" fill="#e69261"/>
          <path id="Trazado_882894" data-name="Trazado 882894" d="M484.224,337.134l1.715,1.459s-.759-1.466-1.715-1.459" transform="translate(-431.102 -266.845)" fill="#e69261"/>
          <path id="Trazado_882895" data-name="Trazado 882895" d="M478.713,332.3l1.715,1.459s-.759-1.466-1.715-1.459" transform="translate(-428.195 -264.429)" fill="#e69261"/>
          <path id="Trazado_882896" data-name="Trazado 882896" d="M484.931,335.585l1.715,1.459s-.758-1.466-1.715-1.459" transform="translate(-431.475 -266.071)" fill="#e69261"/>
          <path id="Trazado_882897" data-name="Trazado 882897" d="M480.5,330.84l1.715,1.459s-.759-1.466-1.715-1.459" transform="translate(-429.136 -263.702)" fill="#e69261"/>
          <path id="Trazado_882898" data-name="Trazado 882898" d="M478.152,356.466s2.4.526-.23,2.979c0,0,2.017-2.231.23-2.979" transform="translate(-427.778 -276.497)" fill="#e69261"/>
          <path id="Trazado_882899" data-name="Trazado 882899" d="M474.534,346.736l1.358,1.1s-.574-1.116-1.358-1.1" transform="translate(-425.992 -271.639)" fill="#e69261"/>
          <path id="Trazado_882900" data-name="Trazado 882900" d="M475.138,345.589l1.358,1.1s-.574-1.116-1.358-1.1" transform="translate(-426.31 -271.066)" fill="#e69261"/>
          <path id="Trazado_882901" data-name="Trazado 882901" d="M475.771,344.389l1.358,1.1s-.574-1.115-1.358-1.1" transform="translate(-426.644 -270.467)" fill="#e69261"/>
          <path id="Trazado_882902" data-name="Trazado 882902" d="M472.172,351.566s2.274.963-.719,2.89c0,0,2.355-1.823.719-2.89" transform="translate(-424.367 -274.051)" fill="#e69261"/>
          <path id="Trazado_882903" data-name="Trazado 882903" d="M478.7,341.917l1.892-8.764,9.224-2.438-8.825,2.838Z" transform="translate(-428.19 -263.639)" fill="#e69261"/>
          <path id="Trazado_882904" data-name="Trazado 882904" d="M489.185,361.942a1.371,1.371,0,0,1,.481.495,1.8,1.8,0,0,1,.233.773h.526v.447H489.9a1.889,1.889,0,0,1-.383,1.045,1.049,1.049,0,0,1-.856.4v-.839a.68.68,0,0,0,.418-.172.717.717,0,0,0,.211-.433h-1.427a5.875,5.875,0,0,1-.224.749,1.189,1.189,0,0,1-.36.492,1.031,1.031,0,0,1-.675.2,1.141,1.141,0,0,1-.892-.4,1.766,1.766,0,0,1-.412-1.045h-.526v-.447h.526a1.7,1.7,0,0,1,.36-.972,1.194,1.194,0,0,1,.847-.416v.839a.618.618,0,0,0-.361.165.741.741,0,0,0-.217.384h1.4a5.368,5.368,0,0,1,.217-.749,1.177,1.177,0,0,1,.357-.488,1.027,1.027,0,0,1,.671-.2,1.175,1.175,0,0,1,.61.169m-2.206,2.192a1.237,1.237,0,0,0,.241-.478h-1.311a.781.781,0,0,0,.2.471.6.6,0,0,0,.454.175.524.524,0,0,0,.415-.169m2.079-1.4a.629.629,0,0,0-.444-.172.507.507,0,0,0-.405.168,1.276,1.276,0,0,0-.237.478h1.317a.782.782,0,0,0-.23-.474" transform="translate(-431.392 -279.147)" fill="#ff8f1e"/>
          <path id="Trazado_882905" data-name="Trazado 882905" d="M499.7,408.311h-7.955l-3.879-3.616-15.02-.49-3.078,18h20.042l3.153-2.2H499.7Z" transform="translate(-423.477 -300.334)" fill="#ffd4c7"/>
          <path id="Trazado_882906" data-name="Trazado 882906" d="M482.2,410.452l-2.14,11.454a5.488,5.488,0,0,1-6.425,4.557l-1.689-.354a5.788,5.788,0,0,1-4.3-6.807l2.14-11.454a5.488,5.488,0,0,1,6.425-4.557l1.689.354a5.787,5.787,0,0,1,4.3,6.806" transform="translate(-422.304 -299.822)" fill="#4a7094"/>
          <path id="Trazado_883050" data-name="Trazado 883050" d="M0,0,23.211-.249l-.022,1.921L-.022,1.921Z" transform="translate(46.366 125.599) rotate(-78.803)" fill="#3f4d54"/>
          <path id="Trazado_882907" data-name="Trazado 882907" d="M481.219,419.913l-2.262,12.107a.517.517,0,0,1-.6.429l-.074-.016a.546.546,0,0,1-.4-.64l2.262-12.107a.517.517,0,0,1,.6-.428l.074.016a.545.545,0,0,1,.4.639" transform="translate(-427.748 -307.845)" fill="#fffaef"/>
          <path id="Trazado_882908" data-name="Trazado 882908" d="M485.712,427.942l-1.606,8.6a.517.517,0,0,1-.6.428l-.074-.016a.546.546,0,0,1-.4-.639l1.606-8.6a.517.517,0,0,1,.6-.428l.074.015a.545.545,0,0,1,.4.639" transform="translate(-430.464 -311.854)" fill="#92b2d1"/>
          <path id="Trazado_882909" data-name="Trazado 882909" d="M489.722,428.736l-1.606,8.6a.517.517,0,0,1-.6.428l-.074-.015a.545.545,0,0,1-.4-.639l1.606-8.6a.517.517,0,0,1,.6-.428l.074.015a.546.546,0,0,1,.4.64" transform="translate(-432.579 -312.25)" fill="#92b2d1"/>
          <path id="Trazado_882910" data-name="Trazado 882910" d="M491.576,408.459a1.605,1.605,0,0,1,1.193,1.889,1.523,1.523,0,0,1-1.783,1.265,1.606,1.606,0,0,1-1.193-1.889,1.523,1.523,0,0,1,1.783-1.265" transform="translate(-434.024 -302.443)" fill="#f7b556"/>
          <path id="Trazado_882911" data-name="Trazado 882911" d="M497.254,428.871l-7.973,9.518H477.906s.951-4.342,9.441-3.451c0,0-6.122-10.193,8.112-12.985Z" transform="translate(-427.77 -309.195)" fill="#ffd4c7"/>
          <path id="Trazado_882912" data-name="Trazado 882912" d="M460.884,419.6l8.023,4.553s1.487-2.758-1.478-5.305-4.1-2.128-6.545.752" transform="translate(-418.793 -306.807)" fill="#ffd4c7"/>
          <path id="Trazado_882913" data-name="Trazado 882913" d="M462.3,412l8.7,4.962s1.168-2.826-1.8-5.373-4.457-2.469-6.9.412" transform="translate(-419.54 -303.104)" fill="#ffd4c7"/>
          <path id="Trazado_882914" data-name="Trazado 882914" d="M466.074,404.8l8.7,4.962s1.168-2.826-1.8-5.373-4.457-2.469-6.9.412" transform="translate(-421.53 -299.51)" fill="#ffd4c7"/>
          <path id="Trazado_882915" data-name="Trazado 882915" d="M459.14,426.773l6.9,4.362s2.166-2.594-.843-5.081c-2.71-2.241-4.081-2.543-6.053.718" transform="translate(-417.873 -310.391)" fill="#ffd4c7"/>
          <rect id="Rectángulo_401876" data-name="Rectángulo 401876" width="66.84" height="16.037" transform="translate(76.221 105.838)" fill="#f2f8fe"/>
          <path id="Trazado_882916" data-name="Trazado 882916" d="M526.776,423.28l.731-16.54,8.353-1.4.552,18.887Z" transform="translate(-453.544 -300.902)" fill="#f5f0da"/>
          <path id="Trazado_882917" data-name="Trazado 882917" d="M529.29,431.577l.543-7.721,6.215-.652.411,8.816Z" transform="translate(-454.87 -309.821)" fill="#f4dfa6"/>
          <path id="Trazado_882918" data-name="Trazado 882918" d="M498.961,417.674s-5.7,4.59-3.116,11.353c0,0-.975-.778-1.256-3.867h-.571l2.769-15.044s.35,5.212,2.173,7.558" transform="translate(-436.267 -303.285)" fill="#ffb9a9"/>
          <path id="Trazado_882919" data-name="Trazado 882919" d="M491.794,452.842l-.3-1.943s.723,1.147.3,1.943" transform="translate(-434.935 -323.649)" fill="#e69261"/>
          <path id="Trazado_882920" data-name="Trazado 882920" d="M493.21,452.828l-.3-1.943s.723,1.147.3,1.943" transform="translate(-435.681 -323.642)" fill="#e69261"/>
          <path id="Trazado_882921" data-name="Trazado 882921" d="M494.693,452.814l-.3-1.943s.723,1.147.3,1.943" transform="translate(-436.463 -323.635)" fill="#e69261"/>
          <path id="Trazado_882922" data-name="Trazado 882922" d="M482.983,452.906s.288-2.818-3-.7c0,0,2.867-1.511,3,.7" transform="translate(-428.864 -323.907)" fill="#e69261"/>
          <path id="Trazado_882923" data-name="Trazado 882923" d="M463.683,430.769l1.1-1.383s-1.08.553-1.1,1.383" transform="translate(-420.269 -312.907)" fill="#e69261"/>
          <path id="Trazado_882924" data-name="Trazado 882924" d="M468.46,433.675s1.019-2.36,2.69.9c0,0-1.6-2.581-2.69-.9" transform="translate(-422.788 -314.637)" fill="#e69261"/>
          <path id="Trazado_882925" data-name="Trazado 882925" d="M467.214,423.885l1.1-1.383s-1.08.553-1.1,1.383" transform="translate(-422.131 -309.47)" fill="#e69261"/>
          <path id="Trazado_882926" data-name="Trazado 882926" d="M466.1,423.226l1.1-1.383s-1.08.553-1.1,1.383" transform="translate(-421.542 -309.141)" fill="#e69261"/>
          <path id="Trazado_882927" data-name="Trazado 882927" d="M464.93,422.535l1.1-1.383s-1.08.553-1.1,1.383" transform="translate(-420.926 -308.796)" fill="#e69261"/>
          <path id="Trazado_882928" data-name="Trazado 882928" d="M471.991,426.792s1.019-2.36,2.69.9c0,0-1.6-2.581-2.69-.9" transform="translate(-424.65 -311.2)" fill="#e69261"/>
          <path id="Trazado_882929" data-name="Trazado 882929" d="M468.439,416.444l1.1-1.383s-1.08.553-1.1,1.383" transform="translate(-422.777 -305.754)" fill="#e69261"/>
          <path id="Trazado_882930" data-name="Trazado 882930" d="M467.323,415.785l1.1-1.383s-1.08.553-1.1,1.383" transform="translate(-422.188 -305.425)" fill="#e69261"/>
          <path id="Trazado_882931" data-name="Trazado 882931" d="M466.155,415.094l1.1-1.383s-1.08.553-1.1,1.383" transform="translate(-421.572 -305.08)" fill="#e69261"/>
          <path id="Trazado_882932" data-name="Trazado 882932" d="M473.59,410.085l1.1-1.383s-1.08.553-1.1,1.383" transform="translate(-425.494 -302.579)" fill="#e69261"/>
          <path id="Trazado_882933" data-name="Trazado 882933" d="M472.474,409.425l1.1-1.383s-1.08.553-1.1,1.383" transform="translate(-424.905 -302.25)" fill="#e69261"/>
          <path id="Trazado_882934" data-name="Trazado 882934" d="M471.306,408.735l1.1-1.383s-1.08.553-1.1,1.383" transform="translate(-424.289 -301.905)" fill="#e69261"/>
          <path id="Trazado_882935" data-name="Trazado 882935" d="M474.275,418.676s1.019-2.36,2.69.9c0,0-1.6-2.581-2.69-.9" transform="translate(-425.855 -307.148)" fill="#e69261"/>
          <path id="Trazado_882936" data-name="Trazado 882936" d="M478.338,412.435s1.019-2.36,2.69.9c0,0-1.6-2.581-2.69-.9" transform="translate(-427.998 -304.032)" fill="#e69261"/>
          <path id="Trazado_882937" data-name="Trazado 882937" d="M462.769,430.171l.982-1.235s-.964.494-.982,1.235" transform="translate(-419.787 -312.683)" fill="#e69261"/>
          <path id="Trazado_882938" data-name="Trazado 882938" d="M461.727,429.555l.982-1.235s-.964.494-.982,1.235" transform="translate(-419.237 -312.375)" fill="#e69261"/>
        </g>
      </g>
      <g id="Grupo_1099911" data-name="Grupo 1099911">
        <g id="Grupo_1099910" data-name="Grupo 1099910" clip-path="url(#clip-path-3)">
          <rect id="Rectángulo_401877" data-name="Rectángulo 401877" width="80.079" height="64.539" transform="translate(79.447 242.916)" fill="#daaf6a"/>
          <path id="Trazado_882940" data-name="Trazado 882940" d="M160.846,542.8l-6.5-6.6V471.338l6.5,6.9Z" transform="translate(-81.4 -235.345)" fill="#c28b4f"/>
          <path id="Trazado_882941" data-name="Trazado 882941" d="M154.342,471.337l6.534,6.925h80.05l-6.227-6.925Z" transform="translate(-81.4 -235.345)" fill="#c28b4f"/>
          <rect id="Rectángulo_401878" data-name="Rectángulo 401878" width="12.136" height="64.539" transform="translate(138.61 242.916)" fill="#ffd398"/>
          <path id="Trazado_882942" data-name="Trazado 882942" d="M278.543,471.337l6.969,6.925h12.138l-6.969-6.925Z" transform="translate(-146.902 -235.345)" fill="#daaf6a"/>
          <rect id="Rectángulo_401879" data-name="Rectángulo 401879" width="12.136" height="64.539" transform="translate(86.854 242.916)" fill="#ffd398"/>
          <path id="Trazado_882943" data-name="Trazado 882943" d="M169.03,471.337,176,478.262h12.138l-6.969-6.925Z" transform="translate(-89.146 -235.345)" fill="#daaf6a"/>
          <rect id="Rectángulo_401880" data-name="Rectángulo 401880" width="52.457" height="42.277" transform="translate(150.594 265.176)" fill="#daaf6a"/>
          <path id="Trazado_882944" data-name="Trazado 882944" d="M313.893,567.381l-4.26-4.32V520.568l4.26,4.521Z" transform="translate(-163.299 -259.926)" fill="#c28b4f"/>
          <path id="Trazado_882945" data-name="Trazado 882945" d="M309.632,520.567l4.28,4.536H366.35l-4.079-4.536Z" transform="translate(-163.299 -259.926)" fill="#c28b4f"/>
          <rect id="Rectángulo_401881" data-name="Rectángulo 401881" width="7.95" height="42.277" transform="translate(189.35 265.176)" fill="#ffd398"/>
          <path id="Trazado_882946" data-name="Trazado 882946" d="M390.991,520.567l4.565,4.536h7.951l-4.565-4.536Z" transform="translate(-206.207 -259.926)" fill="#daaf6a"/>
          <rect id="Rectángulo_401882" data-name="Rectángulo 401882" width="7.95" height="42.277" transform="translate(155.446 265.176)" fill="#ffd398"/>
          <path id="Trazado_882947" data-name="Trazado 882947" d="M319.254,520.567l4.565,4.536h7.951l-4.565-4.536Z" transform="translate(-168.373 -259.926)" fill="#daaf6a"/>
          <rect id="Rectángulo_401883" data-name="Rectángulo 401883" width="43.251" height="34.858" transform="translate(86.106 202.022)" fill="#daaf6a"/>
          <path id="Trazado_882948" data-name="Trazado 882948" d="M178.275,434.62l-3.512-3.562V396.021l3.512,3.728Z" transform="translate(-92.169 -197.739)" fill="#c28b4f"/>
          <path id="Trazado_882949" data-name="Trazado 882949" d="M174.762,396.021l3.529,3.74h43.236l-3.363-3.74Z" transform="translate(-92.169 -197.738)" fill="#c28b4f"/>
          <rect id="Rectángulo_401884" data-name="Rectángulo 401884" width="6.555" height="34.858" transform="translate(118.061 202.022)" fill="#ffd398"/>
          <path id="Trazado_882950" data-name="Trazado 882950" d="M241.844,396.021l3.764,3.74h6.555l-3.763-3.74Z" transform="translate(-127.548 -197.738)" fill="#daaf6a"/>
          <rect id="Rectángulo_401885" data-name="Rectángulo 401885" width="6.555" height="34.858" transform="translate(90.107 202.022)" fill="#ffd398"/>
          <path id="Trazado_882951" data-name="Trazado 882951" d="M182.7,396.021l3.764,3.74h6.555l-3.764-3.74Z" transform="translate(-96.353 -197.738)" fill="#daaf6a"/>
          <rect id="Rectángulo_401886" data-name="Rectángulo 401886" width="31.357" height="25.272" transform="translate(159.796 238.271)" fill="#daaf6a"/>
          <path id="Trazado_882952" data-name="Trazado 882952" d="M335.276,498.458l-2.546-2.583v-25.4l2.546,2.7Z" transform="translate(-175.481 -234.914)" fill="#c28b4f"/>
          <path id="Trazado_882953" data-name="Trazado 882953" d="M332.73,470.474l2.558,2.711h31.345l-2.438-2.711Z" transform="translate(-175.48 -234.914)" fill="#c28b4f"/>
          <rect id="Rectángulo_401887" data-name="Rectángulo 401887" width="4.752" height="25.272" transform="translate(182.962 238.271)" fill="#ffd398"/>
          <path id="Trazado_882954" data-name="Trazado 882954" d="M381.363,470.474l2.729,2.711h4.752l-2.728-2.711Z" transform="translate(-201.129 -234.914)" fill="#daaf6a"/>
          <rect id="Rectángulo_401888" data-name="Rectángulo 401888" width="4.752" height="25.272" transform="translate(162.696 238.271)" fill="#ffd398"/>
          <path id="Trazado_882955" data-name="Trazado 882955" d="M338.481,470.474l2.729,2.711h4.753l-2.728-2.711Z" transform="translate(-178.514 -234.914)" fill="#daaf6a"/>
          <rect id="Rectángulo_401889" data-name="Rectángulo 401889" width="31.357" height="25.272" transform="translate(205.598 282.154)" fill="#daaf6a"/>
          <path id="Trazado_882956" data-name="Trazado 882956" d="M432.19,586.1l-2.546-2.583v-25.4l2.546,2.7Z" transform="translate(-226.593 -278.677)" fill="#c28b4f"/>
          <path id="Trazado_882957" data-name="Trazado 882957" d="M429.643,558.12l2.558,2.711h31.345l-2.439-2.711Z" transform="translate(-226.592 -278.676)" fill="#c28b4f"/>
          <rect id="Rectángulo_401890" data-name="Rectángulo 401890" width="4.752" height="25.272" transform="translate(228.764 282.154)" fill="#ffd398"/>
          <path id="Trazado_882958" data-name="Trazado 882958" d="M478.276,558.12l2.729,2.711h4.752l-2.728-2.711Z" transform="translate(-252.241 -278.676)" fill="#daaf6a"/>
          <rect id="Rectángulo_401891" data-name="Rectángulo 401891" width="4.752" height="25.272" transform="translate(208.498 282.154)" fill="#ffd398"/>
          <path id="Trazado_882959" data-name="Trazado 882959" d="M435.394,558.12l2.729,2.711h4.753l-2.728-2.711Z" transform="translate(-229.625 -278.676)" fill="#daaf6a"/>
          <path id="Trazado_882960" data-name="Trazado 882960" d="M54.951,574.484l.929,7.818h9.412l.547-8.228Z" transform="translate(-28.981 -286.643)" fill="#ff9f9c"/>
          <path id="Trazado_882961" data-name="Trazado 882961" d="M108.194,572.091l1.144,9.085h9.411l-.363-9.356Z" transform="translate(-57.061 -285.517)" fill="#ff9f9c"/>
          <path id="Trazado_882962" data-name="Trazado 882962" d="M139.388,603.491h-35.6a5.518,5.518,0,0,1-.468-2.094c-.223-3.19.737-8.281,1.208-11.491.057-.375.106-.725.144-1.042a11.672,11.672,0,0,0,.106-1.311c0-2.62,2.189-2.171,2.189-2.171,3.6,3.742,7.681-1.87,10.063-.029,0,0,1.026.779,3.852,3.473s7.632,4.472,11.724,6.286c5.282,2.339,6.78,4.676,7.073,6.286a3.092,3.092,0,0,1-.293,2.094" transform="translate(-54.474 -292.084)" fill="#242c2e"/>
          <path id="Trazado_882963" data-name="Trazado 882963" d="M139.425,619.872h-35.6a5.518,5.518,0,0,1-.468-2.094h36.358a3.092,3.092,0,0,1-.293,2.094" transform="translate(-54.511 -308.465)" fill="#3d5481"/>
          <path id="Trazado_882964" data-name="Trazado 882964" d="M108.807,607.374H107.75a8.582,8.582,0,0,0,1.913-6.039,10.815,10.815,0,0,0-3.748-7.547c.057-.375.106-.725.144-1.042a11.705,11.705,0,0,1,4.451,8.544,9.526,9.526,0,0,1-1.7,6.084" transform="translate(-55.859 -295.966)" fill="#3d5481"/>
          <path id="Trazado_882965" data-name="Trazado 882965" d="M138.587,595.291a.594.594,0,0,1-.569-.472.624.624,0,0,1,.428-.752l2.224-.585a.585.585,0,0,1,.711.453.625.625,0,0,1-.428.753l-2.224.585a.549.549,0,0,1-.142.019" transform="translate(-72.781 -296.324)" fill="#3d5481"/>
          <path id="Trazado_882966" data-name="Trazado 882966" d="M133.911,591.373a.6.6,0,0,1-.569-.472.624.624,0,0,1,.428-.753l2.224-.585a.585.585,0,0,1,.711.453.625.625,0,0,1-.428.753l-2.224.585a.557.557,0,0,1-.142.018" transform="translate(-70.315 -294.367)" fill="#3d5481"/>
          <path id="Trazado_882967" data-name="Trazado 882967" d="M143.292,598.026a.6.6,0,0,1-.569-.472.625.625,0,0,1,.428-.753l2.224-.585a.585.585,0,0,1,.711.454.625.625,0,0,1-.428.753l-2.224.585a.554.554,0,0,1-.142.019" transform="translate(-75.262 -297.689)" fill="#3d5481"/>
          <path id="Trazado_882968" data-name="Trazado 882968" d="M148,600.655a.6.6,0,0,1-.569-.472.625.625,0,0,1,.428-.752l2.224-.585a.585.585,0,0,1,.711.453.625.625,0,0,1-.428.753l-2.224.585a.554.554,0,0,1-.142.019" transform="translate(-77.744 -299.002)" fill="#3d5481"/>
          <path id="Trazado_882969" data-name="Trazado 882969" d="M153.128,603.086a.6.6,0,0,1-.569-.472.624.624,0,0,1,.428-.752l2.224-.585a.585.585,0,0,1,.711.453.625.625,0,0,1-.428.753l-2.224.585a.56.56,0,0,1-.142.019" transform="translate(-80.45 -300.216)" fill="#3d5481"/>
          <path id="Trazado_882970" data-name="Trazado 882970" d="M158.691,605.16a.6.6,0,0,1-.569-.472.625.625,0,0,1,.428-.753l2.224-.585a.584.584,0,0,1,.711.454.624.624,0,0,1-.428.753l-2.224.585a.554.554,0,0,1-.142.019" transform="translate(-83.384 -301.251)" fill="#3d5481"/>
          <path id="Trazado_882971" data-name="Trazado 882971" d="M21.737,277.555a16.953,16.953,0,0,0,.182,2.069l.011.044q.223.763.491,1.464c1.595,4.136,13.918,4.742,26.05,3.3,9.41-1.115,18.7-3.462,22.786-6.349,3.832-2.71-4.33-27.72-4.33-27.72l-47.45,10.551a111.581,111.581,0,0,1,2.26,16.637" transform="translate(-10.272 -125.012)" fill="#6293c4"/>
          <path id="Trazado_882972" data-name="Trazado 882972" d="M110.272,360.844l-3.764,72.214-13.551.435s-4.962-53.314-3.227-64.915l-7.251-63.153L82.3,303.8l17.4-8.491,1.086-.531,4.432-2.162c.038.379.075.756.112,1.135q.213,2.121.417,4.224c.043.424.082.845.126,1.265,2.184,22.493,3.794,43.452,4.356,60.31.015.434.028.864.041,1.291h0" transform="translate(-43.405 -146.109)" fill="#6293c4"/>
          <path id="Trazado_882973" data-name="Trazado 882973" d="M130.553,427.2a27.592,27.592,0,0,1-2.789.133,41.873,41.873,0,0,1-6.5-.541.641.641,0,0,1-.5-.742.607.607,0,0,1,.7-.53,38.49,38.49,0,0,0,9.05.389c.015.434.028.864.041,1.291" transform="translate(-63.686 -212.461)" fill="#92b2d1"/>
          <path id="Trazado_882974" data-name="Trazado 882974" d="M87.516,319.3l8.122,65.668c-.249,1.446-2.843,18.023,1.309,55.849.043.378.084.762.127,1.146l1.136-.01c-.043-.384-.084-.765-.127-1.146-4.328-39.309-1.352-55.54-1.32-55.7a.636.636,0,0,0,.006-.2l-8.131-65.763a.573.573,0,0,0-.634-.515.6.6,0,0,0-.487.672" transform="translate(-46.153 -159.091)" fill="#92b2d1"/>
          <path id="Trazado_882975" data-name="Trazado 882975" d="M103.886,563.157a.549.549,0,0,0,.52.569l1.3-.012,1.136-.01,10.826-.093a.285.285,0,0,0,.043,0,.545.545,0,0,0,.458-.575.552.552,0,0,0-.52-.571l-10.935.1-1.136.01-1.194.01a.542.542,0,0,0-.5.579" transform="translate(-54.789 -280.844)" fill="#2c2493"/>
          <path id="Trazado_882976" data-name="Trazado 882976" d="M108.76,275.821c.054.309,1.167,6.421,4.892,10.751a13.327,13.327,0,0,0,2.59,2.343,10.675,10.675,0,0,0,2.4,1.234,9.357,9.357,0,0,0,1.18.353c-.041-.421-.081-.842-.124-1.264-.19-.052-.379-.11-.565-.176a9.658,9.658,0,0,1-2.283-1.153,11.768,11.768,0,0,1-2.114-1.869c-3.717-4.116-4.855-10.366-4.868-10.439a.568.568,0,0,0-.659-.479.6.6,0,0,0-.452.7" transform="translate(-57.355 -137.367)" fill="#92b2d1"/>
          <path id="Trazado_882977" data-name="Trazado 882977" d="M85.978,287.2a.48.48,0,0,1-.444.5h0a.473.473,0,0,1-.492-.457c-.083-1.8-.183-3.65-.293-5.494-.019-.325-.038-.649-.059-.974-.371-6.027-.84-11.944-1.195-16.121-.029-.337-.056-.665-.084-.98-.079-.917-.151-1.73-.212-2.418.312-.051.624-.1.932-.16.061.688.133,1.509.213,2.435.028.314.055.642.085.98.351,4.141.818,10.006,1.188,16,.021.33.041.662.062.993.113,1.911.217,3.827.3,5.693" transform="translate(-43.877 -130.374)" fill="#92b2d1"/>
          <path id="Trazado_882978" data-name="Trazado 882978" d="M83.049,281.438a11.911,11.911,0,0,1-1.644.667,9.119,9.119,0,0,1-.93.248,6.342,6.342,0,0,1-.891.123,3.084,3.084,0,0,1-1.578-.262,2.028,2.028,0,0,1-1.071-1.522c-.343-1.859-1.061-9.537-1.544-14.967-.031-.333-.06-.66-.087-.976-.077-.868-.145-1.658-.2-2.33.311-.04.624-.08.936-.124.059.675.128,1.475.207,2.355.028.314.057.64.086.976.485,5.416,1.2,13.082,1.532,14.884a1.069,1.069,0,0,0,.567.841,3.143,3.143,0,0,0,1.988.028,9.518,9.518,0,0,0,.927-.267,10.693,10.693,0,0,0,1.291-.536.465.465,0,0,1,.63.217.488.488,0,0,1-.215.645" transform="translate(-39.607 -130.967)" fill="#92b2d1"/>
          <path id="Trazado_882979" data-name="Trazado 882979" d="M50.138,294.275V428.464L50,430.589H36.031c-.742-4.785-6-24.147-6.724-40.285-.786-17.371-.567-39.879-.567-39.879-1.478-11.961-3.732-36.834-5.046-51.812-.034-.4-.069-.8-.1-1.184a.2.2,0,0,1-.006-.046.031.031,0,0,0,0-.012c-.032-.391-.066-.769-.1-1.14-.518-5.945-.846-9.824-.846-9.824,2.165-.954,6.025-.355,10.181.851q.55.161,1.1.331c.695.216,1.393.448,2.089.686.369.129.734.258,1.1.389a132.723,132.723,0,0,1,13.028,5.61" transform="translate(-11.939 -142.772)" fill="#6293c4"/>
          <path id="Trazado_882980" data-name="Trazado 882980" d="M70.012,422.05v1.3c-.895.088-1.8.123-2.682.123a41.522,41.522,0,0,1-6.5-.543.641.641,0,0,1-.5-.742.61.61,0,0,1,.7-.529,38.419,38.419,0,0,0,8.985.395" transform="translate(-31.813 -210.534)" fill="#92b2d1"/>
          <path id="Trazado_882981" data-name="Trazado 882981" d="M35.322,364.483c-.034,1.386-.8,33.947.84,45.711,1.2,8.622,3.534,22.006,4.751,28.833.071.407.14.789.2,1.146l.515,0,.633-.006c-.064-.355-.131-.738-.2-1.144-1.2-6.75-3.57-20.306-4.778-29-1.649-11.856-.837-45.213-.828-45.548,0-.03,0-.058,0-.085-1.239-11.158-3.773-49.677-3.8-50.065a.578.578,0,0,0-.6-.555.588.588,0,0,0-.524.638c.024.387,2.553,38.837,3.8,50.079" transform="translate(-16.625 -156.667)" fill="#92b2d1"/>
          <path id="Trazado_882982" data-name="Trazado 882982" d="M48.826,564.42a.565.565,0,0,0,.552.569l.863-.008.515,0,.633-.006.571,0,11.459-.093a.3.3,0,0,0,.045,0,.554.554,0,0,0,.487-.575.567.567,0,0,0-.552-.571l-11.573.1-.64.006-.563,0-.582,0-.681.006a.555.555,0,0,0-.532.579" transform="translate(-25.751 -281.475)" fill="#2c2493"/>
          <path id="Trazado_882983" data-name="Trazado 882983" d="M61.28,599.855c0,.089,0,.177,0,.263-.009.4-.025.757-.041,1.065-.038.676-.085,1.093-.085,1.093h-21.2a13.1,13.1,0,0,1-.025-2.158c.139-2.3.859-5.921,3.787-8.317,4.009-3.283,2.461-2.6,3.283-4.095.093-.167.814-2.709.891-2.884.689-1.555,1.324-2.289,5.123-2.289,5.039,0,5.482,2.59,6.02,3.954a26.554,26.554,0,0,1,.838,3.171c.127.568.254,1.174.379,1.792.31,1.548.6,3.164.8,4.454a24.743,24.743,0,0,1,.238,3.952" transform="translate(-21.039 -290.866)" fill="#242c2e"/>
          <path id="Trazado_882984" data-name="Trazado 882984" d="M82.146,606.939c0,.09,0,.177,0,.263-.009.4-.025.758-.041,1.066a6.242,6.242,0,0,1-2.2-3.026c-1.312-3.786.706-8.329.79-8.522l.042.022c.127.568.254,1.174.379,1.792a10.79,10.79,0,0,0-.264,6.344,5.252,5.252,0,0,0,1.3,2.062" transform="translate(-41.905 -297.95)" fill="#3d5481"/>
          <path id="Trazado_882985" data-name="Trazado 882985" d="M61.276,617.655c-.028,1.279-.125,2.158-.125,2.158h-21.2a13.068,13.068,0,0,1-.024-2.158Z" transform="translate(-21.039 -308.403)" fill="#3d5481"/>
          <path id="Trazado_882986" data-name="Trazado 882986" d="M62.611,594.86a.544.544,0,0,1-.152-.021,9.916,9.916,0,0,0-4.916-.107.6.6,0,0,1-.744-.447.646.646,0,0,1,.422-.788,10.991,10.991,0,0,1,5.541.1.644.644,0,0,1,.434.781.612.612,0,0,1-.585.48" transform="translate(-29.944 -296.191)" fill="#3d5481"/>
          <path id="Trazado_882987" data-name="Trazado 882987" d="M63.311,590.025a.572.572,0,0,1-.152-.021,9.915,9.915,0,0,0-4.916-.107.6.6,0,0,1-.744-.446.647.647,0,0,1,.422-.789,10.993,10.993,0,0,1,5.541.1.645.645,0,0,1,.434.781.612.612,0,0,1-.585.48" transform="translate(-30.313 -293.777)" fill="#3d5481"/>
          <path id="Trazado_882988" data-name="Trazado 882988" d="M60.693,598.913a.564.564,0,0,1-.152-.021,10.013,10.013,0,0,0-4.917-.107.6.6,0,0,1-.743-.448.646.646,0,0,1,.422-.787,10.989,10.989,0,0,1,5.541.1.645.645,0,0,1,.434.781.613.613,0,0,1-.585.48" transform="translate(-28.933 -298.215)" fill="#3d5481"/>
          <path id="Trazado_882989" data-name="Trazado 882989" d="M58.438,603.521a.575.575,0,0,1-.152-.021,10.014,10.014,0,0,0-4.916-.107.6.6,0,0,1-.743-.448.646.646,0,0,1,.422-.787,10.987,10.987,0,0,1,5.541.1.645.645,0,0,1,.434.781.613.613,0,0,1-.585.48" transform="translate(-27.744 -300.516)" fill="#3d5481"/>
          <path id="Trazado_882990" data-name="Trazado 882990" d="M24.639,296.107a.032.032,0,0,1,0,.014.183.183,0,0,0,.005.044q.052.582.1,1.185a8.613,8.613,0,0,0,4.688-.445c2.891-1.11,5.161-3.616,6.808-6.112a29.956,29.956,0,0,0,1.921-3.392,29.638,29.638,0,0,0,1.345-3.2.609.609,0,0,0-.343-.764.555.555,0,0,0-.722.363,28.856,28.856,0,0,1-1.38,3.209,29.016,29.016,0,0,1-1.791,3.127c-1.54,2.329-3.625,4.646-6.227,5.641a7.6,7.6,0,0,1-4.41.327" transform="translate(-12.995 -141.508)" fill="#92b2d1"/>
          <path id="Trazado_882991" data-name="Trazado 882991" d="M97.043,99.048l.282.858.319.939c.212.632.431,1.268.656,1.9.448,1.268.905,2.535,1.389,3.783s.966,2.488,1.481,3.7,1.031,2.405,1.579,3.558,1.111,2.27,1.69,3.329,1.182,2.055,1.789,2.942a18,18,0,0,0,1.749,2.257,8.424,8.424,0,0,0,.725.694c.1.087.192.155.264.207l.028.023c.012.01,0,0-.006,0a.1.1,0,0,0-.032-.008c-.026,0-.038-.012-.06-.009-.075-.007-.105.021-.036.055a1.265,1.265,0,0,0,.474.071,7.623,7.623,0,0,0,2.144-.383,19.239,19.239,0,0,0,2.865-1.146c1-.491,2.045-1.05,3.086-1.677a71.243,71.243,0,0,0,6.262-4.3c1.041-.783,2.066-1.605,3.087-2.435.51-.416,1.016-.838,1.515-1.261l.744-.631.683-.588.279-.24a5.931,5.931,0,0,1,8.67.949,6.831,6.831,0,0,1-.159,8.436l-.789.949-.75.881c-.5.578-1.013,1.143-1.527,1.7-1.027,1.123-2.09,2.206-3.177,3.28a71.4,71.4,0,0,1-7.044,6.084,46.6,46.6,0,0,1-4.049,2.742,34.458,34.458,0,0,1-4.7,2.379,21.571,21.571,0,0,1-5.9,1.546,16.613,16.613,0,0,1-3.651,0,14.731,14.731,0,0,1-4.024-1.039c-.337-.146-.673-.286-1-.463l-.491-.261c-.077-.043-.172-.093-.234-.131l-.194-.119c-.522-.316-1.01-.647-1.467-.986a23.648,23.648,0,0,1-2.454-2.1,33.72,33.72,0,0,1-3.688-4.326,51.644,51.644,0,0,1-2.777-4.354c-.834-1.448-1.587-2.9-2.279-4.352s-1.343-2.9-1.945-4.363-1.159-2.922-1.692-4.388-1.018-2.943-1.478-4.431c-.229-.745-.452-1.492-.668-2.248l-.313-1.146-.322-1.237a8.417,8.417,0,0,1,5.5-10.265A7.8,7.8,0,0,1,96.93,98.7Z" transform="translate(-43.045 -46.5)" fill="#ffd4c7"/>
          <path id="Trazado_882992" data-name="Trazado 882992" d="M107.305,108.046s1.747,4.315,3.182,7.441,3.519,8.365,3.519,8.365l-9.134,18.011s-5.927-6.731-6.052-14.891-1.435-19.907,8.486-18.925" transform="translate(-52.052 -53.92)" fill="#6293c4"/>
          <path id="Trazado_882993" data-name="Trazado 882993" d="M132.73,159.594a.354.354,0,0,1-.082-.01.4.4,0,0,1-.291-.481,13.157,13.157,0,0,1,2.861-6,.366.366,0,0,1,.538,0,.422.422,0,0,1,0,.571,12.575,12.575,0,0,0-2.657,5.606.386.386,0,0,1-.372.317" transform="translate(-69.8 -76.386)" fill="#e6736e"/>
          <path id="Trazado_882994" data-name="Trazado 882994" d="M131.472,154.682a.386.386,0,0,1-.37-.305.406.406,0,0,1,.277-.49l3.354-.892a.381.381,0,0,1,.463.294.407.407,0,0,1-.277.49l-3.354.892a.375.375,0,0,1-.093.012" transform="translate(-69.137 -76.386)" fill="#e6736e"/>
          <path id="Trazado_882995" data-name="Trazado 882995" d="M185.706,122.2c.035-.929,1.253-1.9,1.873-2.932a14.054,14.054,0,0,1,3.609-3.9c1.75-1.126,7.075-4.14,8.707-3.633s-2.771,3.484-3.663,4.113a4.234,4.234,0,0,0-1.276,1.406s10.6-6,11.853-5.446-4.458,4.611-5.875,5.6c0,0,8.225-4.052,8.914-3.434,1.383,1.24-7.627,6.018-7.627,6.018s7.083-3.035,7.521-1.788c.463,1.321-7.132,4.552-7.132,4.552s4.89-1.265,5.731-.37-9.234,4.387-10.844,4.726-5.877,1.633-8.022,1.695c-1.457.042-3.877-3.673-3.769-6.614" transform="translate(-97.939 -55.765)" fill="#ffd4c7"/>
          <path id="Trazado_882996" data-name="Trazado 882996" d="M213.389,130.041a.347.347,0,0,0,.315-.334,10.472,10.472,0,0,0-2.694-7.348.324.324,0,0,0-.476.007.372.372,0,0,0,.006.5,9.9,9.9,0,0,1,2.492,6.791.351.351,0,0,0,.315.379.3.3,0,0,0,.043,0" transform="translate(-110.984 -61.045)" fill="#e6736e"/>
          <path id="Trazado_882997" data-name="Trazado 882997" d="M198.326,133.435a.342.342,0,0,0,.3-.244c1.27-4.046,4.412-4.365,4.443-4.368a.351.351,0,0,0,.308-.385.344.344,0,0,0-.357-.327h-.007c-.147.013-3.618.366-5.028,4.854a.363.363,0,0,0,.213.452.333.333,0,0,0,.128.018" transform="translate(-104.408 -63.967)" fill="#e6736e"/>
          <path id="Trazado_882998" data-name="Trazado 882998" d="M210.052,139.907l19.458-35.193a2.5,2.5,0,0,0-.814-3.3L205.874,87.248a2.209,2.209,0,0,0-3.118.863L183.3,123.3a2.5,2.5,0,0,0,.814,3.3l22.822,14.162a2.209,2.209,0,0,0,3.118-.863" transform="translate(-96.506 -43.399)" fill="#daaf6a"/>
          <path id="Trazado_882999" data-name="Trazado 882999" d="M232.466,106.647,211.62,93.711a.435.435,0,0,0-.614.17l-16.327,29.53a.492.492,0,0,0,.161.651L215.685,137a.435.435,0,0,0,.614-.17l16.327-29.53a.491.491,0,0,0-.16-.651" transform="translate(-102.64 -46.759)" fill="#ffd398"/>
          <path id="Trazado_883000" data-name="Trazado 883000" d="M220.344,159.42a.37.37,0,0,0,.324-.2.41.41,0,0,0-.135-.542l-14.638-9.022a.363.363,0,0,0-.512.143.41.41,0,0,0,.135.542l14.638,9.022a.352.352,0,0,0,.188.054" transform="translate(-108.291 -74.699)" fill="#daaf6a"/>
          <path id="Trazado_883001" data-name="Trazado 883001" d="M203.327,115.771a6.028,6.028,0,0,0-1.362,1.477c-1.319-.109-1.863-1.4-2.812-2.492,2.231-1.329,6.554-3.868,7.835-3.1,1.139.685-2.77,3.485-3.662,4.114" transform="translate(-105.033 -55.681)" fill="#ffd4c7"/>
          <path id="Trazado_883002" data-name="Trazado 883002" d="M13.443,88.133a8.928,8.928,0,0,1,2.055-.6c.552-.093,1.082-.2,1.589-.317h0a23.64,23.64,0,0,0,5.276-1.876c.206-.1.4-.2.59-.307A19.26,19.26,0,0,0,26.1,82.971l13.3.482c1.194,1.844,3.27,2.522,4.891,3.342q.267.134.542.262c.339.154.683.3,1.028.428,1.273.492,2.575.849,3.818,1.227,3.312,1.01,6.2,2.182,7,6.441.744,3.948-2.113,12.077-1.814,28.551.023,1.21.062,2.461.121,3.762q.081,1.823.219,3.776c.017.25.035.5.054.754.071.971.155,1.971.253,2.99q.157,1.687.359,3.46.208,1.82.466,3.73c.925,6.849,1.5,12,2.546,21.105.515,4.462,1.557,11.614.94,12.128l-48.814,5.729a13.92,13.92,0,0,1-.306-1.679c-1.632-4.722-3.785-18.666-5.177-27.465-.343-2.15-.506-4.057-.624-5.288-.12-1.247-.172-2.651-.25-3.9a172.38,172.38,0,0,1-.623-18.466q.022-.515.046-1.035c.242-5.213-1.493-12.414-1.856-18.441,0,0-2.7-11.616,11.221-16.732" transform="translate(-1.06 -41.429)" fill="#496f93"/>
          <path id="Trazado_883003" data-name="Trazado 883003" d="M112.832,148.411h.007a.387.387,0,0,0,.368-.4l-.374-22.354a.386.386,0,0,0-.374-.39h-.007a.387.387,0,0,0-.368.4l.374,22.354a.386.386,0,0,0,.374.39" transform="translate(-59.112 -62.546)" fill="#8c9349"/>
          <path id="Trazado_883004" data-name="Trazado 883004" d="M112.874,136.025a.375.375,0,0,0,.347-.248l1.4-3.659a.4.4,0,0,0-.207-.516.367.367,0,0,0-.487.218l-1.4,3.659a.406.406,0,0,0,.207.517.358.358,0,0,0,.14.029" transform="translate(-59.332 -65.696)" fill="#8c9349"/>
          <path id="Trazado_883005" data-name="Trazado 883005" d="M19.445,215.429a.364.364,0,0,0,.129-.024.4.4,0,0,0,.223-.509c-5.122-14.86-6.574-30.994-6.891-41.911a168.347,168.347,0,0,1,.547-20.353.392.392,0,0,0-.33-.439.38.38,0,0,0-.414.349,169.119,169.119,0,0,0-.552,20.452c.318,10.98,1.778,27.209,6.936,42.173a.377.377,0,0,0,.352.261" transform="translate(-6.37 -75.991)" fill="#8c9349"/>
          <path id="Trazado_883006" data-name="Trazado 883006" d="M59.6,230.542a42.6,42.6,0,0,0,9.569-1.122.4.4,0,0,0,.287-.472.375.375,0,0,0-.445-.3c-12.938,2.974-22.466-.624-28.182-4.167a33.9,33.9,0,0,1-9.419-8.5.361.361,0,0,0-.523-.09.412.412,0,0,0-.085.553,33.97,33.97,0,0,0,9.617,8.7,36.05,36.05,0,0,0,19.18,5.4" transform="translate(-16.207 -107.758)" fill="#8c9349"/>
          <path id="Trazado_883007" data-name="Trazado 883007" d="M72.145,221.876a13.893,13.893,0,0,0,2.587-.248.4.4,0,0,0,.3-.461.376.376,0,0,0-.435-.32c-10.065,1.909-15.135-8.41-15.186-8.514a.364.364,0,0,0-.5-.174.408.408,0,0,0-.164.533,19.513,19.513,0,0,0,3.957,5.224,13.766,13.766,0,0,0,9.442,3.961" transform="translate(-30.961 -105.912)" fill="#8c9349"/>
          <path id="Trazado_883008" data-name="Trazado 883008" d="M60.316,99.434a9.8,9.8,0,0,0,6.268-2.368.413.413,0,0,0,.07-.556.361.361,0,0,0-.525-.074,8.929,8.929,0,0,1-7.115,2.109c-6.39-.93-11.729-8.366-11.782-8.441a.362.362,0,0,0-.525-.079.413.413,0,0,0-.074.555c.224.317,5.575,7.773,12.276,8.75a9.746,9.746,0,0,0,1.407.1" transform="translate(-24.555 -44.911)" fill="#8c9349"/>
          <path id="Trazado_883009" data-name="Trazado 883009" d="M83,15.484a7.42,7.42,0,0,1,1.856,4.463,9.775,9.775,0,0,1,.9,4.73A30.518,30.518,0,0,1,84.4,29.713S82.66,19.346,80.418,18.82a20.382,20.382,0,0,1-5.01-2.283s1.18-2.82,7.59-1.052" transform="translate(-39.77 -7.441)" fill="#6b3737"/>
          <path id="Trazado_883010" data-name="Trazado 883010" d="M41.154,28.157s-.771,2.546.319,3.8-.092,3.315,1.365,4.514,3.8.456,3.8.456.612-12.978,1.71-14.2c0,0-4.063.033-7.191,5.43" transform="translate(-21.565 -11.348)" fill="#6b3737"/>
          <path id="Trazado_883011" data-name="Trazado 883011" d="M65.6,70.581v3.736a10.993,10.993,0,0,1-1.248.927c-6.124,3.9-12.73-.927-12.73-.927V61.363l12.311,8.119Z" transform="translate(-27.227 -30.639)" fill="#ffd4c7"/>
          <path id="Trazado_883012" data-name="Trazado 883012" d="M69.755,76.354V80.2a10.936,10.936,0,0,1-1.248.927c-5.214-2.187-9.009-7.982-9.009-7.982l8.591,2.221Z" transform="translate(-31.379 -36.521)" fill="#ffd4c7"/>
          <path id="Trazado_883013" data-name="Trazado 883013" d="M90.527,45.594s2-2.507,3.135,0,.261,7.581-2.786,6.751Z" transform="translate(-47.744 -22.209)" fill="#f4a687"/>
          <path id="Trazado_883014" data-name="Trazado 883014" d="M71.273,40.875s.01,7.724-7.573,7.707c-7.537-.015-12.672-6.285-12.94-6.576L50.752,42l-.082-1.624-.429-8.426-.229-4.5s-.963-8.11,6.312-9.588c5.315-1.081,10.3-.146,12.814,2.791.081.1.16.192.234.292A7.155,7.155,0,0,1,70.8,24.717l.235,8.089.058,1.983Z" transform="translate(-26.354 -8.699)" fill="#ffd4c7"/>
          <g id="Grupo_1099906" data-name="Grupo 1099906" transform="translate(29.909 24.083)" opacity="0.15">
            <g id="Grupo_1099905" data-name="Grupo 1099905">
              <g id="Grupo_1099904" data-name="Grupo 1099904" clip-path="url(#clip-path-7)">
                <path id="Trazado_883015" data-name="Trazado 883015" d="M68.17,49.117c0,.563-1.094,1.019-2.442,1.019s-2.442-.456-2.442-1.019S64.379,48.1,65.728,48.1s2.442.456,2.442,1.018" transform="translate(-63.286 -48.099)" fill="#ff3b00"/>
              </g>
            </g>
          </g>
          <g id="Grupo_1099909" data-name="Grupo 1099909" transform="translate(41.713 24.083)" opacity="0.15">
            <g id="Grupo_1099908" data-name="Grupo 1099908">
              <g id="Grupo_1099907" data-name="Grupo 1099907" clip-path="url(#clip-path-8)">
                <path id="Trazado_883016" data-name="Trazado 883016" d="M91.291,50.106a5.591,5.591,0,0,1-.588.03c-1.347,0-2.441-.457-2.441-1.019S89.356,48.1,90.7,48.1c.182,0,.36.009.531.025Z" transform="translate(-88.262 -48.099)" fill="#ff3b00"/>
              </g>
            </g>
          </g>
          <path id="Trazado_883017" data-name="Trazado 883017" d="M54.681,45.278s2.251,4.885,4.636,4a10.389,10.389,0,0,1,7.494,0s3.541-2.485,5.81-.983c1.522,1.007,1.138,11.726-3.993,13.514S56.418,62,54.507,56.889a31.9,31.9,0,0,1-1.992-9.533Z" transform="translate(-27.696 -22.608)" fill="#6b3737"/>
          <path id="Trazado_883018" data-name="Trazado 883018" d="M77.805,56.555c-2.776.133-5.157-2.279-5.188-2.312a.346.346,0,0,1-.006-.468.3.3,0,0,1,.442-.007c.156.16,3.846,3.888,7.167,1.129a.3.3,0,0,1,.44.056.345.345,0,0,1-.053.465,4.653,4.653,0,0,1-2.8,1.137" transform="translate(-38.248 -26.801)" fill="#fff"/>
          <path id="Trazado_883019" data-name="Trazado 883019" d="M64.989,34.247h0a1.678,1.678,0,0,0,2.24.922,9.2,9.2,0,0,1,1.717-.6A1.676,1.676,0,0,0,70.138,32.5s-3.531-.343-5.149,1.745" transform="translate(-34.275 -16.218)" fill="#242c2e"/>
          <path id="Trazado_883020" data-name="Trazado 883020" d="M88.2,34.247h0a1.678,1.678,0,0,1-2.24.922,9.174,9.174,0,0,0-1.717-.6A1.676,1.676,0,0,1,83.049,32.5s3.531-.343,5.149,1.745" transform="translate(-43.77 -16.218)" fill="#242c2e"/>
          <path id="Trazado_883021" data-name="Trazado 883021" d="M69.372,20.94c-1.19-.446-2.049-.031-3.9.832-2.68,1.247-5.676.125-8.324-1.309s-4.237.561-3.334,1.871.8,2.369-.2,4.039,1.893,2.445.294,3.754a1.807,1.807,0,0,0-.361,2.143A1.134,1.134,0,0,1,52.32,33.8c-.862-.232-2.079-1.852-2.079-1.852l-.229-4.5s-.963-8.11,6.312-9.588c5.315-1.081,10.3-.146,12.814,2.791.081.1.16.192.234.292" transform="translate(-26.354 -8.699)" fill="#6b3737"/>
          <path id="Trazado_883022" data-name="Trazado 883022" d="M71.683,42.556c0,.772-.331,1.4-.739,1.4s-.739-.626-.739-1.4.331-1.4.739-1.4.739.626.739,1.4" transform="translate(-37.026 -20.551)" fill="#242c2e"/>
          <path id="Trazado_883023" data-name="Trazado 883023" d="M87.185,42.556c0,.772-.331,1.4-.739,1.4s-.739-.626-.739-1.4.331-1.4.739-1.4.739.626.739,1.4" transform="translate(-45.202 -20.551)" fill="#242c2e"/>
          <path id="Trazado_883024" data-name="Trazado 883024" d="M53.916,60.262c-.035.086-.994,2.444-2.374,3.134l-.008-.008-.082-1.623a5.146,5.146,0,0,0,2.464-1.5" transform="translate(-27.136 -30.09)" fill="#242c2e"/>
          <path id="Trazado_883025" data-name="Trazado 883025" d="M47.661,47.416s-2.915-4.148-5.051-.889c-1.76,2.687,1.567,9.687,5.051,7.289Z" transform="translate(-22.216 -22.608)" fill="#ffd4c7"/>
          <path id="Trazado_883026" data-name="Trazado 883026" d="M49.2,54.674a.307.307,0,0,1-.3-.283,5.249,5.249,0,0,0-2.912-4.279.325.325,0,0,1-.166-.413.294.294,0,0,1,.389-.177,5.878,5.878,0,0,1,3.286,4.8.314.314,0,0,1-.266.35l-.033,0" transform="translate(-24.158 -24.715)" fill="#242c2e"/>
          <path id="Trazado_883027" data-name="Trazado 883027" d="M46.739,54.628a.293.293,0,0,1-.233-.117.331.331,0,0,1,.043-.447c.12-.1,1.2-1,2.1-.757a.321.321,0,0,1,.216.387.3.3,0,0,1-.365.229c-.518-.14-1.308.41-1.569.634a.286.286,0,0,1-.189.071" transform="translate(-24.492 -26.596)" fill="#242c2e"/>
          <path id="Trazado_883028" data-name="Trazado 883028" d="M80.157,44.489a.318.318,0,0,1,0-.635,2.03,2.03,0,0,0,1.79-.885c-1.2-2.613-2.385-5.246-2.4-5.273a.327.327,0,0,1,.141-.424.293.293,0,0,1,.4.15c.012.028,1.247,2.762,2.466,5.423a.336.336,0,0,1,0,.273,2.558,2.558,0,0,1-2.4,1.371" transform="translate(-41.939 -18.595)" fill="#242c2e"/>
          <path id="Trazado_883029" data-name="Trazado 883029" d="M39.768,20.28l3.7-3.291.478-.425L45,15.634c7.418-3.985,16.949-3.893,16.949-3.893S59.755,4.472,50.8,4.577a13.079,13.079,0,0,0-7.756,2.391,10.221,10.221,0,0,0-.935.777,9.9,9.9,0,0,0-3.074,5.723c-.668,4.4.733,6.812.733,6.812" transform="translate(-20.492 -2.285)" fill="#4a7094"/>
          <path id="Trazado_883030" data-name="Trazado 883030" d="M46.394,19.375l.478-.425a7.3,7.3,0,0,1-1.735-6.478,14.853,14.853,0,0,1,.83-3.118,10.278,10.278,0,0,0-.934.777,14.862,14.862,0,0,0-.512,2.242,8.048,8.048,0,0,0,1.873,7" transform="translate(-23.415 -4.671)" fill="#92b2d1"/>
          <path id="Trazado_883031" data-name="Trazado 883031" d="M64.4,7.731S61.072,6.682,56.766,9.1l.834,2.569a25.347,25.347,0,0,1,7.131-1.832Z" transform="translate(-29.938 -3.747)" fill="#6d8ca5"/>
          <path id="Trazado_883032" data-name="Trazado 883032" d="M72.431,12.507S82.608,5.8,77.264,1.465,59.164,2.82,51.853,13.349c0,0,17.207-7.5,20.578-.842" transform="translate(-27.347 0)" fill="#92b2d1"/>
          <path id="Trazado_883033" data-name="Trazado 883033" d="M120.31,79.872a1.128,1.128,0,0,1-.528.5.933.933,0,0,1-.29.085l-.707-.141-16.8-10.105a1.226,1.226,0,0,1-.42-1.616,1.085,1.085,0,0,1,1.524-.444l16.8,10.105.546.8v0a1.249,1.249,0,0,1-.125.811" transform="translate(-53.489 -33.951)" fill="#181344"/>
          <path id="Trazado_883034" data-name="Trazado 883034" d="M141.056,91.127l-2.188-.438-.707-.141a3.22,3.22,0,0,1,1.1-2.06l.546.8v0Z" transform="translate(-72.865 -44.183)" fill="#3d5481"/>
          <path id="Trazado_883035" data-name="Trazado 883035" d="M15.75,107.09l.272,1.023.308,1.116c.2.75.424,1.5.644,2.253.434,1.5.912,2.993,1.391,4.466a82.2,82.2,0,0,0,3.243,8.389,36.777,36.777,0,0,0,1.868,3.588,18.162,18.162,0,0,0,1.872,2.655l.106.128c.035.038.067.064.1.1.066.064.129.129.192.2a1.126,1.126,0,0,0,.17.154c.052.045.1.093.152.144.043.032.078.048.113.079a.628.628,0,0,1,.051.046c0,.005.026.023.015.019-.035-.022-.072-.043-.109-.062a1.571,1.571,0,0,0-.23-.1c-.078-.026-.164-.071-.25-.095s-.176-.041-.262-.066a1.63,1.63,0,0,0-.263-.055L25,131.056c-.04-.007-.08-.013-.121-.018a1.529,1.529,0,0,0-.244-.005c-.078,0-.137,0-.207,0s-.144.024-.19.025a1.347,1.347,0,0,0-.4.108c-.1.061.084.018.364-.149a7.7,7.7,0,0,0,1.073-.778c.412-.347.847-.757,1.3-1.2a38.051,38.051,0,0,0,2.735-3.109c.913-1.138,1.8-2.363,2.693-3.617s1.758-2.558,2.611-3.888c1.714-2.656,3.367-5.42,4.982-8.226.807-1.4,1.6-2.823,2.384-4.244l1.164-2.138,1.12-2.094.1-.186a5.984,5.984,0,0,1,8.4-2.464,6.726,6.726,0,0,1,2.667,8.158l-.493,1.275-.484,1.227c-.324.815-.661,1.62-1,2.425-.673,1.611-1.38,3.2-2.1,4.793s-1.475,3.168-2.254,4.742-1.577,3.144-2.428,4.7a95.567,95.567,0,0,1-5.653,9.284,54.454,54.454,0,0,1-3.571,4.606c-.673.77-1.4,1.533-2.209,2.3a23.846,23.846,0,0,1-2.783,2.275,16.412,16.412,0,0,1-3.966,2.057,12.941,12.941,0,0,1-2.757.634c-.245.034-.528.044-.791.058s-.531.022-.809.014-.563-.031-.845-.057l-.422-.043c-.142-.021-.286-.047-.429-.073q-.429-.08-.854-.18c-.283-.067-.56-.163-.837-.254s-.558-.19-.818-.306-.519-.239-.775-.367l-.381-.2c-.1-.056-.161-.1-.243-.145l-.464-.286c-.306-.193-.62-.391-.911-.593l-.813-.62c-.267-.21-.548-.423-.775-.636l-.712-.648c-.117-.109-.239-.219-.349-.328l-.316-.327a32.137,32.137,0,0,1-4.13-5.309,53.629,53.629,0,0,1-2.894-5.281c-.845-1.751-1.562-3.5-2.239-5.249s-1.268-3.5-1.823-5.245-1.044-3.508-1.507-5.271c-.223-.886-.439-1.771-.643-2.668-.1-.448-.2-.9-.293-1.356l-.141-.692-.15-.766a8.35,8.35,0,0,1,6.117-9.866,7.859,7.859,0,0,1,9.175,5.883Z" transform="translate(-0.105 -49.045)" fill="#ffd4c7"/>
          <path id="Trazado_883036" data-name="Trazado 883036" d="M7.466,98.194S.95,99.459.094,108.729c-.975,10.572,5.951,23.684,5.951,23.684l16.733-9.522s-2.7-14.057-6.685-19.752-8.626-4.946-8.626-4.946" transform="translate(0 -49.013)" fill="#6293c4"/>
          <path id="Trazado_883037" data-name="Trazado 883037" d="M9.217,159.549a.352.352,0,0,0,.176-.047.408.408,0,0,0,.154-.536c-1.029-2.041-2.989-7.277-3.008-7.33a.367.367,0,0,0-.486-.222.4.4,0,0,0-.21.514c.081.217,2,5.331,3.044,7.411a.371.371,0,0,0,.33.21" transform="translate(-3.067 -75.589)" fill="#8c9349"/>
          <path id="Trazado_883038" data-name="Trazado 883038" d="M39.918,127.462a.336.336,0,0,0,.054,0,.393.393,0,0,0,.317-.449,67.229,67.229,0,0,0-6.331-19.495.363.363,0,0,0-.51-.151.41.41,0,0,0-.143.54,66.305,66.305,0,0,1,6.242,19.219.382.382,0,0,0,.37.339" transform="translate(-17.54 -53.582)" fill="#8c9349"/>
          <path id="Trazado_883039" data-name="Trazado 883039" d="M36.9,111.255a.38.38,0,0,0,.366-.316l.668-3.4a.4.4,0,0,0-.29-.469.376.376,0,0,0-.443.307l-.668,3.4a.4.4,0,0,0,.29.469.335.335,0,0,0,.077.009" transform="translate(-19.263 -53.459)" fill="#8c9349"/>
          <path id="Trazado_883040" data-name="Trazado 883040" d="M95.394,84.661s1.316-10.455,4.451-14.4,4.094-3.815,4.764-2.838.053,1.007-.041,2.455c0,0,2.278-2.919,3.395-1.053.966,1.615-1.153,3.231-1.153,3.231s1.99-2.177,2.96-.918c.765.994-.981,3.336-.981,3.336s1.6-.83,1.859.659a2.3,2.3,0,0,1-.337,1.8s1.93-.253,1.69,2.1c-.149,1.457-3.282,7.767-5.955,10.177s-10.521,1.056-10.653-4.548" transform="translate(-50.31 -33.376)" fill="#ffd4c7"/>
          <path id="Trazado_883041" data-name="Trazado 883041" d="M88.59,110.832s6.212,5.826,10.943,6.651a5.788,5.788,0,0,0,1.732-2.957s-6.851-2.422-11.506-6.537a4.44,4.44,0,0,0-1.169,2.843" transform="translate(-46.722 -53.92)" fill="#181344"/>
          <path id="Trazado_883042" data-name="Trazado 883042" d="M98.851,111.035a3.567,3.567,0,0,1,1.5,4.645,3.2,3.2,0,0,1-4.385,1.585,3.567,3.567,0,0,1-1.5-4.645,3.194,3.194,0,0,1,4.384-1.585" transform="translate(-49.644 -55.263)" fill="#181344"/>
          <path id="Trazado_883043" data-name="Trazado 883043" d="M100.549,116.221a2.3,2.3,0,0,1-3.156,1.141,2.57,2.57,0,0,1-1.077-3.343,2.3,2.3,0,0,1,3.156-1.141,2.57,2.57,0,0,1,1.077,3.343" transform="translate(-50.67 -56.234)" fill="#fff"/>
          <path id="Trazado_883044" data-name="Trazado 883044" d="M40.556,168.707a.365.365,0,0,1-.211-.068.418.418,0,0,1-.106-.56,30.306,30.306,0,0,1,4.487-5.52,10.79,10.79,0,0,0-2.871.474.379.379,0,0,1-.469-.281.407.407,0,0,1,.266-.5,10.471,10.471,0,0,1,4.166-.451.39.39,0,0,1,.328.3.416.416,0,0,1-.151.432c-2.517,1.865-5.1,5.949-5.121,5.99a.376.376,0,0,1-.318.18" transform="translate(-21.188 -80.764)" fill="#e6736e"/>
        </g>
      </g>
    </g>
  </g>
</svg>
