<svg xmlns="http://www.w3.org/2000/svg" xmlns:xlink="http://www.w3.org/1999/xlink" width="84.785" height="87" viewBox="0 0 84.785 87">
  <defs>
    <filter id="Elipse_11501" x="0" y="1.42" width="84.785" height="85.58" filterUnits="userSpaceOnUse">
      <feOffset dy="3" input="SourceAlpha"/>
      <feGaussianBlur stdDeviation="3" result="blur"/>
      <feFlood flood-opacity="0.161"/>
      <feComposite operator="in" in2="blur"/>
      <feComposite in="SourceGraphic"/>
    </filter>
    <filter id="Elipse_11501-2" x="0" y="1.42" width="84.785" height="85.58" filterUnits="userSpaceOnUse">
      <feOffset dy="6" input="SourceAlpha"/>
      <feGaussianBlur stdDeviation="3" result="blur-2"/>
      <feFlood flood-opacity="0.161" result="color"/>
      <feComposite operator="out" in="SourceGraphic" in2="blur-2"/>
      <feComposite operator="in" in="color"/>
      <feComposite operator="in" in2="SourceGraphic"/>
    </filter>
    <clipPath id="clip-path">
      <rect id="Rectángulo_401455" data-name="Rectángulo 401455" width="18.618" height="26.727" fill="#12263f"/>
    </clipPath>
  </defs>
  <g id="Grupo_1100798" data-name="Grupo 1100798" transform="translate(-912.333 -387.667)">
    <g id="Grupo_1099492" data-name="Grupo 1099492" transform="translate(921.333 395.087)">
      <g data-type="innerShadowGroup">
        <g transform="matrix(1, 0, 0, 1, -9, -7.42)" filter="url(#Elipse_11501)">
          <ellipse id="Elipse_11501-3" data-name="Elipse 11501" cx="33.392" cy="33.79" rx="33.392" ry="33.79" transform="translate(9 7.42)" fill="#7ab8f5"/>
        </g>
        <g transform="matrix(1, 0, 0, 1, -9, -7.42)" filter="url(#Elipse_11501-2)">
          <ellipse id="Elipse_11501-4" data-name="Elipse 11501" cx="33.392" cy="33.79" rx="33.392" ry="33.79" transform="translate(9 7.42)" fill="#fff"/>
        </g>
      </g>
      <g id="caja-de-entrega" transform="translate(-11.69 8.33)">
        <path id="Trazado_883535" data-name="Trazado 883535" d="M157.456,67.9h27.895v31H157.456Z" transform="translate(-118.435 -61.123)" fill="#edba94"/>
        <path id="Trazado_883536" data-name="Trazado 883536" d="M166.107,69.448a9.776,9.776,0,0,0-.123-1.55h-8.528V79.132A9.759,9.759,0,0,0,166.107,69.448Z" transform="translate(-118.435 -61.123)" fill="#e5a87f"/>
        <path id="Trazado_883537" data-name="Trazado 883537" d="M33.392,331.927h6.2v17.048h-6.2Z" transform="translate(-6.752 -298.804)" fill="#9dc6fb"/>
        <path id="Trazado_883538" data-name="Trazado 883538" d="M33.392,331.927h2v17.048h-2Z" transform="translate(-6.752 -298.804)" fill="#80b4fb"/>
        <path id="Trazado_883539" data-name="Trazado 883539" d="M157.456,67.9h2v31h-2Z" transform="translate(-118.435 -61.123)" fill="#e5a87f"/>
        <path id="Trazado_883540" data-name="Trazado 883540" d="M95.517,347.458h3.114v15.5H95.517Z" transform="translate(-62.677 -312.785)" fill="#f1f6f7"/>
        <path id="Trazado_883541" data-name="Trazado 883541" d="M272.334,76.172l-3.1-1.423-3.1,1.423V67.9h6.206Z" transform="translate(-216.263 -61.123)" fill="#fd6930"/>
        <path id="Trazado_883542" data-name="Trazado 883542" d="M198.97,213.363l-3.957-3.957-3.957,3.957h2.407v6.72h3.1v-6.72Z" transform="translate(-148.682 -188.51)" fill="#f1f6f7"/>
        <path id="Trazado_883543" data-name="Trazado 883543" d="M344.015,284.99h6.2v3.168h-6.2Z" transform="translate(-286.377 -256.551)" fill="#e5a87f"/>
        <path id="Trazado_883544" data-name="Trazado 883544" d="M126.578,330.407s2.973-3.018,8.978-3.018a9.3,9.3,0,0,1,3.352.625l2.377.919h4.707a1.993,1.993,0,0,1,1.993,1.993,3.818,3.818,0,0,1-.087.584h0l3.782-2.183,6.9-3.986a1.992,1.992,0,0,1,2.721.73,2.062,2.062,0,0,1-.728,2.721l-12.616,9.86a4.96,4.96,0,0,1-3.058,1.054H126.578v-9.3Z" transform="translate(-90.638 -292.634)" fill="#ffcebf"/>
        <path id="Trazado_883545" data-name="Trazado 883545" d="M136.4,348.313q-.419-.038-.84-.038c-6.005,0-8.978,3.018-8.978,3.018v9.3h2v-9.3S131.166,348.662,136.4,348.313Z" transform="translate(-90.639 -313.521)" fill="#ffb09e"/>
        <path id="Trazado_883546" data-name="Trazado 883546" d="M58.079,372.517a.748.748,0,1,1,.748-.748A.748.748,0,0,1,58.079,372.517Z" transform="translate(-28.302 -333.996)"/>
        <circle id="Elipse_11531" data-name="Elipse 11531" cx="7.749" cy="7.749" r="7.749" transform="translate(30.178 0.576)" fill="#ade194"/>
        <path id="Trazado_883547" data-name="Trazado 883547" d="M70.833,13.523a7.751,7.751,0,0,1,6.751-7.686,7.75,7.75,0,1,0-1,15.435,7.823,7.823,0,0,0,1-.064A7.751,7.751,0,0,1,70.833,13.523Z" transform="translate(-38.659 -5.198)" fill="#7dce6f"/>
        <g id="Grupo_1100868" data-name="Grupo 1100868" transform="translate(25.892 0)">
          <path id="Trazado_883548" data-name="Trazado 883548" d="M186.884,214.081h3.1a.748.748,0,0,0,.748-.748v-5.971h1.658c.732,0,1.183-.661.529-1.278l-3.957-3.957a.748.748,0,0,0-1.058,0l-3.957,3.957c-.393.662-.2,1.136.529,1.278h1.659v5.971A.748.748,0,0,0,186.884,214.081Zm1.55-10.367,2.15,2.15h-.6a.748.748,0,0,0-.748.748v5.971h-1.6v-5.971a.748.748,0,0,0-.748-.748h-.6Z" transform="translate(-167.995 -181.759)"/>
          <path id="Trazado_883549" data-name="Trazado 883549" d="M343.462,277.49h-6.2a.748.748,0,0,0-.748.748v3.168a.748.748,0,0,0,.748.748h6.2a.748.748,0,0,0,.748-.748v-3.168A.748.748,0,0,0,343.462,277.49Zm-.748,3.168h-4.7v-1.671h4.7Z" transform="translate(-305.517 -249.799)"/>
          <path id="Trazado_883550" data-name="Trazado 883550" d="M343.462,246.771h-6.2a.748.748,0,0,0,0,1.5h6.2a.748.748,0,1,0,0-1.5Z" transform="translate(-305.517 -222.145)"/>
          <path id="Trazado_883551" data-name="Trazado 883551" d="M71.313,33.063a2.8,2.8,0,0,0-3.649-1.056V20.371a.748.748,0,1,0-1.5,0v12.5l-7.2,4.156H57.782a2.741,2.741,0,0,0-2.428-1.474H50.787a15.325,15.325,0,0,0-5.869-1.545,16.4,16.4,0,0,0-5.148.791V16.619a8.6,8.6,0,0,0,6.616-9.095h2.731v7.525a.748.748,0,0,0,1.06.68l2.791-1.28,2.791,1.28a.764.764,0,0,0,1.06-.68V7.524h9.348v9.585a.748.748,0,1,0,1.5,0V6.776a.748.748,0,0,0-.748-.748H46.105A8.66,8.66,0,0,0,39.715.016.748.748,0,1,0,39.4,1.48a7,7,0,1,1-2.949,0A.748.748,0,1,0,36.14.016a8.628,8.628,0,0,0-6.71,8.309,8.626,8.626,0,0,0,8.843,8.488v18.57a12.583,12.583,0,0,0-1.571.86V34.673a.748.748,0,0,0-.748-.748H33.588v-.8a.748.748,0,0,0-.748-.748h-6.2a.748.748,0,0,0-.748.748V50.171a.748.748,0,0,0,.748.748h9.313a.748.748,0,0,0,.748-.748V47.821h8a.748.748,0,0,0,0-1.5h-8V38.1A12.915,12.915,0,0,1,44.918,35.5c2.043,0,5.521,1.522,5.729,1.545h4.707c1.4,0,1.834,2.488.014,2.488H46.331a.748.748,0,0,0,0,1.5h9.037a2.723,2.723,0,0,0,2.514-1.651l10.436-6.026a1.245,1.245,0,0,1,1.244,2.155c-.03.017-12.7,9.919-12.7,9.919a4.23,4.23,0,0,1-2.6.895h-6.3a.748.748,0,1,0,0,1.5h6.3a5.733,5.733,0,0,0,3.518-1.213L70.36,36.777a2.813,2.813,0,0,0,.953-3.714ZM55.323,13.883l-2.042-.937a.748.748,0,0,0-.624,0l-2.042.937V7.524h4.709ZM27.389,33.871h4.7V49.423h-4.7Zm6.2,15.552v-14h1.617v14H33.588Z" transform="translate(-25.892 0)"/>
          <path id="Trazado_883552" data-name="Trazado 883552" d="M101.926,52.281a.748.748,0,1,0-1.14.971l2.329,2.734a.749.749,0,0,0,.57.263h.013a.749.749,0,0,0,.573-.283l4.6-5.791a.748.748,0,1,0-1.172-.931l-4.036,5.079Z" transform="translate(-93.152 -44.075)"/>
        </g>
      </g>
    </g>
    <g id="Grupo_1099581" data-name="Grupo 1099581" transform="translate(921.333 387.667)">
      <g id="Grupo_1099580" data-name="Grupo 1099580">
        <g id="Grupo_1099579" data-name="Grupo 1099579" clip-path="url(#clip-path)">
          <path id="Trazado_877686" data-name="Trazado 877686" d="M9.184.011a9.145,9.145,0,0,1,4.761,1.223,9.345,9.345,0,0,1,3.641,12.494L9.791,26.389a.969.969,0,0,1-.3.309.376.376,0,0,1-.2.025l-.019,0c-.272-.06-.553-.664-.691-.883L2.229,15.548C.853,13.288.059,11.994.066,9.234A5.165,5.165,0,0,1,.1,8.423l.152-.907A9.392,9.392,0,0,1,7.866.134,7.988,7.988,0,0,1,9.184.011" transform="translate(-0.063 -0.005)" fill="#12263f"/>
        </g>
      </g>
      <circle id="Elipse_11513" data-name="Elipse 11513" cx="4.373" cy="4.373" r="4.373" transform="translate(4.77 4.24)" fill="#fff"/>
    </g>
  </g>
</svg>
