<svg xmlns="http://www.w3.org/2000/svg" xmlns:xlink="http://www.w3.org/1999/xlink" width="84.785" height="87" viewBox="0 0 84.785 87">
  <defs>
    <filter id="Elipse_11501" x="0" y="1.42" width="84.785" height="85.58" filterUnits="userSpaceOnUse">
      <feOffset dy="3" input="SourceAlpha"/>
      <feGaussianBlur stdDeviation="3" result="blur"/>
      <feFlood flood-opacity="0.161"/>
      <feComposite operator="in" in2="blur"/>
      <feComposite in="SourceGraphic"/>
    </filter>
    <filter id="Elipse_11501-2" x="0" y="1.42" width="84.785" height="85.58" filterUnits="userSpaceOnUse">
      <feOffset dy="6" input="SourceAlpha"/>
      <feGaussianBlur stdDeviation="3" result="blur-2"/>
      <feFlood flood-opacity="0.161" result="color"/>
      <feComposite operator="out" in="SourceGraphic" in2="blur-2"/>
      <feComposite operator="in" in="color"/>
      <feComposite operator="in" in2="SourceGraphic"/>
    </filter>
    <clipPath id="clip-path">
      <rect id="Rectángulo_401455" data-name="Rectángulo 401455" width="18.618" height="26.727" fill="#12263f"/>
    </clipPath>
  </defs>
  <g id="Grupo_1100715" data-name="Grupo 1100715" transform="translate(-912.333 -387.667)">
    <g id="Grupo_1099492" data-name="Grupo 1099492" transform="translate(921.333 395.087)">
      <g data-type="innerShadowGroup">
        <g transform="matrix(1, 0, 0, 1, -9, -7.42)" filter="url(#Elipse_11501)">
          <ellipse id="Elipse_11501-3" data-name="Elipse 11501" cx="33.392" cy="33.79" rx="33.392" ry="33.79" transform="translate(9 7.42)" fill="#e8f57a"/>
        </g>
        <g transform="matrix(1, 0, 0, 1, -9, -7.42)" filter="url(#Elipse_11501-2)">
          <ellipse id="Elipse_11501-4" data-name="Elipse 11501" cx="33.392" cy="33.79" rx="33.392" ry="33.79" transform="translate(9 7.42)" fill="#fff"/>
        </g>
      </g>
      <g id="lista-de-verificacion2" transform="translate(16.836 12.957)">
        <g id="Grupo_1100732" data-name="Grupo 1100732" transform="translate(1.64 1.64)">
          <g id="Grupo_1100716" data-name="Grupo 1100716" transform="translate(0 1.28)">
            <path id="Trazado_883357" data-name="Trazado 883357" d="M31.43,21.914V38.549a2.558,2.558,0,0,1-2.559,2.559H4.559A2.558,2.558,0,0,1,2,38.549V6.559A2.558,2.558,0,0,1,4.559,4H9.677V6.559H5.2a.642.642,0,0,0-.64.64v30.71a.642.642,0,0,0,.64.64H23.753l5.118-5.118V24.473Z" transform="translate(-2 -4)" fill="#a4a1c5"/>
          </g>
          <g id="Grupo_1100717" data-name="Grupo 1100717" transform="translate(11.516 1.28)">
            <path id="Trazado_883358" data-name="Trazado 883358" d="M20,4h6.4V6.559H20Z" transform="translate(-20 -4)" fill="#a4a1c5"/>
          </g>
          <g id="Grupo_1100718" data-name="Grupo 1100718" transform="translate(21.753 1.28)">
            <path id="Trazado_883359" data-name="Trazado 883359" d="M43.677,8.811A5.734,5.734,0,0,0,41.15,13l-.032-.006V7.2a.642.642,0,0,0-.64-.64H36V4h5.118a2.558,2.558,0,0,1,2.559,2.559Z" transform="translate(-36 -4)" fill="#a4a1c5"/>
          </g>
          <g id="Grupo_1100719" data-name="Grupo 1100719" transform="translate(2.559 3.839)">
            <path id="Trazado_883360" data-name="Trazado 883360" d="M29.672,8H6.64A.642.642,0,0,0,6,8.64V39.35a.642.642,0,0,0,.64.64H25.194V34.871h5.118V8.64A.642.642,0,0,0,29.672,8Z" transform="translate(-6 -8)" fill="#e6e9ed"/>
          </g>
          <g id="Grupo_1100720" data-name="Grupo 1100720" transform="translate(17.914)">
            <path id="Trazado_883361" data-name="Trazado 883361" d="M33.839,5.839v.64a.642.642,0,0,1-.64.64H30.64a.642.642,0,0,1-.64-.64V2.64A.642.642,0,0,1,30.64,2H33.2a.642.642,0,0,1,.64.64v3.2Z" transform="translate(-30 -2)" fill="#7ab8f5"/>
          </g>
          <g id="Grupo_1100721" data-name="Grupo 1100721" transform="translate(7.677)">
            <path id="Trazado_883362" data-name="Trazado 883362" d="M17.839,5.839v.64a.642.642,0,0,1-.64.64H14.64a.642.642,0,0,1-.64-.64V2.64A.642.642,0,0,1,14.64,2H17.2a.642.642,0,0,1,.64.64v3.2Z" transform="translate(-14 -2)" fill="#7ab8f5"/>
          </g>
          <g id="Grupo_1100722" data-name="Grupo 1100722" transform="translate(21.753 30.71)">
            <path id="Trazado_883363" data-name="Trazado 883363" d="M41.118,50,36,55.118V50Z" transform="translate(-36 -50)" fill="#f5827a"/>
          </g>
          <g id="Grupo_1100723" data-name="Grupo 1100723" transform="translate(5.118 28.151)">
            <path id="Trazado_883364" data-name="Trazado 883364" d="M10,46h2.559v2.559H10Z" transform="translate(-10 -46)" fill="#f5827a"/>
          </g>
          <g id="Grupo_1100724" data-name="Grupo 1100724" transform="translate(5.118 23.032)">
            <path id="Trazado_883365" data-name="Trazado 883365" d="M10,38h2.559v2.559H10Z" transform="translate(-10 -38)" fill="#f5827a"/>
          </g>
          <g id="Grupo_1100725" data-name="Grupo 1100725" transform="translate(5.118 17.914)">
            <path id="Trazado_883366" data-name="Trazado 883366" d="M10,30h2.559v2.559H10Z" transform="translate(-10 -30)" fill="#f5827a"/>
          </g>
          <g id="Grupo_1100726" data-name="Grupo 1100726" transform="translate(5.118 12.796)">
            <path id="Trazado_883367" data-name="Trazado 883367" d="M10,22h2.559v2.559H10Z" transform="translate(-10 -22)" fill="#f5827a"/>
          </g>
          <g id="Grupo_1100727" data-name="Grupo 1100727" transform="translate(5.118 7.677)">
            <path id="Trazado_883368" data-name="Trazado 883368" d="M10,14h2.559v2.559H10Z" transform="translate(-10 -14)" fill="#f5827a"/>
          </g>
          <g id="Grupo_1100728" data-name="Grupo 1100728" transform="translate(10.237 26.231)">
            <path id="Trazado_883369" data-name="Trazado 883369" d="M25.038,48.118,19.446,49.98a1.03,1.03,0,0,1-.345.058,1.1,1.1,0,0,1-1.1-1.1,1.03,1.03,0,0,1,.058-.345L19.919,43l2.559,2.559Z" transform="translate(-18 -43)" fill="#aab2bd"/>
          </g>
          <g id="Grupo_1100729" data-name="Grupo 1100729" transform="translate(14.715 14.945)">
            <path id="Trazado_883370" data-name="Trazado 883370" d="M42.306,27.017l-2.591,2.591-2.559,2.559-9.6,9.6L25,39.205,38.845,25.36A5.723,5.723,0,0,0,42.306,27.017Z" transform="translate(-25 -25.36)" fill="#7ab8f5"/>
          </g>
          <g id="Grupo_1100730" data-name="Grupo 1100730" transform="translate(12.156 11.484)">
            <path id="Trazado_883371" data-name="Trazado 883371" d="M37.4,23.411,23.559,37.256,21,34.7,35.747,19.95A5.723,5.723,0,0,0,37.4,23.411Z" transform="translate(-21 -19.95)" fill="#496f93"/>
          </g>
          <g id="Grupo_1100731" data-name="Grupo 1100731" transform="translate(26.871 5.118)">
            <path id="Trazado_883372" data-name="Trazado 883372" d="M49.758,10a5.758,5.758,0,1,1,0,11.516c-.2,0-.409-.013-.608-.032a5.771,5.771,0,0,1-5.118-5.118c-.019-.2-.032-.4-.032-.608s.013-.4.032-.6A5.763,5.763,0,0,1,49.758,10Z" transform="translate(-44 -10)" fill="#f5827a"/>
          </g>
        </g>
        <g id="Grupo_1100733" data-name="Grupo 1100733" transform="translate(1 1)">
          <path id="Trazado_883373" data-name="Trazado 883373" d="M54.051,15.293l-4.026,4.026-.827-.827-.9.9,1.732,1.732L54.956,16.2Z" transform="translate(-18.035 -6.148)"/>
          <path id="Trazado_883374" data-name="Trazado 883374" d="M34.269,6.118a6.353,6.353,0,0,0-2.559.538V5.479a3.2,3.2,0,0,0-3.2-3.2H24.032A1.281,1.281,0,0,0,22.753,1H20.194a1.281,1.281,0,0,0-1.28,1.28H13.8A1.281,1.281,0,0,0,12.516,1H9.957a1.281,1.281,0,0,0-1.28,1.28H4.2A3.2,3.2,0,0,0,1,5.479v31.99a3.2,3.2,0,0,0,3.2,3.2H28.511a3.2,3.2,0,0,0,3.2-3.2V21.1l2.2-2.2c.119.006.237.018.357.018a6.4,6.4,0,1,0,0-12.8ZM28.511,3.559A1.922,1.922,0,0,1,30.43,5.479V7.41a6.434,6.434,0,0,0-1.28,1.283V6.118a1.281,1.281,0,0,0-1.28-1.28H24.032V3.559Zm-14.436,25.5L17.73,32.71l-4.605,1.535a.467.467,0,0,1-.608-.437.49.49,0,0,1,.023-.146Zm.625-1.184L28.158,14.413a6.384,6.384,0,0,0,1.16,2.149L16.355,29.526ZM20.194,2.28h2.559V6.118h-2.56Zm-1.28,1.28v1.28H13.8V3.559ZM9.957,2.28h2.559V6.118H9.957ZM12.516,7.4a1.281,1.281,0,0,0,1.28-1.28h5.118a1.281,1.281,0,0,0,1.28,1.28h2.559a1.281,1.281,0,0,0,1.28-1.28h3.839v5.787H27.9c-.019.2-.031.4-.031.611,0,.12.012.238.018.357L13.237,27.526l-1.912,5.734a1.74,1.74,0,0,0,2.2,2.2l5.732-1.91,8.612-8.612V31.71H22.753v5.118H4.839V6.118H8.677A1.281,1.281,0,0,0,9.957,7.4ZM26.967,32.99l-2.934,2.934V32.99Zm3.464,4.479a1.922,1.922,0,0,1-1.919,1.919H4.2A1.922,1.922,0,0,1,2.28,37.468V5.479A1.922,1.922,0,0,1,4.2,3.559H8.677v1.28H4.839a1.281,1.281,0,0,0-1.28,1.28v30.71a1.281,1.281,0,0,0,1.28,1.28H23.658l5.493-5.493V23.658l1.28-1.28ZM18.914,32.085,17.26,30.43,30.222,17.467a6.4,6.4,0,0,0,2.149,1.16Zm15.355-14.45a5.118,5.118,0,1,1,5.118-5.118A5.124,5.124,0,0,1,34.269,17.635Z" transform="translate(-1 -1)"/>
          <path id="Trazado_883375" data-name="Trazado 883375" d="M9,16.839h3.839V13H9Zm1.28-2.559h1.28v1.28H10.28Z" transform="translate(-3.882 -5.323)"/>
          <path id="Trazado_883376" data-name="Trazado 883376" d="M9,24.839h3.839V21H9Zm1.28-2.559h1.28v1.28H10.28Z" transform="translate(-3.882 -8.204)"/>
          <path id="Trazado_883377" data-name="Trazado 883377" d="M9,32.839h3.839V29H9Zm1.28-2.559h1.28v1.28H10.28Z" transform="translate(-3.882 -11.086)"/>
          <path id="Trazado_883378" data-name="Trazado 883378" d="M9,40.839h3.839V37H9Zm1.28-2.559h1.28v1.28H10.28Z" transform="translate(-3.882 -13.968)"/>
          <path id="Trazado_883379" data-name="Trazado 883379" d="M9,48.839h3.839V45H9Zm1.28-2.559h1.28v1.28H10.28Z" transform="translate(-3.882 -16.849)"/>
          <path id="Trazado_883380" data-name="Trazado 883380" d="M17,13H32.355v1.28H17Z" transform="translate(-6.763 -5.323)"/>
          <path id="Trazado_883381" data-name="Trazado 883381" d="M17,17H32.355v1.28H17Z" transform="translate(-6.763 -6.763)"/>
          <path id="Trazado_883382" data-name="Trazado 883382" d="M17,21h7.677v1.28H17Z" transform="translate(-6.763 -8.204)"/>
          <path id="Trazado_883383" data-name="Trazado 883383" d="M17,25h7.677v1.28H17Z" transform="translate(-6.763 -9.645)"/>
          <path id="Trazado_883384" data-name="Trazado 883384" d="M17,29h6.4v1.28H17Z" transform="translate(-6.763 -11.086)"/>
          <path id="Trazado_883385" data-name="Trazado 883385" d="M17,33h6.4v1.28H17Z" transform="translate(-6.763 -12.527)"/>
        </g>
      </g>
    </g>
    <g id="Grupo_1099581" data-name="Grupo 1099581" transform="translate(921.333 387.667)">
      <g id="Grupo_1099580" data-name="Grupo 1099580">
        <g id="Grupo_1099579" data-name="Grupo 1099579" clip-path="url(#clip-path)">
          <path id="Trazado_877686" data-name="Trazado 877686" d="M9.184.011a9.145,9.145,0,0,1,4.761,1.223,9.345,9.345,0,0,1,3.641,12.494L9.791,26.389a.969.969,0,0,1-.3.309.376.376,0,0,1-.2.025l-.019,0c-.272-.06-.553-.664-.691-.883L2.229,15.548C.853,13.288.059,11.994.066,9.234A5.165,5.165,0,0,1,.1,8.423l.152-.907A9.392,9.392,0,0,1,7.866.134,7.988,7.988,0,0,1,9.184.011" transform="translate(-0.063 -0.005)" fill="#12263f"/>
        </g>
      </g>
      <circle id="Elipse_11513" data-name="Elipse 11513" cx="4.373" cy="4.373" r="4.373" transform="translate(4.77 4.24)" fill="#fff"/>
    </g>
  </g>
</svg>
