<svg xmlns="http://www.w3.org/2000/svg" xmlns:xlink="http://www.w3.org/1999/xlink" width="102" height="107.333" viewBox="0 0 102 107.333">
  <defs>
    <filter id="Elipse_11502" x="0" y="4.333" width="102" height="103" filterUnits="userSpaceOnUse">
      <feOffset dy="3" input="SourceAlpha"/>
      <feGaussianBlur stdDeviation="3" result="blur"/>
      <feFlood flood-opacity="0.161"/>
      <feComposite operator="in" in2="blur"/>
      <feComposite in="SourceGraphic"/>
    </filter>
    <filter id="Elipse_11502-2" x="0" y="4.333" width="102" height="103" filterUnits="userSpaceOnUse">
      <feOffset dy="6" input="SourceAlpha"/>
      <feGaussianBlur stdDeviation="3" result="blur-2"/>
      <feFlood flood-opacity="0.161" result="color"/>
      <feComposite operator="out" in="SourceGraphic" in2="blur-2"/>
      <feComposite operator="in" in="color"/>
      <feComposite operator="in" in2="SourceGraphic"/>
    </filter>
    <clipPath id="clip-path">
      <rect id="Rectángulo_401455" data-name="Rectángulo 401455" width="23.417" height="33.616" fill="#12263f"/>
    </clipPath>
  </defs>
  <g id="Grupo_1099584" data-name="Grupo 1099584" transform="translate(-1204.333 -380.667)">
    <g id="Grupo_1099493" data-name="Grupo 1099493" transform="translate(1213.142 391.33)">
      <g data-type="innerShadowGroup">
        <g transform="matrix(1, 0, 0, 1, -8.81, -10.66)" filter="url(#Elipse_11502)">
          <ellipse id="Elipse_11502-3" data-name="Elipse 11502" cx="42" cy="42.5" rx="42" ry="42.5" transform="translate(9 10.33)" fill="#e8f57a"/>
        </g>
        <g transform="matrix(1, 0, 0, 1, -8.81, -10.66)" filter="url(#Elipse_11502-2)">
          <ellipse id="Elipse_11502-4" data-name="Elipse 11502" cx="42" cy="42.5" rx="42" ry="42.5" transform="translate(9 10.33)" fill="#fff"/>
        </g>
      </g>
      <g id="carga" transform="translate(16.955 18.709)">
        <g id="Grupo_1099475" data-name="Grupo 1099475" transform="translate(0.815 0.585)">
          <g id="Grupo_1099463" data-name="Grupo 1099463" transform="translate(35.726 0)">
            <circle id="Elipse_11503" data-name="Elipse 11503" cx="6.5" cy="6.5" r="6.5" transform="translate(-0.305 0.376)" fill="#ff826e"/>
          </g>
          <g id="Grupo_1099464" data-name="Grupo 1099464" transform="translate(22.708 1.852)">
            <path id="Trazado_875172" data-name="Trazado 875172" d="M38.09,8.856V32.374H34.846V8.045a.808.808,0,0,0-.811-.811H29.98V3.99h4.866A3.248,3.248,0,0,1,38.09,7.234Z" transform="translate(-29.98 -3.99)" fill="#9a9b87"/>
          </g>
          <g id="Grupo_1099465" data-name="Grupo 1099465" transform="translate(0 1.852)">
            <path id="Trazado_875173" data-name="Trazado 875173" d="M26.309,45.35v.811H5.224A3.248,3.248,0,0,1,1.98,42.917V7.234A3.243,3.243,0,0,1,5.224,3.99H10.09V7.234H6.035a.8.8,0,0,0-.811.811V42.106a.808.808,0,0,0,.811.811H26.309Z" transform="translate(-1.98 -3.99)" fill="#c0c2a8"/>
          </g>
          <g id="Grupo_1099466" data-name="Grupo 1099466" transform="translate(3.244 5.096)">
            <path id="Trazado_875174" data-name="Trazado 875174" d="M30.309,8.8V33.13H27.066V43.673H6.791a.808.808,0,0,1-.811-.811V8.8a.8.8,0,0,1,.811-.811h4.055a1.622,1.622,0,0,0,1.622,1.622H23.822A1.627,1.627,0,0,0,25.444,7.99H29.5a.808.808,0,0,1,.811.811Z" transform="translate(-5.98 -7.99)" fill="#e6e9ed"/>
          </g>
          <g id="Grupo_1099467" data-name="Grupo 1099467" transform="translate(6.488 31.047)">
            <path id="Trazado_875175" data-name="Trazado 875175" d="M9.98,39.99h8.11v6.488H9.98Z" transform="translate(-9.98 -39.99)" fill="#f5827a"/>
          </g>
          <g id="Grupo_1099468" data-name="Grupo 1099468" transform="translate(8.11 0.23)">
            <path id="Trazado_875176" data-name="Trazado 875176" d="M26.578,3.612V6.856a1.627,1.627,0,0,1-1.622,1.622H13.6A1.622,1.622,0,0,1,11.98,6.856V3.612A1.616,1.616,0,0,1,13.6,1.99H24.956a1.622,1.622,0,0,1,1.622,1.622Z" transform="translate(-11.98 -1.99)" fill="#aab2bd"/>
          </g>
          <g id="Grupo_1099469" data-name="Grupo 1099469" transform="translate(24.329 43.212)">
            <path id="Trazado_875177" data-name="Trazado 875177" d="M31.98,54.99H56.309v1.622a1.627,1.627,0,0,1-1.622,1.622H53.066a2.433,2.433,0,0,0-4.866,0H40.09a2.433,2.433,0,0,0-4.866,0H33.6a1.622,1.622,0,0,1-1.622-1.622V54.99Z" transform="translate(-31.98 -54.99)" fill="#ccd1d9"/>
          </g>
          <g id="Grupo_1099470" data-name="Grupo 1099470" transform="translate(40.111 43.85)">
            <ellipse id="Elipse_11504" data-name="Elipse 11504" cx="2.5" cy="3" rx="2.5" ry="3" transform="translate(0.31 -0.474)" fill="#969faa"/>
          </g>
          <g id="Grupo_1099471" data-name="Grupo 1099471" transform="translate(27.833 43.85)">
            <ellipse id="Elipse_11505" data-name="Elipse 11505" cx="2.5" cy="3" rx="2.5" ry="3" transform="translate(-0.413 -0.474)" fill="#969faa"/>
          </g>
          <g id="Grupo_1099472" data-name="Grupo 1099472" transform="translate(38.927 33.48)">
            <path id="Trazado_875178" data-name="Trazado 875178" d="M59.712,46.234v6.488H49.98V42.99h7.3Z" transform="translate(-49.98 -42.99)" fill="#f5827a"/>
          </g>
          <g id="Grupo_1099473" data-name="Grupo 1099473" transform="translate(24.329 30.236)">
            <path id="Trazado_875179" data-name="Trazado 875179" d="M31.98,38.99h14.6V51.966H31.98Z" transform="translate(-31.98 -38.99)" fill="#7ab8f5"/>
          </g>
          <g id="Grupo_1099474" data-name="Grupo 1099474" transform="translate(29.195 30.236)">
            <path id="Trazado_875180" data-name="Trazado 875180" d="M39.6,38.99h3.244v3.244H37.98V38.99Z" transform="translate(-37.98 -38.99)" fill="#b27946"/>
          </g>
        </g>
        <g id="Grupo_1099476" data-name="Grupo 1099476" transform="translate(0 0)">
          <path id="Trazado_875181" data-name="Trazado 875181" d="M56.9,7.425,55.756,6.278l-4.293,4.293L50.415,9.522l-1.147,1.147,2.2,2.2Z" transform="translate(-10.103 -1.985)"/>
          <path id="Trazado_875182" data-name="Trazado 875182" d="M15.978,13.358l-1.3-.972-4.3,5.739-.961-.961L8.268,18.311l2.283,2.284Z" transform="translate(-2.354 -3.14)"/>
          <path id="Trazado_875183" data-name="Trazado 875183" d="M44.768,34.235v-18.7a7.3,7.3,0,1,0-8.062-8.062H33.414V6.662a4.06,4.06,0,0,0-4.055-4.055h-4.2A2.43,2.43,0,0,0,22.872.985H11.518A2.43,2.43,0,0,0,9.234,2.607H5.03A4.06,4.06,0,0,0,.975,6.662V42.345A4.06,4.06,0,0,0,5.03,46.4H25.3a2.436,2.436,0,0,0,2.433,2.433h.926a3.228,3.228,0,0,0,6.258,0h6.718a3.228,3.228,0,0,0,6.258,0h.926A2.436,2.436,0,0,0,51.256,46.4V38.02l-2.838-3.785ZM43.957,2.607A5.677,5.677,0,1,1,38.28,8.284,5.684,5.684,0,0,1,43.957,2.607ZM36.706,9.095a7.309,7.309,0,0,0,6.44,6.44v18.7H41.524V30.991h-8.11V9.095Zm-9.78,34.872V32.613H30.17v3.244h6.488V32.613H39.9V43.967ZM9.234,7.473a2.43,2.43,0,0,0,2.284,1.622H22.872a2.43,2.43,0,0,0,2.284-1.622h3.393V30.991H25.3V41.534H5.841V7.473Zm22.558,25.14h3.244v1.622H31.792Zm0-25.951V30.991H30.17V7.473a1.624,1.624,0,0,0-1.622-1.622H25.3V4.229h4.055A2.436,2.436,0,0,1,31.792,6.662ZM10.707,3.418a.812.812,0,0,1,.811-.811H22.872a.812.812,0,0,1,.811.811V6.662a.812.812,0,0,1-.811.811H11.518a.812.812,0,0,1-.811-.811ZM5.03,44.778A2.436,2.436,0,0,1,2.6,42.345V6.662A2.436,2.436,0,0,1,5.03,4.229H9.085V5.851H5.841A1.624,1.624,0,0,0,4.219,7.473V41.534a1.624,1.624,0,0,0,1.622,1.622H25.3v1.622Zm23.634,2.433h-.926a.812.812,0,0,1-.811-.811v-.811h2.743A3.231,3.231,0,0,0,28.664,47.211Zm3.129,2.433a1.622,1.622,0,1,1,1.622-1.622A1.624,1.624,0,0,1,31.792,49.644Zm9.847-2.433H34.921a3.224,3.224,0,0,0-1.006-1.622h8.729a3.231,3.231,0,0,0-1.006,1.622Zm3.129,2.433a1.622,1.622,0,1,1,1.622-1.622A1.624,1.624,0,0,1,44.768,49.644Zm4.055-2.433H47.9a3.224,3.224,0,0,0-1.006-1.622h2.743V46.4A.812.812,0,0,1,48.823,47.211Zm.811-3.244h-8.11v-8.11h6.082l2.027,2.7Z" transform="translate(-0.975 -0.985)"/>
          <path id="Trazado_875184" data-name="Trazado 875184" d="M19.975,12.985H30.518v1.622H19.975Z" transform="translate(-4.566 -3.253)"/>
          <path id="Trazado_875185" data-name="Trazado 875185" d="M30.975,16.985H32.6v1.622H30.975Z" transform="translate(-6.646 -4.009)"/>
          <path id="Trazado_875186" data-name="Trazado 875186" d="M19.975,16.985h7.3v1.622h-7.3Z" transform="translate(-4.566 -4.009)"/>
          <path id="Trazado_875187" data-name="Trazado 875187" d="M19.975,20.985H30.518v1.622H19.975Z" transform="translate(-4.566 -4.765)"/>
          <path id="Trazado_875188" data-name="Trazado 875188" d="M15.978,25.358l-1.3-.972-4.3,5.739-.961-.961L8.268,30.311l2.283,2.284Z" transform="translate(-2.354 -5.408)"/>
          <path id="Trazado_875189" data-name="Trazado 875189" d="M19.975,24.985H30.518v1.622H19.975Z" transform="translate(-4.566 -5.521)"/>
          <path id="Trazado_875190" data-name="Trazado 875190" d="M30.975,28.985H32.6v1.622H30.975Z" transform="translate(-6.646 -6.277)"/>
          <path id="Trazado_875191" data-name="Trazado 875191" d="M19.975,28.985h7.3v1.622h-7.3Z" transform="translate(-4.566 -6.277)"/>
          <path id="Trazado_875192" data-name="Trazado 875192" d="M19.975,32.985H30.518v1.622H19.975Z" transform="translate(-4.566 -7.034)"/>
          <path id="Trazado_875193" data-name="Trazado 875193" d="M8.975,47.095h9.732v-8.11H8.975ZM10.6,40.607h6.488v4.866H10.6Z" transform="translate(-2.487 -8.168)"/>
          <path id="Trazado_875194" data-name="Trazado 875194" d="M22.975,38.985h4.866v1.622H22.975Z" transform="translate(-5.133 -8.168)"/>
          <path id="Trazado_875195" data-name="Trazado 875195" d="M22.975,42.985h4.866v1.622H22.975Z" transform="translate(-5.133 -8.924)"/>
          <path id="Trazado_875196" data-name="Trazado 875196" d="M22.975,46.985h4.866v1.622H22.975Z" transform="translate(-5.133 -9.68)"/>
        </g>
      </g>
    </g>
    <g id="Grupo_1099583" data-name="Grupo 1099583" transform="translate(-269.417 46)">
      <g id="Grupo_1099580" data-name="Grupo 1099580" transform="translate(1543.333 334.667)">
        <g id="Grupo_1099579" data-name="Grupo 1099579" clip-path="url(#clip-path)">
          <path id="Trazado_877686" data-name="Trazado 877686" d="M11.535.013a11.5,11.5,0,0,1,5.988,1.539A11.754,11.754,0,0,1,22.1,17.265L12.3,33.19a1.219,1.219,0,0,1-.374.389.473.473,0,0,1-.257.031l-.024-.005c-.342-.075-.7-.835-.869-1.111L2.787,19.555C1.056,16.711.057,15.084.067,11.613A6.5,6.5,0,0,1,.1,10.593L.3,9.451A11.813,11.813,0,0,1,9.877.168,10.047,10.047,0,0,1,11.535.013" transform="translate(-0.062 -0.005)" fill="#12263f"/>
        </g>
      </g>
      <circle id="Elipse_11513" data-name="Elipse 11513" cx="5.5" cy="5.5" r="5.5" transform="translate(1549.333 340)" fill="#fff"/>
    </g>
  </g>
</svg>
