<svg xmlns="http://www.w3.org/2000/svg" width="17.762" height="22.676" viewBox="0 0 17.762 22.676">
  <g id="_x30_1_location" transform="translate(-5.011 -2)">
    <path id="Trazado_882629" data-name="Trazado 882629" d="M22.479,8.392a8.95,8.95,0,0,0-17.154,0,9.519,9.519,0,0,0-.081,4.531c.566,1.861,2.185,5.1,6.392,10.114a4.625,4.625,0,0,0,.566.647,4.241,4.241,0,0,0,.89.809,1.714,1.714,0,0,0,1.537,0,4.241,4.241,0,0,0,.89-.809,4.626,4.626,0,0,1,.566-.647c4.207-4.936,5.826-8.253,6.311-10.114A7.87,7.87,0,0,0,22.479,8.392ZM17.948,10.9A4.046,4.046,0,1,1,13.9,6.855,4.006,4.006,0,0,1,17.948,10.9Z" transform="translate(0 0)" fill="#496f93"/>
  </g>
</svg>
